solid ascii
  facet normal 9.999582e-001 -3.757126e-018 -9.147696e-003
    outer loop
      vertex   -8.799994e+001 8.055000e+001 3.569999e+001
      vertex   -8.799994e+001 4.595000e+001 3.569999e+001
      vertex   -8.830000e+001 7.104999e+001 2.899988e+000
    endloop
  endfacet
  facet normal 9.999582e-001 -4.149805e-018 -9.147696e-003
    outer loop
      vertex   -8.830000e+001 7.104999e+001 2.899988e+000
      vertex   -8.799994e+001 4.595000e+001 3.569999e+001
      vertex   -8.830000e+001 1.884999e+001 2.899988e+000
    endloop
  endfacet
  facet normal 9.999582e-001 -5.635690e-018 -9.147696e-003
    outer loop
      vertex   -8.830000e+001 1.884999e+001 2.899988e+000
      vertex   -8.799994e+001 4.595000e+001 3.569999e+001
      vertex   -8.799994e+001 1.135000e+001 3.569999e+001
    endloop
  endfacet
  facet normal 0.000000e+000 9.605231e-001 -2.782003e-001
    outer loop
      vertex   -8.799994e+001 8.055000e+001 3.569999e+001
      vertex   -8.830000e+001 7.104999e+001 2.899988e+000
      vertex   -8.899994e+001 8.055000e+001 3.569999e+001
    endloop
  endfacet
  facet normal 0.000000e+000 9.605231e-001 -2.782003e-001
    outer loop
      vertex   -8.899994e+001 8.055000e+001 3.569999e+001
      vertex   -8.830000e+001 7.104999e+001 2.899988e+000
      vertex   -8.930000e+001 7.104999e+001 2.899988e+000
    endloop
  endfacet
  facet normal -9.999582e-001 5.635690e-018 9.147696e-003
    outer loop
      vertex   -8.899994e+001 1.135000e+001 3.569999e+001
      vertex   -8.899994e+001 4.595000e+001 3.569999e+001
      vertex   -8.930000e+001 1.884999e+001 2.899988e+000
    endloop
  endfacet
  facet normal -9.999582e-001 3.112354e-018 9.147696e-003
    outer loop
      vertex   -8.930000e+001 1.884999e+001 2.899988e+000
      vertex   -8.899994e+001 4.595000e+001 3.569999e+001
      vertex   -8.930000e+001 7.104999e+001 2.899988e+000
    endloop
  endfacet
  facet normal -9.999582e-001 5.635690e-018 9.147696e-003
    outer loop
      vertex   -8.930000e+001 7.104999e+001 2.899988e+000
      vertex   -8.899994e+001 4.595000e+001 3.569999e+001
      vertex   -8.899994e+001 8.055000e+001 3.569999e+001
    endloop
  endfacet
  facet normal 0.000000e+000 -2.220444e-015 1.000000e+000
    outer loop
      vertex   -1.440000e+002 7.104999e+001 2.899988e+000
      vertex   -8.930000e+001 7.104999e+001 2.899988e+000
      vertex   -1.078333e+002 7.305000e+001 2.899988e+000
    endloop
  endfacet
  facet normal -5.088838e-008 9.202309e-007 1.000000e+000
    outer loop
      vertex   -1.459000e+002 7.305000e+001 2.899986e+000
      vertex   -1.440000e+002 7.104999e+001 2.899988e+000
      vertex   -1.078333e+002 7.305000e+001 2.899988e+000
    endloop
  endfacet
  facet normal -1.019558e-006 2.960595e-016 1.000000e+000
    outer loop
      vertex   -1.459000e+002 7.305000e+001 2.899986e+000
      vertex   -1.459000e+002 5.805000e+001 2.899986e+000
      vertex   -1.440000e+002 7.104999e+001 2.899988e+000
    endloop
  endfacet
  facet normal -1.019558e-006 5.104474e-016 1.000000e+000
    outer loop
      vertex   -1.440000e+002 7.104999e+001 2.899988e+000
      vertex   -1.459000e+002 5.805000e+001 2.899986e+000
      vertex   -1.440000e+002 1.884999e+001 2.899988e+000
    endloop
  endfacet
  facet normal 2.384186e-007 6.097306e-008 1.000000e+000
    outer loop
      vertex   -1.440000e+002 1.884999e+001 2.899988e+000
      vertex   -1.459000e+002 5.805000e+001 2.899986e+000
      vertex   -1.480000e+002 1.885000e+001 2.899989e+000
    endloop
  endfacet
  facet normal 0.000000e+000 7.374554e-008 1.000000e+000
    outer loop
      vertex   -1.480000e+002 1.885000e+001 2.899989e+000
      vertex   -1.459000e+002 5.805000e+001 2.899986e+000
      vertex   -1.480000e+002 5.805000e+001 2.899986e+000
    endloop
  endfacet
  facet normal 0.000000e+000 -2.220444e-015 1.000000e+000
    outer loop
      vertex   -3.360000e+001 7.104999e+001 2.899988e+000
      vertex   -6.976666e+001 7.305000e+001 2.899988e+000
      vertex   -8.830000e+001 7.104999e+001 2.899988e+000
    endloop
  endfacet
  facet normal 5.088838e-008 9.202305e-007 1.000000e+000
    outer loop
      vertex   -3.360000e+001 7.104999e+001 2.899988e+000
      vertex   -3.169999e+001 7.305000e+001 2.899986e+000
      vertex   -6.976666e+001 7.305000e+001 2.899988e+000
    endloop
  endfacet
  facet normal 1.019548e-006 2.960595e-016 1.000000e+000
    outer loop
      vertex   -3.360000e+001 7.104999e+001 2.899988e+000
      vertex   -3.169999e+001 5.805000e+001 2.899986e+000
      vertex   -3.169999e+001 7.305000e+001 2.899986e+000
    endloop
  endfacet
  facet normal 1.019548e-006 3.402982e-016 1.000000e+000
    outer loop
      vertex   -3.360000e+001 7.104999e+001 2.899988e+000
      vertex   -3.360000e+001 1.884999e+001 2.899988e+000
      vertex   -3.169999e+001 5.805000e+001 2.899986e+000
    endloop
  endfacet
  facet normal -2.384186e-007 6.097317e-008 1.000000e+000
    outer loop
      vertex   -3.169999e+001 5.805000e+001 2.899986e+000
      vertex   -3.360000e+001 1.884999e+001 2.899988e+000
      vertex   -2.960000e+001 1.885000e+001 2.899989e+000
    endloop
  endfacet
  facet normal 0.000000e+000 7.374554e-008 1.000000e+000
    outer loop
      vertex   -2.959999e+001 5.805000e+001 2.899986e+000
      vertex   -3.169999e+001 5.805000e+001 2.899986e+000
      vertex   -2.960000e+001 1.885000e+001 2.899989e+000
    endloop
  endfacet
  facet normal 0.000000e+000 -2.220444e-015 1.000000e+000
    outer loop
      vertex   -6.976666e+001 7.305000e+001 2.899988e+000
      vertex   -1.078333e+002 7.305000e+001 2.899988e+000
      vertex   -8.830000e+001 7.104999e+001 2.899988e+000
    endloop
  endfacet
  facet normal 0.000000e+000 -2.220444e-015 1.000000e+000
    outer loop
      vertex   -8.830000e+001 7.104999e+001 2.899988e+000
      vertex   -1.078333e+002 7.305000e+001 2.899988e+000
      vertex   -8.930000e+001 7.104999e+001 2.899988e+000
    endloop
  endfacet
  facet normal -2.427091e-008 9.748401e-001 2.229055e-001
    outer loop
      vertex   -8.799994e+001 1.135000e+001 3.569999e+001
      vertex   -5.714997e+001 1.135000e+001 3.569999e+001
      vertex   -8.830000e+001 1.884999e+001 2.899988e+000
    endloop
  endfacet
  facet normal 3.088534e-017 9.748401e-001 2.229054e-001
    outer loop
      vertex   -8.830000e+001 1.884999e+001 2.899988e+000
      vertex   -5.714997e+001 1.135000e+001 3.569999e+001
      vertex   -3.360000e+001 1.884999e+001 2.899988e+000
    endloop
  endfacet
  facet normal 5.723985e-015 9.748401e-001 2.229054e-001
    outer loop
      vertex   -3.360000e+001 1.884999e+001 2.899988e+000
      vertex   -5.714997e+001 1.135000e+001 3.569999e+001
      vertex   -2.630000e+001 1.135000e+001 3.569999e+001
    endloop
  endfacet
  facet normal -4.715008e-007 9.748401e-001 2.229055e-001
    outer loop
      vertex   -2.960000e+001 1.885000e+001 2.899989e+000
      vertex   -3.360000e+001 1.884999e+001 2.899988e+000
      vertex   -2.630000e+001 1.135000e+001 3.569999e+001
    endloop
  endfacet
  facet normal 0.000000e+000 1.000000e+000 -0.000000e+000
    outer loop
      vertex   -1.521000e+002 8.055035e+001 3.569999e+001
      vertex   -1.533000e+002 8.055035e+001 3.569999e+001
      vertex   -1.521000e+002 8.055035e+001 3.719999e+001
    endloop
  endfacet
  facet normal 0.000000e+000 1.000000e+000 -0.000000e+000
    outer loop
      vertex   -1.521000e+002 8.055035e+001 3.719999e+001
      vertex   -1.533000e+002 8.055035e+001 3.569999e+001
      vertex   -1.533000e+002 8.055035e+001 3.719999e+001
    endloop
  endfacet
  facet normal 1.000000e+000 0.000000e+000 -0.000000e+000
    outer loop
      vertex   -1.521000e+002 8.055035e+001 3.569999e+001
      vertex   -1.521000e+002 8.055035e+001 3.719999e+001
      vertex   -1.521000e+002 8.055000e+001 3.569999e+001
    endloop
  endfacet
  facet normal 1.000000e+000 0.000000e+000 -0.000000e+000
    outer loop
      vertex   -1.521000e+002 8.055000e+001 3.569999e+001
      vertex   -1.521000e+002 8.055035e+001 3.719999e+001
      vertex   -1.521000e+002 7.935035e+001 3.719999e+001
    endloop
  endfacet
  facet normal 1.000000e+000 0.000000e+000 -0.000000e+000
    outer loop
      vertex   -1.521000e+002 7.935035e+001 3.569999e+001
      vertex   -1.521000e+002 8.055000e+001 3.569999e+001
      vertex   -1.521000e+002 7.935035e+001 3.719999e+001
    endloop
  endfacet
  facet normal 0.000000e+000 -1.000000e+000 0.000000e+000
    outer loop
      vertex   -1.533000e+002 7.935035e+001 3.569999e+001
      vertex   -1.521000e+002 7.935035e+001 3.569999e+001
      vertex   -1.533000e+002 7.935035e+001 3.719999e+001
    endloop
  endfacet
  facet normal 0.000000e+000 -1.000000e+000 0.000000e+000
    outer loop
      vertex   -1.533000e+002 7.935035e+001 3.719999e+001
      vertex   -1.521000e+002 7.935035e+001 3.569999e+001
      vertex   -1.521000e+002 7.935035e+001 3.719999e+001
    endloop
  endfacet
  facet normal -1.000000e+000 2.369175e-014 0.000000e+000
    outer loop
      vertex   -1.533000e+002 7.935035e+001 3.569999e+001
      vertex   -1.533000e+002 7.935035e+001 3.719999e+001
      vertex   -1.533000e+002 8.055000e+001 3.569999e+001
    endloop
  endfacet
  facet normal -1.000000e+000 0.000000e+000 -1.894781e-014
    outer loop
      vertex   -1.533000e+002 8.055000e+001 3.569999e+001
      vertex   -1.533000e+002 7.935035e+001 3.719999e+001
      vertex   -1.533000e+002 8.055035e+001 3.719999e+001
    endloop
  endfacet
  facet normal -1.000000e+000 -8.020703e-011 0.000000e+000
    outer loop
      vertex   -1.533000e+002 8.055035e+001 3.569999e+001
      vertex   -1.533000e+002 8.055000e+001 3.569999e+001
      vertex   -1.533000e+002 8.055035e+001 3.719999e+001
    endloop
  endfacet
  facet normal -0.000000e+000 0.000000e+000 1.000000e+000
    outer loop
      vertex   -1.533000e+002 8.055035e+001 3.719999e+001
      vertex   -1.533000e+002 7.935035e+001 3.719999e+001
      vertex   -1.521000e+002 8.055035e+001 3.719999e+001
    endloop
  endfacet
  facet normal -0.000000e+000 0.000000e+000 1.000000e+000
    outer loop
      vertex   -1.521000e+002 8.055035e+001 3.719999e+001
      vertex   -1.533000e+002 7.935035e+001 3.719999e+001
      vertex   -1.521000e+002 7.935035e+001 3.719999e+001
    endloop
  endfacet
  facet normal -2.560995e-007 0.000000e+000 -1.000000e+000
    outer loop
      vertex   -1.521000e+002 8.055000e+001 3.569999e+001
      vertex   -1.533000e+002 8.055000e+001 3.569999e+001
      vertex   -1.521000e+002 8.055035e+001 3.569999e+001
    endloop
  endfacet
  facet normal 0.000000e+000 -8.672655e-004 -9.999996e-001
    outer loop
      vertex   -1.521000e+002 8.055035e+001 3.569999e+001
      vertex   -1.533000e+002 8.055000e+001 3.569999e+001
      vertex   -1.533000e+002 8.055035e+001 3.569999e+001
    endloop
  endfacet
  facet normal 0.000000e+000 1.000000e+000 -0.000000e+000
    outer loop
      vertex   -2.430000e+001 8.055035e+001 3.569999e+001
      vertex   -2.550000e+001 8.055035e+001 3.569999e+001
      vertex   -2.430000e+001 8.055035e+001 3.719999e+001
    endloop
  endfacet
  facet normal 0.000000e+000 1.000000e+000 -0.000000e+000
    outer loop
      vertex   -2.430000e+001 8.055035e+001 3.719999e+001
      vertex   -2.550000e+001 8.055035e+001 3.569999e+001
      vertex   -2.550000e+001 8.055035e+001 3.719999e+001
    endloop
  endfacet
  facet normal 1.000000e+000 0.000000e+000 -0.000000e+000
    outer loop
      vertex   -2.430000e+001 8.055035e+001 3.569999e+001
      vertex   -2.430000e+001 8.055035e+001 3.719999e+001
      vertex   -2.430000e+001 8.055000e+001 3.569999e+001
    endloop
  endfacet
  facet normal 1.000000e+000 0.000000e+000 -0.000000e+000
    outer loop
      vertex   -2.430000e+001 8.055000e+001 3.569999e+001
      vertex   -2.430000e+001 8.055035e+001 3.719999e+001
      vertex   -2.430000e+001 7.935035e+001 3.719999e+001
    endloop
  endfacet
  facet normal 1.000000e+000 0.000000e+000 -0.000000e+000
    outer loop
      vertex   -2.430000e+001 7.935035e+001 3.569999e+001
      vertex   -2.430000e+001 8.055000e+001 3.569999e+001
      vertex   -2.430000e+001 7.935035e+001 3.719999e+001
    endloop
  endfacet
  facet normal 0.000000e+000 -1.000000e+000 0.000000e+000
    outer loop
      vertex   -2.550000e+001 7.935035e+001 3.569999e+001
      vertex   -2.430000e+001 7.935035e+001 3.569999e+001
      vertex   -2.550000e+001 7.935035e+001 3.719999e+001
    endloop
  endfacet
  facet normal 0.000000e+000 -1.000000e+000 0.000000e+000
    outer loop
      vertex   -2.550000e+001 7.935035e+001 3.719999e+001
      vertex   -2.430000e+001 7.935035e+001 3.569999e+001
      vertex   -2.430000e+001 7.935035e+001 3.719999e+001
    endloop
  endfacet
  facet normal -1.000000e+000 0.000000e+000 0.000000e+000
    outer loop
      vertex   -2.550000e+001 7.935035e+001 3.569999e+001
      vertex   -2.550000e+001 7.935035e+001 3.719999e+001
      vertex   -2.550000e+001 8.055000e+001 3.569999e+001
    endloop
  endfacet
  facet normal -1.000000e+000 0.000000e+000 0.000000e+000
    outer loop
      vertex   -2.550000e+001 8.055000e+001 3.569999e+001
      vertex   -2.550000e+001 7.935035e+001 3.719999e+001
      vertex   -2.550000e+001 8.055035e+001 3.719999e+001
    endloop
  endfacet
  facet normal -1.000000e+000 0.000000e+000 0.000000e+000
    outer loop
      vertex   -2.550000e+001 8.055035e+001 3.569999e+001
      vertex   -2.550000e+001 8.055000e+001 3.569999e+001
      vertex   -2.550000e+001 8.055035e+001 3.719999e+001
    endloop
  endfacet
  facet normal -0.000000e+000 0.000000e+000 1.000000e+000
    outer loop
      vertex   -2.550000e+001 8.055035e+001 3.719999e+001
      vertex   -2.550000e+001 7.935035e+001 3.719999e+001
      vertex   -2.430000e+001 8.055035e+001 3.719999e+001
    endloop
  endfacet
  facet normal -0.000000e+000 0.000000e+000 1.000000e+000
    outer loop
      vertex   -2.430000e+001 8.055035e+001 3.719999e+001
      vertex   -2.550000e+001 7.935035e+001 3.719999e+001
      vertex   -2.430000e+001 7.935035e+001 3.719999e+001
    endloop
  endfacet
  facet normal -0.000000e+000 -8.672655e-004 -9.999996e-001
    outer loop
      vertex   -2.430000e+001 8.055000e+001 3.569999e+001
      vertex   -2.550000e+001 8.055000e+001 3.569999e+001
      vertex   -2.430000e+001 8.055035e+001 3.569999e+001
    endloop
  endfacet
  facet normal 0.000000e+000 -8.672655e-004 -9.999996e-001
    outer loop
      vertex   -2.430000e+001 8.055035e+001 3.569999e+001
      vertex   -2.550000e+001 8.055000e+001 3.569999e+001
      vertex   -2.550000e+001 8.055035e+001 3.569999e+001
    endloop
  endfacet
  facet normal -1.000000e+000 0.000000e+000 0.000000e+000
    outer loop
      vertex   -1.532999e+002 1.055000e+001 3.569999e+001
      vertex   -1.532999e+002 9.349996e+000 3.569999e+001
      vertex   -1.532999e+002 1.055000e+001 3.719999e+001
    endloop
  endfacet
  facet normal -1.000000e+000 -0.000000e+000 0.000000e+000
    outer loop
      vertex   -1.532999e+002 1.055000e+001 3.719999e+001
      vertex   -1.532999e+002 9.349996e+000 3.569999e+001
      vertex   -1.532999e+002 9.349996e+000 3.719999e+001
    endloop
  endfacet
  facet normal 0.000000e+000 1.000000e+000 -0.000000e+000
    outer loop
      vertex   -1.520999e+002 1.055000e+001 3.569999e+001
      vertex   -1.532999e+002 1.055000e+001 3.569999e+001
      vertex   -1.520999e+002 1.055000e+001 3.719999e+001
    endloop
  endfacet
  facet normal 0.000000e+000 1.000000e+000 -0.000000e+000
    outer loop
      vertex   -1.520999e+002 1.055000e+001 3.719999e+001
      vertex   -1.532999e+002 1.055000e+001 3.569999e+001
      vertex   -1.532999e+002 1.055000e+001 3.719999e+001
    endloop
  endfacet
  facet normal 1.000000e+000 0.000000e+000 -0.000000e+000
    outer loop
      vertex   -1.520999e+002 9.349996e+000 3.569999e+001
      vertex   -1.520999e+002 1.055000e+001 3.569999e+001
      vertex   -1.520999e+002 9.349996e+000 3.719999e+001
    endloop
  endfacet
  facet normal 1.000000e+000 -0.000000e+000 0.000000e+000
    outer loop
      vertex   -1.520999e+002 9.349996e+000 3.719999e+001
      vertex   -1.520999e+002 1.055000e+001 3.569999e+001
      vertex   -1.520999e+002 1.055000e+001 3.719999e+001
    endloop
  endfacet
  facet normal 0.000000e+000 -1.000000e+000 1.184238e-015
    outer loop
      vertex   -1.532999e+002 9.349996e+000 3.569999e+001
      vertex   -1.520999e+002 9.349996e+000 3.569999e+001
      vertex   -1.532999e+002 9.349996e+000 3.719999e+001
    endloop
  endfacet
  facet normal 0.000000e+000 -1.000000e+000 1.184238e-015
    outer loop
      vertex   -1.532999e+002 9.349996e+000 3.719999e+001
      vertex   -1.520999e+002 9.349996e+000 3.569999e+001
      vertex   -1.520999e+002 9.349996e+000 3.719999e+001
    endloop
  endfacet
  facet normal 0.000000e+000 -0.000000e+000 1.000000e+000
    outer loop
      vertex   -1.520999e+002 9.349996e+000 3.719999e+001
      vertex   -1.520999e+002 1.055000e+001 3.719999e+001
      vertex   -1.532999e+002 9.349996e+000 3.719999e+001
    endloop
  endfacet
  facet normal 0.000000e+000 -0.000000e+000 1.000000e+000
    outer loop
      vertex   -1.532999e+002 9.349996e+000 3.719999e+001
      vertex   -1.520999e+002 1.055000e+001 3.719999e+001
      vertex   -1.532999e+002 1.055000e+001 3.719999e+001
    endloop
  endfacet
  facet normal -1.000000e+000 0.000000e+000 0.000000e+000
    outer loop
      vertex   -2.549994e+001 1.055000e+001 3.569999e+001
      vertex   -2.549994e+001 9.349996e+000 3.569999e+001
      vertex   -2.549994e+001 1.055000e+001 3.719999e+001
    endloop
  endfacet
  facet normal -1.000000e+000 -0.000000e+000 0.000000e+000
    outer loop
      vertex   -2.549994e+001 1.055000e+001 3.719999e+001
      vertex   -2.549994e+001 9.349996e+000 3.569999e+001
      vertex   -2.549994e+001 9.349996e+000 3.719999e+001
    endloop
  endfacet
  facet normal 0.000000e+000 1.000000e+000 -0.000000e+000
    outer loop
      vertex   -2.429994e+001 1.055000e+001 3.569999e+001
      vertex   -2.430000e+001 1.055000e+001 3.569999e+001
      vertex   -2.429994e+001 1.055000e+001 3.719999e+001
    endloop
  endfacet
  facet normal 0.000000e+000 1.000000e+000 0.000000e+000
    outer loop
      vertex   -2.429994e+001 1.055000e+001 3.719999e+001
      vertex   -2.430000e+001 1.055000e+001 3.569999e+001
      vertex   -2.549994e+001 1.055000e+001 3.719999e+001
    endloop
  endfacet
  facet normal 0.000000e+000 1.000000e+000 0.000000e+000
    outer loop
      vertex   -2.549994e+001 1.055000e+001 3.719999e+001
      vertex   -2.430000e+001 1.055000e+001 3.569999e+001
      vertex   -2.549994e+001 1.055000e+001 3.569999e+001
    endloop
  endfacet
  facet normal 1.000000e+000 0.000000e+000 -0.000000e+000
    outer loop
      vertex   -2.429994e+001 9.349996e+000 3.569999e+001
      vertex   -2.429994e+001 1.055000e+001 3.569999e+001
      vertex   -2.429994e+001 9.349996e+000 3.719999e+001
    endloop
  endfacet
  facet normal 1.000000e+000 -0.000000e+000 0.000000e+000
    outer loop
      vertex   -2.429994e+001 9.349996e+000 3.719999e+001
      vertex   -2.429994e+001 1.055000e+001 3.569999e+001
      vertex   -2.429994e+001 1.055000e+001 3.719999e+001
    endloop
  endfacet
  facet normal -3.032972e-022 -1.000000e+000 1.184238e-015
    outer loop
      vertex   -2.549994e+001 9.349996e+000 3.569999e+001
      vertex   -2.430000e+001 9.349996e+000 3.569999e+001
      vertex   -2.549994e+001 9.349996e+000 3.719999e+001
    endloop
  endfacet
  facet normal 0.000000e+000 -1.000000e+000 1.184238e-015
    outer loop
      vertex   -2.549994e+001 9.349996e+000 3.719999e+001
      vertex   -2.430000e+001 9.349996e+000 3.569999e+001
      vertex   -2.429994e+001 9.349996e+000 3.719999e+001
    endloop
  endfacet
  facet normal 6.388395e-018 -1.000000e+000 1.184238e-015
    outer loop
      vertex   -2.429994e+001 9.349996e+000 3.719999e+001
      vertex   -2.430000e+001 9.349996e+000 3.569999e+001
      vertex   -2.429994e+001 9.349996e+000 3.569999e+001
    endloop
  endfacet
  facet normal 0.000000e+000 -0.000000e+000 1.000000e+000
    outer loop
      vertex   -2.429994e+001 9.349996e+000 3.719999e+001
      vertex   -2.429994e+001 1.055000e+001 3.719999e+001
      vertex   -2.549994e+001 9.349996e+000 3.719999e+001
    endloop
  endfacet
  facet normal 0.000000e+000 -0.000000e+000 1.000000e+000
    outer loop
      vertex   -2.549994e+001 9.349996e+000 3.719999e+001
      vertex   -2.429994e+001 1.055000e+001 3.719999e+001
      vertex   -2.549994e+001 1.055000e+001 3.719999e+001
    endloop
  endfacet
  facet normal -5.394442e-003 0.000000e+000 -9.999854e-001
    outer loop
      vertex   -2.430000e+001 9.349996e+000 3.569999e+001
      vertex   -2.430000e+001 1.055000e+001 3.569999e+001
      vertex   -2.429994e+001 9.349996e+000 3.569999e+001
    endloop
  endfacet
  facet normal -5.394442e-003 0.000000e+000 -9.999854e-001
    outer loop
      vertex   -2.429994e+001 9.349996e+000 3.569999e+001
      vertex   -2.430000e+001 1.055000e+001 3.569999e+001
      vertex   -2.429994e+001 1.055000e+001 3.569999e+001
    endloop
  endfacet
  facet normal -9.949770e-001 2.305334e-007 1.001042e-001
    outer loop
      vertex   -2.960000e+001 1.885000e+001 2.899989e+000
      vertex   -2.630000e+001 4.595000e+001 3.569999e+001
      vertex   -2.959999e+001 5.805000e+001 2.899986e+000
    endloop
  endfacet
  facet normal -9.949769e-001 -1.628733e-018 1.001044e-001
    outer loop
      vertex   -2.960000e+001 1.885000e+001 2.899989e+000
      vertex   -2.630000e+001 1.135000e+001 3.569999e+001
      vertex   -2.630000e+001 4.595000e+001 3.569999e+001
    endloop
  endfacet
  facet normal -9.949770e-001 2.759156e-008 1.001041e-001
    outer loop
      vertex   -2.630000e+001 4.595000e+001 3.569999e+001
      vertex   -2.630000e+001 8.055000e+001 3.569998e+001
      vertex   -2.959999e+001 5.805000e+001 2.899986e+000
    endloop
  endfacet
  facet normal -9.949770e-001 5.747754e-017 1.001041e-001
    outer loop
      vertex   -2.959999e+001 5.805000e+001 2.899986e+000
      vertex   -2.630000e+001 8.055000e+001 3.569998e+001
      vertex   -2.959999e+001 7.305000e+001 2.899986e+000
    endloop
  endfacet
  facet normal -2.158999e-007 9.748400e-001 -2.229056e-001
    outer loop
      vertex   -1.480000e+002 7.305000e+001 2.899986e+000
      vertex   -1.500000e+002 7.305000e+001 2.899988e+000
      vertex   -1.513000e+002 8.055000e+001 3.569998e+001
    endloop
  endfacet
  facet normal -1.806924e-006 9.748400e-001 -2.229056e-001
    outer loop
      vertex   -1.513000e+002 8.055000e+001 3.569998e+001
      vertex   -1.500000e+002 7.305000e+001 2.899988e+000
      vertex   -1.521000e+002 8.055000e+001 3.569999e+001
    endloop
  endfacet
  facet normal 1.619035e-014 9.748401e-001 -2.229055e-001
    outer loop
      vertex   -1.521000e+002 8.055000e+001 3.569999e+001
      vertex   -1.500000e+002 7.305000e+001 2.899988e+000
      vertex   -1.533000e+002 8.055000e+001 3.569999e+001
    endloop
  endfacet
  facet normal 0.000000e+000 9.201082e-009 1.000000e+000
    outer loop
      vertex   -1.533000e+002 7.935035e+001 3.569999e+001
      vertex   -1.513000e+002 4.595000e+001 3.569999e+001
      vertex   -1.521000e+002 7.935035e+001 3.569999e+001
    endloop
  endfacet
  facet normal -7.023619e-009 8.780511e-009 1.000000e+000
    outer loop
      vertex   -1.533000e+002 7.935035e+001 3.569999e+001
      vertex   -1.533000e+002 4.435017e+001 3.569999e+001
      vertex   -1.513000e+002 4.595000e+001 3.569999e+001
    endloop
  endfacet
  facet normal -7.055304e-008 8.820109e-008 1.000000e+000
    outer loop
      vertex   -1.513000e+002 4.595000e+001 3.569999e+001
      vertex   -1.533000e+002 4.435017e+001 3.569999e+001
      vertex   -1.513000e+002 1.135000e+001 3.569999e+001
    endloop
  endfacet
  facet normal -1.675948e-006 -9.095068e-009 1.000000e+000
    outer loop
      vertex   -1.513000e+002 1.135000e+001 3.569999e+001
      vertex   -1.533000e+002 4.435017e+001 3.569999e+001
      vertex   -1.532999e+002 1.055000e+001 3.569999e+001
    endloop
  endfacet
  facet normal 0.000000e+000 -4.198847e-006 1.000000e+000
    outer loop
      vertex   -1.520999e+002 1.055000e+001 3.569999e+001
      vertex   -1.513000e+002 1.135000e+001 3.569999e+001
      vertex   -1.532999e+002 1.055000e+001 3.569999e+001
    endloop
  endfacet
  facet normal -4.199146e-006 0.000000e+000 1.000000e+000
    outer loop
      vertex   -1.520999e+002 1.055000e+001 3.569999e+001
      vertex   -1.520999e+002 9.349996e+000 3.569999e+001
      vertex   -1.513000e+002 1.135000e+001 3.569999e+001
    endloop
  endfacet
  facet normal 9.796970e-008 -1.718724e-006 1.000000e+000
    outer loop
      vertex   -1.513000e+002 1.135000e+001 3.569999e+001
      vertex   -1.520999e+002 9.349996e+000 3.569999e+001
      vertex   -1.201500e+002 1.135000e+001 3.569999e+001
    endloop
  endfacet
  facet normal -7.282451e-009 -3.732264e-008 1.000000e+000
    outer loop
      vertex   -1.201500e+002 1.135000e+001 3.569999e+001
      vertex   -1.520999e+002 9.349996e+000 3.569999e+001
      vertex   -1.098999e+002 9.349996e+000 3.569999e+001
    endloop
  endfacet
  facet normal 1.683751e-016 1.536597e-007 1.000000e+000
    outer loop
      vertex   -8.899994e+001 1.135000e+001 3.569999e+001
      vertex   -1.098999e+002 9.349996e+000 3.569999e+001
      vertex   -6.769994e+001 9.349996e+000 3.569999e+001
    endloop
  endfacet
  facet normal -9.961742e-009 5.254804e-008 1.000000e+000
    outer loop
      vertex   -8.799994e+001 1.135000e+001 3.569999e+001
      vertex   -6.769994e+001 9.349996e+000 3.569999e+001
      vertex   -5.714997e+001 1.135000e+001 3.569999e+001
    endloop
  endfacet
  facet normal 7.105427e-015 1.536598e-007 1.000000e+000
    outer loop
      vertex   -8.799994e+001 1.135000e+001 3.569999e+001
      vertex   -8.899994e+001 1.135000e+001 3.569999e+001
      vertex   -6.769994e+001 9.349996e+000 3.569999e+001
    endloop
  endfacet
  facet normal 7.105427e-015 6.160775e-016 1.000000e+000
    outer loop
      vertex   -8.799994e+001 1.135000e+001 3.569999e+001
      vertex   -8.799994e+001 4.595000e+001 3.569999e+001
      vertex   -8.899994e+001 1.135000e+001 3.569999e+001
    endloop
  endfacet
  facet normal 7.105427e-015 6.160775e-016 1.000000e+000
    outer loop
      vertex   -8.899994e+001 1.135000e+001 3.569999e+001
      vertex   -8.799994e+001 4.595000e+001 3.569999e+001
      vertex   -8.899994e+001 4.595000e+001 3.569999e+001
    endloop
  endfacet
  facet normal 7.105427e-015 4.107183e-016 1.000000e+000
    outer loop
      vertex   -8.899994e+001 4.595000e+001 3.569999e+001
      vertex   -8.799994e+001 4.595000e+001 3.569999e+001
      vertex   -8.799994e+001 8.055000e+001 3.569999e+001
    endloop
  endfacet
  facet normal 0.000000e+000 6.160775e-016 1.000000e+000
    outer loop
      vertex   -8.899994e+001 8.055000e+001 3.569999e+001
      vertex   -8.899994e+001 4.595000e+001 3.569999e+001
      vertex   -8.799994e+001 8.055000e+001 3.569999e+001
    endloop
  endfacet
  facet normal 5.394442e-003 6.090247e-016 9.999854e-001
    outer loop
      vertex   -1.533000e+002 4.435017e+001 3.569999e+001
      vertex   -1.533000e+002 9.349996e+000 3.569999e+001
      vertex   -1.532999e+002 1.055000e+001 3.569999e+001
    endloop
  endfacet
  facet normal 5.394442e-003 0.000000e+000 9.999854e-001
    outer loop
      vertex   -1.532999e+002 1.055000e+001 3.569999e+001
      vertex   -1.533000e+002 9.349996e+000 3.569999e+001
      vertex   -1.532999e+002 9.349996e+000 3.569999e+001
    endloop
  endfacet
  facet normal 9.865784e-009 5.056228e-008 1.000000e+000
    outer loop
      vertex   -1.201500e+002 1.135000e+001 3.569999e+001
      vertex   -1.098999e+002 9.349996e+000 3.569999e+001
      vertex   -8.899994e+001 1.135000e+001 3.569999e+001
    endloop
  endfacet
  facet normal 7.282451e-009 -3.841480e-008 1.000000e+000
    outer loop
      vertex   -6.769994e+001 9.349996e+000 3.569999e+001
      vertex   -2.549994e+001 9.349996e+000 3.569999e+001
      vertex   -5.714997e+001 1.135000e+001 3.569999e+001
    endloop
  endfacet
  facet normal -9.892259e-008 -1.719110e-006 1.000000e+000
    outer loop
      vertex   -5.714997e+001 1.135000e+001 3.569999e+001
      vertex   -2.549994e+001 9.349996e+000 3.569999e+001
      vertex   -2.630000e+001 1.135000e+001 3.569999e+001
    endloop
  endfacet
  facet normal 4.198548e-006 -0.000000e+000 1.000000e+000
    outer loop
      vertex   -2.630000e+001 1.135000e+001 3.569999e+001
      vertex   -2.549994e+001 9.349996e+000 3.569999e+001
      vertex   -2.549994e+001 1.055000e+001 3.569999e+001
    endloop
  endfacet
  facet normal -2.561117e-007 -4.454977e-006 1.000000e+000
    outer loop
      vertex   -2.430000e+001 1.055000e+001 3.569999e+001
      vertex   -2.630000e+001 1.135000e+001 3.569999e+001
      vertex   -2.549994e+001 1.055000e+001 3.569999e+001
    endloop
  endfacet
  facet normal 1.525879e-006 4.131041e-016 1.000000e+000
    outer loop
      vertex   -2.430000e+001 1.055000e+001 3.569999e+001
      vertex   -2.430000e+001 4.495017e+001 3.569999e+001
      vertex   -2.630000e+001 1.135000e+001 3.569999e+001
    endloop
  endfacet
  facet normal 4.409272e-008 8.820110e-008 1.000000e+000
    outer loop
      vertex   -2.630000e+001 1.135000e+001 3.569999e+001
      vertex   -2.430000e+001 4.495017e+001 3.569999e+001
      vertex   -2.630000e+001 4.595000e+001 3.569999e+001
    endloop
  endfacet
  facet normal 4.466026e-009 8.933658e-009 1.000000e+000
    outer loop
      vertex   -2.630000e+001 4.595000e+001 3.569999e+001
      vertex   -2.430000e+001 4.495017e+001 3.569999e+001
      vertex   -2.430000e+001 7.935035e+001 3.569999e+001
    endloop
  endfacet
  facet normal 0.000000e+000 9.201082e-009 1.000000e+000
    outer loop
      vertex   -2.550000e+001 7.935035e+001 3.569999e+001
      vertex   -2.630000e+001 4.595000e+001 3.569999e+001
      vertex   -2.430000e+001 7.935035e+001 3.569999e+001
    endloop
  endfacet
  facet normal -7.441024e-006 1.874274e-007 1.000000e+000
    outer loop
      vertex   -2.550000e+001 7.935035e+001 3.569999e+001
      vertex   -2.630000e+001 8.055000e+001 3.569998e+001
      vertex   -2.630000e+001 4.595000e+001 3.569999e+001
    endloop
  endfacet
  facet normal -8.106232e-006 -2.561752e-007 1.000000e+000
    outer loop
      vertex   -2.550000e+001 7.935035e+001 3.569999e+001
      vertex   -2.550000e+001 8.055000e+001 3.569999e+001
      vertex   -2.630000e+001 8.055000e+001 3.569998e+001
    endloop
  endfacet
  facet normal 7.441024e-006 1.874274e-007 1.000000e+000
    outer loop
      vertex   -1.513000e+002 4.595000e+001 3.569999e+001
      vertex   -1.513000e+002 8.055000e+001 3.569998e+001
      vertex   -1.521000e+002 7.935035e+001 3.569999e+001
    endloop
  endfacet
  facet normal 7.722082e-006 0.000000e+000 1.000000e+000
    outer loop
      vertex   -1.521000e+002 7.935035e+001 3.569999e+001
      vertex   -1.513000e+002 8.055000e+001 3.569998e+001
      vertex   -1.521000e+002 8.055000e+001 3.569999e+001
    endloop
  endfacet
  facet normal 2.159018e-007 9.748400e-001 -2.229056e-001
    outer loop
      vertex   -2.959999e+001 7.305000e+001 2.899986e+000
      vertex   -2.630000e+001 8.055000e+001 3.569998e+001
      vertex   -2.760000e+001 7.305000e+001 2.899988e+000
    endloop
  endfacet
  facet normal 1.806925e-006 9.748400e-001 -2.229056e-001
    outer loop
      vertex   -2.760000e+001 7.305000e+001 2.899988e+000
      vertex   -2.630000e+001 8.055000e+001 3.569998e+001
      vertex   -2.550000e+001 8.055000e+001 3.569999e+001
    endloop
  endfacet
  facet normal 0.000000e+000 9.748401e-001 -2.229055e-001
    outer loop
      vertex   -2.430000e+001 8.055000e+001 3.569999e+001
      vertex   -2.760000e+001 7.305000e+001 2.899988e+000
      vertex   -2.550000e+001 8.055000e+001 3.569999e+001
    endloop
  endfacet
  facet normal 9.949769e-001 2.873877e-017 1.001047e-001
    outer loop
      vertex   -1.480000e+002 7.305000e+001 2.899986e+000
      vertex   -1.513000e+002 8.055000e+001 3.569998e+001
      vertex   -1.480000e+002 5.805000e+001 2.899986e+000
    endloop
  endfacet
  facet normal 9.949769e-001 2.759166e-008 1.001046e-001
    outer loop
      vertex   -1.480000e+002 5.805000e+001 2.899986e+000
      vertex   -1.513000e+002 8.055000e+001 3.569998e+001
      vertex   -1.513000e+002 4.595000e+001 3.569999e+001
    endloop
  endfacet
  facet normal 9.949769e-001 -1.654647e-016 1.001044e-001
    outer loop
      vertex   -1.480000e+002 1.885000e+001 2.899989e+000
      vertex   -1.513000e+002 4.595000e+001 3.569999e+001
      vertex   -1.513000e+002 1.135000e+001 3.569999e+001
    endloop
  endfacet
  facet normal 9.949769e-001 -2.157689e-007 1.001046e-001
    outer loop
      vertex   -1.480000e+002 1.885000e+001 2.899989e+000
      vertex   -1.480000e+002 5.805000e+001 2.899986e+000
      vertex   -1.513000e+002 4.595000e+001 3.569999e+001
    endloop
  endfacet
  facet normal 2.403711e-008 9.748401e-001 2.229055e-001
    outer loop
      vertex   -8.899994e+001 1.135000e+001 3.569999e+001
      vertex   -8.930000e+001 1.884999e+001 2.899988e+000
      vertex   -1.201500e+002 1.135000e+001 3.569999e+001
    endloop
  endfacet
  facet normal 3.619375e-017 9.748401e-001 2.229054e-001
    outer loop
      vertex   -1.201500e+002 1.135000e+001 3.569999e+001
      vertex   -8.930000e+001 1.884999e+001 2.899988e+000
      vertex   -1.440000e+002 1.884999e+001 2.899988e+000
    endloop
  endfacet
  facet normal 4.715008e-007 9.748401e-001 2.229055e-001
    outer loop
      vertex   -1.513000e+002 1.135000e+001 3.569999e+001
      vertex   -1.440000e+002 1.884999e+001 2.899988e+000
      vertex   -1.480000e+002 1.885000e+001 2.899989e+000
    endloop
  endfacet
  facet normal -5.664103e-015 9.748401e-001 2.229054e-001
    outer loop
      vertex   -1.513000e+002 1.135000e+001 3.569999e+001
      vertex   -1.201500e+002 1.135000e+001 3.569999e+001
      vertex   -1.440000e+002 1.884999e+001 2.899988e+000
    endloop
  endfacet
  facet normal 9.949769e-001 -2.301147e-017 -1.001044e-001
    outer loop
      vertex   -2.760000e+001 7.305000e+001 2.899988e+000
      vertex   -2.430000e+001 4.495017e+001 3.569999e+001
      vertex   -2.760000e+001 1.684999e+001 2.899988e+000
    endloop
  endfacet
  facet normal 9.949769e-001 -8.942984e-010 -1.001044e-001
    outer loop
      vertex   -2.760000e+001 7.305000e+001 2.899988e+000
      vertex   -2.430000e+001 7.935035e+001 3.569999e+001
      vertex   -2.430000e+001 4.495017e+001 3.569999e+001
    endloop
  endfacet
  facet normal 9.949769e-001 2.564426e-008 -1.001044e-001
    outer loop
      vertex   -2.760000e+001 7.305000e+001 2.899988e+000
      vertex   -2.430000e+001 8.055000e+001 3.569999e+001
      vertex   -2.430000e+001 7.935035e+001 3.569999e+001
    endloop
  endfacet
  facet normal 9.949769e-001 -4.135353e-017 -1.001044e-001
    outer loop
      vertex   -2.430000e+001 4.495017e+001 3.569999e+001
      vertex   -2.430000e+001 1.055000e+001 3.569999e+001
      vertex   -2.760000e+001 1.684999e+001 2.899988e+000
    endloop
  endfacet
  facet normal 9.949769e-001 0.000000e+000 -1.001044e-001
    outer loop
      vertex   -2.760000e+001 1.684999e+001 2.899988e+000
      vertex   -2.430000e+001 1.055000e+001 3.569999e+001
      vertex   -2.430000e+001 9.349996e+000 3.569999e+001
    endloop
  endfacet
  facet normal -5.512179e-007 -9.748401e-001 -2.229054e-001
    outer loop
      vertex   -3.360000e+001 1.685000e+001 2.899990e+000
      vertex   -2.960000e+001 1.684999e+001 2.899988e+000
      vertex   -2.549994e+001 9.349996e+000 3.569999e+001
    endloop
  endfacet
  facet normal -1.623299e-009 -9.748401e-001 -2.229055e-001
    outer loop
      vertex   -6.769994e+001 9.349996e+000 3.569999e+001
      vertex   -3.360000e+001 1.685000e+001 2.899990e+000
      vertex   -2.549994e+001 9.349996e+000 3.569999e+001
    endloop
  endfacet
  facet normal 9.627684e-009 -9.748401e-001 -2.229055e-001
    outer loop
      vertex   -6.769994e+001 9.349996e+000 3.569999e+001
      vertex   -8.880000e+001 1.685000e+001 2.899988e+000
      vertex   -3.360000e+001 1.685000e+001 2.899990e+000
    endloop
  endfacet
  facet normal -3.753173e-017 -9.748401e-001 -2.229055e-001
    outer loop
      vertex   -6.769994e+001 9.349996e+000 3.569999e+001
      vertex   -1.098999e+002 9.349996e+000 3.569999e+001
      vertex   -8.880000e+001 1.685000e+001 2.899988e+000
    endloop
  endfacet
  facet normal -9.627684e-009 -9.748401e-001 -2.229055e-001
    outer loop
      vertex   -8.880000e+001 1.685000e+001 2.899988e+000
      vertex   -1.098999e+002 9.349996e+000 3.569999e+001
      vertex   -1.440000e+002 1.685000e+001 2.899990e+000
    endloop
  endfacet
  facet normal 1.623299e-009 -9.748401e-001 -2.229055e-001
    outer loop
      vertex   -1.440000e+002 1.685000e+001 2.899990e+000
      vertex   -1.098999e+002 9.349996e+000 3.569999e+001
      vertex   -1.520999e+002 9.349996e+000 3.569999e+001
    endloop
  endfacet
  facet normal 0.000000e+000 -9.748401e-001 -2.229055e-001
    outer loop
      vertex   -1.480000e+002 1.684999e+001 2.899988e+000
      vertex   -1.520999e+002 9.349996e+000 3.569999e+001
      vertex   -1.500000e+002 1.684999e+001 2.899988e+000
    endloop
  endfacet
  facet normal 5.512179e-007 -9.748401e-001 -2.229054e-001
    outer loop
      vertex   -1.480000e+002 1.684999e+001 2.899988e+000
      vertex   -1.440000e+002 1.685000e+001 2.899990e+000
      vertex   -1.520999e+002 9.349996e+000 3.569999e+001
    endloop
  endfacet
  facet normal 5.708869e-008 -9.748401e-001 -2.229055e-001
    outer loop
      vertex   -2.430000e+001 9.349996e+000 3.569999e+001
      vertex   -2.549994e+001 9.349996e+000 3.569999e+001
      vertex   -2.760000e+001 1.684999e+001 2.899988e+000
    endloop
  endfacet
  facet normal 0.000000e+000 -9.748401e-001 -2.229055e-001
    outer loop
      vertex   -2.760000e+001 1.684999e+001 2.899988e+000
      vertex   -2.549994e+001 9.349996e+000 3.569999e+001
      vertex   -2.960000e+001 1.684999e+001 2.899988e+000
    endloop
  endfacet
  facet normal -0.000000e+000 -9.748401e-001 -2.229055e-001
    outer loop
      vertex   -1.520999e+002 9.349996e+000 3.569999e+001
      vertex   -1.532999e+002 9.349996e+000 3.569999e+001
      vertex   -1.500000e+002 1.684999e+001 2.899988e+000
    endloop
  endfacet
  facet normal -1.203088e-003 -9.748131e-001 -2.230203e-001
    outer loop
      vertex   -1.500000e+002 1.684999e+001 2.899988e+000
      vertex   -1.532999e+002 9.349996e+000 3.569999e+001
      vertex   -1.533000e+002 9.349996e+000 3.569999e+001
    endloop
  endfacet
  facet normal -9.949769e-001 -2.301147e-017 -1.001044e-001
    outer loop
      vertex   -1.500000e+002 1.684999e+001 2.899988e+000
      vertex   -1.533000e+002 4.435017e+001 3.569999e+001
      vertex   -1.500000e+002 7.305000e+001 2.899988e+000
    endloop
  endfacet
  facet normal -9.949769e-001 -6.096693e-017 -1.001044e-001
    outer loop
      vertex   -1.500000e+002 1.684999e+001 2.899988e+000
      vertex   -1.533000e+002 9.349996e+000 3.569999e+001
      vertex   -1.533000e+002 4.435017e+001 3.569999e+001
    endloop
  endfacet
  facet normal -9.949769e-001 -8.789684e-010 -1.001044e-001
    outer loop
      vertex   -1.533000e+002 4.435017e+001 3.569999e+001
      vertex   -1.533000e+002 7.935035e+001 3.569999e+001
      vertex   -1.500000e+002 7.305000e+001 2.899988e+000
    endloop
  endfacet
  facet normal -9.949769e-001 2.564428e-008 -1.001044e-001
    outer loop
      vertex   -1.500000e+002 7.305000e+001 2.899988e+000
      vertex   -1.533000e+002 7.935035e+001 3.569999e+001
      vertex   -1.533000e+002 8.055000e+001 3.569999e+001
    endloop
  endfacet
  facet normal 5.960464e-007 0.000000e+000 1.000000e+000
    outer loop
      vertex   -3.360000e+001 1.685000e+001 2.899990e+000
      vertex   -3.360000e+001 1.485000e+001 2.899990e+000
      vertex   -2.960000e+001 1.684999e+001 2.899988e+000
    endloop
  endfacet
  facet normal 5.960464e-007 0.000000e+000 1.000000e+000
    outer loop
      vertex   -2.960000e+001 1.684999e+001 2.899988e+000
      vertex   -3.360000e+001 1.485000e+001 2.899990e+000
      vertex   -2.960000e+001 1.484999e+001 2.899988e+000
    endloop
  endfacet
  facet normal -5.960464e-007 0.000000e+000 1.000000e+000
    outer loop
      vertex   -1.440000e+002 1.685000e+001 2.899990e+000
      vertex   -1.480000e+002 1.684999e+001 2.899988e+000
      vertex   -1.440000e+002 1.485000e+001 2.899990e+000
    endloop
  endfacet
  facet normal -5.960464e-007 0.000000e+000 1.000000e+000
    outer loop
      vertex   -1.440000e+002 1.485000e+001 2.899990e+000
      vertex   -1.480000e+002 1.684999e+001 2.899988e+000
      vertex   -1.480000e+002 1.484999e+001 2.899988e+000
    endloop
  endfacet
  facet normal 0.000000e+000 1.000000e+000 -0.000000e+000
    outer loop
      vertex   -8.930000e+001 1.884999e+001 -1.228118e-005
      vertex   -1.440000e+002 1.884999e+001 -1.228118e-005
      vertex   -8.930000e+001 1.884999e+001 2.899988e+000
    endloop
  endfacet
  facet normal 0.000000e+000 1.000000e+000 -0.000000e+000
    outer loop
      vertex   -8.930000e+001 1.884999e+001 2.899988e+000
      vertex   -1.440000e+002 1.884999e+001 -1.228118e-005
      vertex   -1.440000e+002 1.884999e+001 2.899988e+000
    endloop
  endfacet
  facet normal -1.000000e+000 0.000000e+000 0.000000e+000
    outer loop
      vertex   -8.930000e+001 7.104999e+001 -1.228118e-005
      vertex   -8.930000e+001 1.884999e+001 -1.228118e-005
      vertex   -8.930000e+001 7.104999e+001 2.899988e+000
    endloop
  endfacet
  facet normal -1.000000e+000 -0.000000e+000 0.000000e+000
    outer loop
      vertex   -8.930000e+001 7.104999e+001 2.899988e+000
      vertex   -8.930000e+001 1.884999e+001 -1.228118e-005
      vertex   -8.930000e+001 1.884999e+001 2.899988e+000
    endloop
  endfacet
  facet normal 0.000000e+000 -1.000000e+000 0.000000e+000
    outer loop
      vertex   -1.440000e+002 7.104999e+001 -1.228118e-005
      vertex   -8.930000e+001 7.104999e+001 -1.228118e-005
      vertex   -1.440000e+002 7.104999e+001 2.899988e+000
    endloop
  endfacet
  facet normal 0.000000e+000 -1.000000e+000 0.000000e+000
    outer loop
      vertex   -1.440000e+002 7.104999e+001 2.899988e+000
      vertex   -8.930000e+001 7.104999e+001 -1.228118e-005
      vertex   -8.930000e+001 7.104999e+001 2.899988e+000
    endloop
  endfacet
  facet normal 1.000000e+000 -0.000000e+000 -0.000000e+000
    outer loop
      vertex   -1.440000e+002 1.884999e+001 -1.228118e-005
      vertex   -1.440000e+002 7.104999e+001 -1.228118e-005
      vertex   -1.440000e+002 1.884999e+001 2.899988e+000
    endloop
  endfacet
  facet normal 1.000000e+000 -0.000000e+000 0.000000e+000
    outer loop
      vertex   -1.440000e+002 1.884999e+001 2.899988e+000
      vertex   -1.440000e+002 7.104999e+001 -1.228118e-005
      vertex   -1.440000e+002 7.104999e+001 2.899988e+000
    endloop
  endfacet
  facet normal 0.000000e+000 1.000000e+000 -0.000000e+000
    outer loop
      vertex   -3.360000e+001 1.884999e+001 -1.228118e-005
      vertex   -8.830000e+001 1.884999e+001 -1.228118e-005
      vertex   -3.360000e+001 1.884999e+001 2.899988e+000
    endloop
  endfacet
  facet normal 0.000000e+000 1.000000e+000 -0.000000e+000
    outer loop
      vertex   -3.360000e+001 1.884999e+001 2.899988e+000
      vertex   -8.830000e+001 1.884999e+001 -1.228118e-005
      vertex   -8.830000e+001 1.884999e+001 2.899988e+000
    endloop
  endfacet
  facet normal -1.000000e+000 0.000000e+000 0.000000e+000
    outer loop
      vertex   -3.360000e+001 7.104999e+001 -1.228118e-005
      vertex   -3.360000e+001 1.884999e+001 -1.228118e-005
      vertex   -3.360000e+001 7.104999e+001 2.899988e+000
    endloop
  endfacet
  facet normal -1.000000e+000 -0.000000e+000 0.000000e+000
    outer loop
      vertex   -3.360000e+001 7.104999e+001 2.899988e+000
      vertex   -3.360000e+001 1.884999e+001 -1.228118e-005
      vertex   -3.360000e+001 1.884999e+001 2.899988e+000
    endloop
  endfacet
  facet normal 0.000000e+000 -1.000000e+000 0.000000e+000
    outer loop
      vertex   -8.830000e+001 7.104999e+001 -1.228118e-005
      vertex   -3.360000e+001 7.104999e+001 -1.228118e-005
      vertex   -8.830000e+001 7.104999e+001 2.899988e+000
    endloop
  endfacet
  facet normal 0.000000e+000 -1.000000e+000 0.000000e+000
    outer loop
      vertex   -8.830000e+001 7.104999e+001 2.899988e+000
      vertex   -3.360000e+001 7.104999e+001 -1.228118e-005
      vertex   -3.360000e+001 7.104999e+001 2.899988e+000
    endloop
  endfacet
  facet normal 1.000000e+000 -0.000000e+000 -0.000000e+000
    outer loop
      vertex   -8.830000e+001 1.884999e+001 -1.228118e-005
      vertex   -8.830000e+001 7.104999e+001 -1.228118e-005
      vertex   -8.830000e+001 1.884999e+001 2.899988e+000
    endloop
  endfacet
  facet normal 1.000000e+000 -0.000000e+000 0.000000e+000
    outer loop
      vertex   -8.830000e+001 1.884999e+001 2.899988e+000
      vertex   -8.830000e+001 7.104999e+001 -1.228118e-005
      vertex   -8.830000e+001 7.104999e+001 2.899988e+000
    endloop
  endfacet
  facet normal 0.000000e+000 -1.000000e+000 0.000000e+000
    outer loop
      vertex   -1.440000e+002 1.685000e+001 2.899990e+000
      vertex   -1.440000e+002 1.685000e+001 -1.228118e-005
      vertex   -8.880000e+001 1.685000e+001 2.899988e+000
    endloop
  endfacet
  facet normal 0.000000e+000 -1.000000e+000 -0.000000e+000
    outer loop
      vertex   -8.880000e+001 1.685000e+001 2.899988e+000
      vertex   -1.440000e+002 1.685000e+001 -1.228118e-005
      vertex   -8.880000e+001 1.685000e+001 -1.228118e-005
    endloop
  endfacet
  facet normal -0.000000e+000 -1.000000e+000 0.000000e+000
    outer loop
      vertex   -3.360000e+001 1.685000e+001 -1.228118e-005
      vertex   -8.880000e+001 1.685000e+001 2.899988e+000
      vertex   -8.880000e+001 1.685000e+001 -1.228118e-005
    endloop
  endfacet
  facet normal -0.000000e+000 -1.000000e+000 0.000000e+000
    outer loop
      vertex   -3.360000e+001 1.685000e+001 -1.228118e-005
      vertex   -3.360000e+001 1.685000e+001 2.899990e+000
      vertex   -8.880000e+001 1.685000e+001 2.899988e+000
    endloop
  endfacet
  facet normal 1.000000e+000 0.000000e+000 -0.000000e+000
    outer loop
      vertex   -1.440000e+002 1.485000e+001 -1.228118e-005
      vertex   -1.440000e+002 1.685000e+001 -1.228118e-005
      vertex   -1.440000e+002 1.485000e+001 2.899990e+000
    endloop
  endfacet
  facet normal 1.000000e+000 -0.000000e+000 0.000000e+000
    outer loop
      vertex   -1.440000e+002 1.485000e+001 2.899990e+000
      vertex   -1.440000e+002 1.685000e+001 -1.228118e-005
      vertex   -1.440000e+002 1.685000e+001 2.899990e+000
    endloop
  endfacet
  facet normal -1.000000e+000 0.000000e+000 0.000000e+000
    outer loop
      vertex   -3.360000e+001 1.685000e+001 -1.228118e-005
      vertex   -3.360000e+001 1.485000e+001 -1.228118e-005
      vertex   -3.360000e+001 1.685000e+001 2.899990e+000
    endloop
  endfacet
  facet normal -1.000000e+000 -0.000000e+000 0.000000e+000
    outer loop
      vertex   -3.360000e+001 1.685000e+001 2.899990e+000
      vertex   -3.360000e+001 1.485000e+001 -1.228118e-005
      vertex   -3.360000e+001 1.485000e+001 2.899990e+000
    endloop
  endfacet
  facet normal 0.000000e+000 0.000000e+000 -1.000000e+000
    outer loop
      vertex   -1.440000e+002 7.104999e+001 -1.228118e-005
      vertex   -1.078333e+002 7.305000e+001 -1.228118e-005
      vertex   -8.930000e+001 7.104999e+001 -1.228118e-005
    endloop
  endfacet
  facet normal 5.088838e-008 -9.202310e-007 -1.000000e+000
    outer loop
      vertex   -1.440000e+002 7.104999e+001 -1.228118e-005
      vertex   -1.459000e+002 7.305000e+001 -1.421833e-005
      vertex   -1.078333e+002 7.305000e+001 -1.228118e-005
    endloop
  endfacet
  facet normal 1.019558e-006 -2.960595e-016 -1.000000e+000
    outer loop
      vertex   -1.440000e+002 7.104999e+001 -1.228118e-005
      vertex   -1.459000e+002 5.805000e+001 -1.421833e-005
      vertex   -1.459000e+002 7.305000e+001 -1.421833e-005
    endloop
  endfacet
  facet normal 1.019558e-006 -2.552237e-016 -1.000000e+000
    outer loop
      vertex   -1.440000e+002 7.104999e+001 -1.228118e-005
      vertex   -1.440000e+002 1.884999e+001 -1.228118e-005
      vertex   -1.459000e+002 5.805000e+001 -1.421833e-005
    endloop
  endfacet
  facet normal 0.000000e+000 -4.941711e-008 -1.000000e+000
    outer loop
      vertex   -1.459000e+002 5.805000e+001 -1.421833e-005
      vertex   -1.440000e+002 1.884999e+001 -1.228118e-005
      vertex   -1.480000e+002 5.805000e+001 -1.421833e-005
    endloop
  endfacet
  facet normal 1.593052e-008 -4.779155e-008 -1.000000e+000
    outer loop
      vertex   -1.480000e+002 5.805000e+001 -1.421833e-005
      vertex   -1.440000e+002 1.884999e+001 -1.228118e-005
      vertex   -1.500000e+002 1.684999e+001 -1.228118e-005
    endloop
  endfacet
  facet normal -9.685712e-007 -2.370583e-016 -1.000000e+000
    outer loop
      vertex   -1.500000e+002 7.305000e+001 -1.228118e-005
      vertex   -1.480000e+002 5.805000e+001 -1.421833e-005
      vertex   -1.500000e+002 1.684999e+001 -1.228118e-005
    endloop
  endfacet
  facet normal -9.685712e-007 -2.960595e-016 -1.000000e+000
    outer loop
      vertex   -1.500000e+002 7.305000e+001 -1.228118e-005
      vertex   -1.480000e+002 7.305000e+001 -1.421833e-005
      vertex   -1.480000e+002 5.805000e+001 -1.421833e-005
    endloop
  endfacet
  facet normal -0.000000e+000 0.000000e+000 -1.000000e+000
    outer loop
      vertex   -8.930000e+001 1.884999e+001 -1.228118e-005
      vertex   -1.440000e+002 1.685000e+001 -1.228118e-005
      vertex   -1.440000e+002 1.884999e+001 -1.228118e-005
    endloop
  endfacet
  facet normal -0.000000e+000 -0.000000e+000 -1.000000e+000
    outer loop
      vertex   -8.930000e+001 1.884999e+001 -1.228118e-005
      vertex   -8.880000e+001 1.685000e+001 -1.228118e-005
      vertex   -1.440000e+002 1.685000e+001 -1.228118e-005
    endloop
  endfacet
  facet normal 0.000000e+000 -0.000000e+000 -1.000000e+000
    outer loop
      vertex   -8.930000e+001 1.884999e+001 -1.228118e-005
      vertex   -8.830000e+001 1.884999e+001 -1.228118e-005
      vertex   -8.880000e+001 1.685000e+001 -1.228118e-005
    endloop
  endfacet
  facet normal 0.000000e+000 -2.552237e-016 -1.000000e+000
    outer loop
      vertex   -8.930000e+001 1.884999e+001 -1.228118e-005
      vertex   -8.830000e+001 7.104999e+001 -1.228118e-005
      vertex   -8.830000e+001 1.884999e+001 -1.228118e-005
    endloop
  endfacet
  facet normal 0.000000e+000 -2.552237e-016 -1.000000e+000
    outer loop
      vertex   -8.930000e+001 1.884999e+001 -1.228118e-005
      vertex   -8.930000e+001 7.104999e+001 -1.228118e-005
      vertex   -8.830000e+001 7.104999e+001 -1.228118e-005
    endloop
  endfacet
  facet normal 0.000000e+000 0.000000e+000 -1.000000e+000
    outer loop
      vertex   -8.830000e+001 7.104999e+001 -1.228118e-005
      vertex   -8.930000e+001 7.104999e+001 -1.228118e-005
      vertex   -1.078333e+002 7.305000e+001 -1.228118e-005
    endloop
  endfacet
  facet normal -0.000000e+000 0.000000e+000 -1.000000e+000
    outer loop
      vertex   -6.976666e+001 7.305000e+001 -1.228118e-005
      vertex   -8.830000e+001 7.104999e+001 -1.228118e-005
      vertex   -1.078333e+002 7.305000e+001 -1.228118e-005
    endloop
  endfacet
  facet normal -0.000000e+000 -0.000000e+000 -1.000000e+000
    outer loop
      vertex   -6.976666e+001 7.305000e+001 -1.228118e-005
      vertex   -3.360000e+001 7.104999e+001 -1.228118e-005
      vertex   -8.830000e+001 7.104999e+001 -1.228118e-005
    endloop
  endfacet
  facet normal -5.088838e-008 -9.202305e-007 -1.000000e+000
    outer loop
      vertex   -6.976666e+001 7.305000e+001 -1.228118e-005
      vertex   -3.169999e+001 7.305000e+001 -1.421833e-005
      vertex   -3.360000e+001 7.104999e+001 -1.228118e-005
    endloop
  endfacet
  facet normal -1.019548e-006 -2.960595e-016 -1.000000e+000
    outer loop
      vertex   -3.360000e+001 7.104999e+001 -1.228118e-005
      vertex   -3.169999e+001 7.305000e+001 -1.421833e-005
      vertex   -3.169999e+001 5.805000e+001 -1.421833e-005
    endloop
  endfacet
  facet normal 0.000000e+000 -4.941711e-008 -1.000000e+000
    outer loop
      vertex   -3.360000e+001 1.884999e+001 -1.228118e-005
      vertex   -3.169999e+001 5.805000e+001 -1.421833e-005
      vertex   -2.959999e+001 5.805000e+001 -1.421833e-005
    endloop
  endfacet
  facet normal 9.685797e-007 -2.370583e-016 -1.000000e+000
    outer loop
      vertex   -2.760000e+001 1.684999e+001 -1.228118e-005
      vertex   -2.959999e+001 5.805000e+001 -1.421833e-005
      vertex   -2.760000e+001 7.305000e+001 -1.228118e-005
    endloop
  endfacet
  facet normal -1.593052e-008 -4.779155e-008 -1.000000e+000
    outer loop
      vertex   -2.760000e+001 1.684999e+001 -1.228118e-005
      vertex   -3.360000e+001 1.884999e+001 -1.228118e-005
      vertex   -2.959999e+001 5.805000e+001 -1.421833e-005
    endloop
  endfacet
  facet normal 0.000000e+000 0.000000e+000 -1.000000e+000
    outer loop
      vertex   -2.760000e+001 1.684999e+001 -1.228118e-005
      vertex   -2.960000e+001 1.684999e+001 -1.228118e-005
      vertex   -3.360000e+001 1.884999e+001 -1.228118e-005
    endloop
  endfacet
  facet normal -0.000000e+000 -0.000000e+000 -1.000000e+000
    outer loop
      vertex   -3.360000e+001 1.884999e+001 -1.228118e-005
      vertex   -2.960000e+001 1.684999e+001 -1.228118e-005
      vertex   -3.360000e+001 1.685000e+001 -1.228118e-005
    endloop
  endfacet
  facet normal -0.000000e+000 -0.000000e+000 -1.000000e+000
    outer loop
      vertex   -8.830000e+001 1.884999e+001 -1.228118e-005
      vertex   -3.360000e+001 1.685000e+001 -1.228118e-005
      vertex   -8.880000e+001 1.685000e+001 -1.228118e-005
    endloop
  endfacet
  facet normal 0.000000e+000 -0.000000e+000 -1.000000e+000
    outer loop
      vertex   -8.830000e+001 1.884999e+001 -1.228118e-005
      vertex   -3.360000e+001 1.884999e+001 -1.228118e-005
      vertex   -3.360000e+001 1.685000e+001 -1.228118e-005
    endloop
  endfacet
  facet normal -1.019548e-006 -2.552237e-016 -1.000000e+000
    outer loop
      vertex   -3.360000e+001 1.884999e+001 -1.228118e-005
      vertex   -3.360000e+001 7.104999e+001 -1.228118e-005
      vertex   -3.169999e+001 5.805000e+001 -1.421833e-005
    endloop
  endfacet
  facet normal 0.000000e+000 0.000000e+000 -1.000000e+000
    outer loop
      vertex   -2.960000e+001 1.484999e+001 -1.228118e-005
      vertex   -3.360000e+001 1.485000e+001 -1.228118e-005
      vertex   -2.960000e+001 1.684999e+001 -1.228118e-005
    endloop
  endfacet
  facet normal -0.000000e+000 0.000000e+000 -1.000000e+000
    outer loop
      vertex   -2.960000e+001 1.684999e+001 -1.228118e-005
      vertex   -3.360000e+001 1.485000e+001 -1.228118e-005
      vertex   -3.360000e+001 1.685000e+001 -1.228118e-005
    endloop
  endfacet
  facet normal 0.000000e+000 -0.000000e+000 -1.000000e+000
    outer loop
      vertex   -1.440000e+002 1.884999e+001 -1.228118e-005
      vertex   -1.440000e+002 1.685000e+001 -1.228118e-005
      vertex   -1.480000e+002 1.684999e+001 -1.228118e-005
    endloop
  endfacet
  facet normal 0.000000e+000 -0.000000e+000 -1.000000e+000
    outer loop
      vertex   -1.500000e+002 1.684999e+001 -1.228118e-005
      vertex   -1.440000e+002 1.884999e+001 -1.228118e-005
      vertex   -1.480000e+002 1.684999e+001 -1.228118e-005
    endloop
  endfacet
  facet normal 0.000000e+000 0.000000e+000 -1.000000e+000
    outer loop
      vertex   -1.480000e+002 1.484999e+001 -1.228118e-005
      vertex   -1.480000e+002 1.684999e+001 -1.228118e-005
      vertex   -1.440000e+002 1.485000e+001 -1.228118e-005
    endloop
  endfacet
  facet normal 0.000000e+000 0.000000e+000 -1.000000e+000
    outer loop
      vertex   -1.440000e+002 1.485000e+001 -1.228118e-005
      vertex   -1.480000e+002 1.684999e+001 -1.228118e-005
      vertex   -1.440000e+002 1.685000e+001 -1.228118e-005
    endloop
  endfacet
  facet normal 9.685797e-007 -2.960595e-016 -1.000000e+000
    outer loop
      vertex   -2.959999e+001 5.805000e+001 -1.421833e-005
      vertex   -2.959999e+001 7.305000e+001 -1.421833e-005
      vertex   -2.760000e+001 7.305000e+001 -1.228118e-005
    endloop
  endfacet
  facet normal 4.291534e-007 -1.000000e+000 0.000000e+000
    outer loop
      vertex   -1.440000e+002 1.485000e+001 2.899990e+000
      vertex   -1.480000e+002 1.484999e+001 2.899988e+000
      vertex   -1.440000e+002 1.485000e+001 -1.228118e-005
    endloop
  endfacet
  facet normal 4.291534e-007 -1.000000e+000 0.000000e+000
    outer loop
      vertex   -1.440000e+002 1.485000e+001 -1.228118e-005
      vertex   -1.480000e+002 1.484999e+001 2.899988e+000
      vertex   -1.480000e+002 1.484999e+001 -1.228118e-005
    endloop
  endfacet
  facet normal -1.000000e+000 0.000000e+000 0.000000e+000
    outer loop
      vertex   -1.480000e+002 1.484999e+001 -1.228118e-005
      vertex   -1.480000e+002 1.484999e+001 2.899988e+000
      vertex   -1.480000e+002 1.684999e+001 -1.228118e-005
    endloop
  endfacet
  facet normal -1.000000e+000 0.000000e+000 0.000000e+000
    outer loop
      vertex   -1.480000e+002 1.684999e+001 -1.228118e-005
      vertex   -1.480000e+002 1.484999e+001 2.899988e+000
      vertex   -1.480000e+002 1.684999e+001 2.899988e+000
    endloop
  endfacet
  facet normal -0.000000e+000 -1.000000e+000 -0.000000e+000
    outer loop
      vertex   -1.480000e+002 1.684999e+001 2.899988e+000
      vertex   -1.500000e+002 1.684999e+001 2.899988e+000
      vertex   -1.480000e+002 1.684999e+001 -1.228118e-005
    endloop
  endfacet
  facet normal -0.000000e+000 -1.000000e+000 -0.000000e+000
    outer loop
      vertex   -1.480000e+002 1.684999e+001 -1.228118e-005
      vertex   -1.500000e+002 1.684999e+001 2.899988e+000
      vertex   -1.500000e+002 1.684999e+001 -1.228118e-005
    endloop
  endfacet
  facet normal 1.000000e+000 -0.000000e+000 0.000000e+000
    outer loop
      vertex   -2.960000e+001 1.484999e+001 2.899988e+000
      vertex   -2.960000e+001 1.484999e+001 -1.228118e-005
      vertex   -2.960000e+001 1.684999e+001 2.899988e+000
    endloop
  endfacet
  facet normal 1.000000e+000 -0.000000e+000 0.000000e+000
    outer loop
      vertex   -2.960000e+001 1.684999e+001 2.899988e+000
      vertex   -2.960000e+001 1.484999e+001 -1.228118e-005
      vertex   -2.960000e+001 1.684999e+001 -1.228118e-005
    endloop
  endfacet
  facet normal -0.000000e+000 -1.000000e+000 -0.000000e+000
    outer loop
      vertex   -2.760000e+001 1.684999e+001 2.899988e+000
      vertex   -2.960000e+001 1.684999e+001 2.899988e+000
      vertex   -2.760000e+001 1.684999e+001 -1.228118e-005
    endloop
  endfacet
  facet normal -0.000000e+000 -1.000000e+000 -0.000000e+000
    outer loop
      vertex   -2.760000e+001 1.684999e+001 -1.228118e-005
      vertex   -2.960000e+001 1.684999e+001 2.899988e+000
      vertex   -2.960000e+001 1.684999e+001 -1.228118e-005
    endloop
  endfacet
  facet normal -4.291534e-007 -1.000000e+000 -0.000000e+000
    outer loop
      vertex   -3.360000e+001 1.485000e+001 2.899990e+000
      vertex   -3.360000e+001 1.485000e+001 -1.228118e-005
      vertex   -2.960000e+001 1.484999e+001 2.899988e+000
    endloop
  endfacet
  facet normal -4.291534e-007 -1.000000e+000 0.000000e+000
    outer loop
      vertex   -2.960000e+001 1.484999e+001 2.899988e+000
      vertex   -3.360000e+001 1.485000e+001 -1.228118e-005
      vertex   -2.960000e+001 1.484999e+001 -1.228118e-005
    endloop
  endfacet
  facet normal -1.000000e+000 -0.000000e+000 -0.000000e+000
    outer loop
      vertex   -2.959999e+001 7.305000e+001 2.899986e+000
      vertex   -2.959999e+001 7.305000e+001 -1.421833e-005
      vertex   -2.959999e+001 5.805000e+001 2.899986e+000
    endloop
  endfacet
  facet normal -1.000000e+000 -0.000000e+000 -0.000000e+000
    outer loop
      vertex   -2.959999e+001 5.805000e+001 2.899986e+000
      vertex   -2.959999e+001 7.305000e+001 -1.421833e-005
      vertex   -2.959999e+001 5.805000e+001 -1.421833e-005
    endloop
  endfacet
  facet normal 1.000000e+000 0.000000e+000 -0.000000e+000
    outer loop
      vertex   -3.169999e+001 7.305000e+001 -1.421833e-005
      vertex   -3.169999e+001 7.305000e+001 2.899986e+000
      vertex   -3.169999e+001 5.805000e+001 -1.421833e-005
    endloop
  endfacet
  facet normal 1.000000e+000 0.000000e+000 -0.000000e+000
    outer loop
      vertex   -3.169999e+001 5.805000e+001 -1.421833e-005
      vertex   -3.169999e+001 7.305000e+001 2.899986e+000
      vertex   -3.169999e+001 5.805000e+001 2.899986e+000
    endloop
  endfacet
  facet normal -0.000000e+000 1.000000e+000 0.000000e+000
    outer loop
      vertex   -3.169999e+001 5.805000e+001 2.899986e+000
      vertex   -2.959999e+001 5.805000e+001 2.899986e+000
      vertex   -3.169999e+001 5.805000e+001 -1.421833e-005
    endloop
  endfacet
  facet normal -0.000000e+000 1.000000e+000 0.000000e+000
    outer loop
      vertex   -3.169999e+001 5.805000e+001 -1.421833e-005
      vertex   -2.959999e+001 5.805000e+001 2.899986e+000
      vertex   -2.959999e+001 5.805000e+001 -1.421833e-005
    endloop
  endfacet
  facet normal 7.105459e-015 1.000000e+000 -0.000000e+000
    outer loop
      vertex   -2.959999e+001 7.305000e+001 -1.421833e-005
      vertex   -2.959999e+001 7.305000e+001 2.899986e+000
      vertex   -2.760000e+001 7.305000e+001 -1.228118e-005
    endloop
  endfacet
  facet normal 4.746326e-021 1.000000e+000 -4.900295e-015
    outer loop
      vertex   -2.760000e+001 7.305000e+001 -1.228118e-005
      vertex   -2.959999e+001 7.305000e+001 2.899986e+000
      vertex   -2.760000e+001 7.305000e+001 2.899988e+000
    endloop
  endfacet
  facet normal -1.000000e+000 -0.000000e+000 -0.000000e+000
    outer loop
      vertex   -1.459000e+002 7.305000e+001 2.899986e+000
      vertex   -1.459000e+002 7.305000e+001 -1.421833e-005
      vertex   -1.459000e+002 5.805000e+001 2.899986e+000
    endloop
  endfacet
  facet normal -1.000000e+000 -0.000000e+000 -0.000000e+000
    outer loop
      vertex   -1.459000e+002 5.805000e+001 2.899986e+000
      vertex   -1.459000e+002 7.305000e+001 -1.421833e-005
      vertex   -1.459000e+002 5.805000e+001 -1.421833e-005
    endloop
  endfacet
  facet normal 1.000000e+000 0.000000e+000 -0.000000e+000
    outer loop
      vertex   -1.480000e+002 7.305000e+001 -1.421833e-005
      vertex   -1.480000e+002 7.305000e+001 2.899986e+000
      vertex   -1.480000e+002 5.805000e+001 -1.421833e-005
    endloop
  endfacet
  facet normal 1.000000e+000 0.000000e+000 -0.000000e+000
    outer loop
      vertex   -1.480000e+002 5.805000e+001 -1.421833e-005
      vertex   -1.480000e+002 7.305000e+001 2.899986e+000
      vertex   -1.480000e+002 5.805000e+001 2.899986e+000
    endloop
  endfacet
  facet normal -0.000000e+000 1.000000e+000 0.000000e+000
    outer loop
      vertex   -1.480000e+002 5.805000e+001 2.899986e+000
      vertex   -1.459000e+002 5.805000e+001 2.899986e+000
      vertex   -1.480000e+002 5.805000e+001 -1.421833e-005
    endloop
  endfacet
  facet normal -0.000000e+000 1.000000e+000 0.000000e+000
    outer loop
      vertex   -1.480000e+002 5.805000e+001 -1.421833e-005
      vertex   -1.459000e+002 5.805000e+001 2.899986e+000
      vertex   -1.459000e+002 5.805000e+001 -1.421833e-005
    endloop
  endfacet
  facet normal -3.733149e-016 1.000000e+000 0.000000e+000
    outer loop
      vertex   -3.169999e+001 7.305000e+001 -1.421833e-005
      vertex   -6.976666e+001 7.305000e+001 -1.228118e-005
      vertex   -3.169999e+001 7.305000e+001 2.899986e+000
    endloop
  endfacet
  facet normal -2.493681e-022 1.000000e+000 -4.900295e-015
    outer loop
      vertex   -3.169999e+001 7.305000e+001 2.899986e+000
      vertex   -6.976666e+001 7.305000e+001 -1.228118e-005
      vertex   -6.976666e+001 7.305000e+001 2.899988e+000
    endloop
  endfacet
  facet normal 3.733149e-016 1.000000e+000 -4.900295e-015
    outer loop
      vertex   -6.976666e+001 7.305000e+001 2.899988e+000
      vertex   -6.976666e+001 7.305000e+001 -1.228118e-005
      vertex   -1.078333e+002 7.305000e+001 -1.228118e-005
    endloop
  endfacet
  facet normal 0.000000e+000 1.000000e+000 0.000000e+000
    outer loop
      vertex   -1.078333e+002 7.305000e+001 2.899988e+000
      vertex   -1.078333e+002 7.305000e+001 -1.228118e-005
      vertex   -1.459000e+002 7.305000e+001 2.899986e+000
    endloop
  endfacet
  facet normal -0.000000e+000 1.000000e+000 0.000000e+000
    outer loop
      vertex   -1.078333e+002 7.305000e+001 2.899988e+000
      vertex   -6.976666e+001 7.305000e+001 2.899988e+000
      vertex   -1.078333e+002 7.305000e+001 -1.228118e-005
    endloop
  endfacet
  facet normal 0.000000e+000 1.000000e+000 -0.000000e+000
    outer loop
      vertex   -1.078333e+002 7.305000e+001 -1.228118e-005
      vertex   -1.459000e+002 7.305000e+001 -1.421833e-005
      vertex   -1.459000e+002 7.305000e+001 2.899986e+000
    endloop
  endfacet
  facet normal 0.000000e+000 1.000000e+000 -0.000000e+000
    outer loop
      vertex   -1.480000e+002 7.305000e+001 -1.421833e-005
      vertex   -1.500000e+002 7.305000e+001 -1.228118e-005
      vertex   -1.480000e+002 7.305000e+001 2.899986e+000
    endloop
  endfacet
  facet normal 0.000000e+000 1.000000e+000 -0.000000e+000
    outer loop
      vertex   -1.480000e+002 7.305000e+001 2.899986e+000
      vertex   -1.500000e+002 7.305000e+001 -1.228118e-005
      vertex   -1.500000e+002 7.305000e+001 2.899988e+000
    endloop
  endfacet
  facet normal 1.000000e+000 -0.000000e+000 0.000000e+000
    outer loop
      vertex   -2.760000e+001 1.684999e+001 2.899988e+000
      vertex   -2.760000e+001 1.684999e+001 -1.228118e-005
      vertex   -2.760000e+001 7.305000e+001 2.899988e+000
    endloop
  endfacet
  facet normal 1.000000e+000 0.000000e+000 0.000000e+000
    outer loop
      vertex   -2.760000e+001 7.305000e+001 2.899988e+000
      vertex   -2.760000e+001 1.684999e+001 -1.228118e-005
      vertex   -2.760000e+001 7.305000e+001 -1.228118e-005
    endloop
  endfacet
  facet normal -1.000000e+000 0.000000e+000 0.000000e+000
    outer loop
      vertex   -1.500000e+002 1.684999e+001 -1.228118e-005
      vertex   -1.500000e+002 1.684999e+001 2.899988e+000
      vertex   -1.500000e+002 7.305000e+001 -1.228118e-005
    endloop
  endfacet
  facet normal -1.000000e+000 0.000000e+000 0.000000e+000
    outer loop
      vertex   -1.500000e+002 7.305000e+001 -1.228118e-005
      vertex   -1.500000e+002 1.684999e+001 2.899988e+000
      vertex   -1.500000e+002 7.305000e+001 2.899988e+000
    endloop
  endfacet
endsolid
