solid ascii
  facet normal -4.472135e-001 -8.944273e-001 0.000000e+000
    outer loop
      vertex   -1.590000e+002 4.316228e+001 3.000000e+000
      vertex   -1.590000e+002 4.316228e+001 3.560000e+001
      vertex   -1.602649e+002 4.379473e+001 3.000000e+000
    endloop
  endfacet
  facet normal -4.472135e-001 -8.944273e-001 0.000000e+000
    outer loop
      vertex   -1.602649e+002 4.379473e+001 3.000000e+000
      vertex   -1.590000e+002 4.316228e+001 3.560000e+001
      vertex   -1.602649e+002 4.379473e+001 3.560000e+001
    endloop
  endfacet
  facet normal -4.472135e-001 -8.944273e-001 0.000000e+000
    outer loop
      vertex   -1.602649e+002 4.379473e+001 3.560000e+001
      vertex   -1.590000e+002 4.316228e+001 3.560000e+001
      vertex   -1.590000e+002 4.316228e+001 6.820000e+001
    endloop
  endfacet
  facet normal -4.472135e-001 -8.944273e-001 -0.000000e+000
    outer loop
      vertex   -1.602649e+002 4.379473e+001 6.820000e+001
      vertex   -1.602649e+002 4.379473e+001 3.560000e+001
      vertex   -1.590000e+002 4.316228e+001 6.820000e+001
    endloop
  endfacet
  facet normal 3.162279e-001 -9.486833e-001 0.000000e+000
    outer loop
      vertex   -1.590000e+002 4.316228e+001 6.820000e+001
      vertex   -1.590000e+002 4.316228e+001 3.560000e+001
      vertex   -1.581487e+002 4.344605e+001 6.820000e+001
    endloop
  endfacet
  facet normal 3.162279e-001 -9.486833e-001 -4.136647e-016
    outer loop
      vertex   -1.581487e+002 4.344605e+001 6.820000e+001
      vertex   -1.590000e+002 4.316228e+001 3.560000e+001
      vertex   -1.581487e+002 4.344605e+001 3.560000e+001
    endloop
  endfacet
  facet normal 3.162279e-001 -9.486833e-001 0.000000e+000
    outer loop
      vertex   -1.581487e+002 4.344605e+001 3.560000e+001
      vertex   -1.590000e+002 4.316228e+001 3.560000e+001
      vertex   -1.590000e+002 4.316228e+001 3.000000e+000
    endloop
  endfacet
  facet normal 3.162279e-001 -9.486833e-001 4.135460e-016
    outer loop
      vertex   -1.581487e+002 4.344605e+001 3.000000e+000
      vertex   -1.581487e+002 4.344605e+001 3.560000e+001
      vertex   -1.590000e+002 4.316228e+001 3.000000e+000
    endloop
  endfacet
  facet normal 4.472135e-001 -8.944272e-001 0.000000e+000
    outer loop
      vertex   -2.500000e+001 4.316228e+001 6.820000e+001
      vertex   -2.500000e+001 4.316228e+001 3.560000e+001
      vertex   -2.373509e+001 4.379473e+001 6.820000e+001
    endloop
  endfacet
  facet normal 4.472135e-001 -8.944272e-001 0.000000e+000
    outer loop
      vertex   -2.373509e+001 4.379473e+001 6.820000e+001
      vertex   -2.500000e+001 4.316228e+001 3.560000e+001
      vertex   -2.373509e+001 4.379473e+001 3.560000e+001
    endloop
  endfacet
  facet normal 4.472135e-001 -8.944272e-001 1.949475e-016
    outer loop
      vertex   -2.373509e+001 4.379473e+001 3.560000e+001
      vertex   -2.500000e+001 4.316228e+001 3.560000e+001
      vertex   -2.500000e+001 4.316228e+001 3.000000e+000
    endloop
  endfacet
  facet normal 4.472135e-001 -8.944272e-001 0.000000e+000
    outer loop
      vertex   -2.373509e+001 4.379473e+001 3.000000e+000
      vertex   -2.373509e+001 4.379473e+001 3.560000e+001
      vertex   -2.500000e+001 4.316228e+001 3.000000e+000
    endloop
  endfacet
  facet normal -3.162278e-001 -9.486833e-001 2.067730e-016
    outer loop
      vertex   -2.500000e+001 4.316228e+001 3.000000e+000
      vertex   -2.500000e+001 4.316228e+001 3.560000e+001
      vertex   -2.585132e+001 4.344605e+001 3.000000e+000
    endloop
  endfacet
  facet normal -3.162278e-001 -9.486833e-001 0.000000e+000
    outer loop
      vertex   -2.585132e+001 4.344605e+001 3.000000e+000
      vertex   -2.500000e+001 4.316228e+001 3.560000e+001
      vertex   -2.585132e+001 4.344605e+001 3.560000e+001
    endloop
  endfacet
  facet normal -3.162278e-001 -9.486833e-001 0.000000e+000
    outer loop
      vertex   -2.585132e+001 4.344605e+001 3.560000e+001
      vertex   -2.500000e+001 4.316228e+001 3.560000e+001
      vertex   -2.500000e+001 4.316228e+001 6.820000e+001
    endloop
  endfacet
  facet normal -3.162278e-001 -9.486833e-001 4.135460e-016
    outer loop
      vertex   -2.585132e+001 4.344605e+001 6.820000e+001
      vertex   -2.585132e+001 4.344605e+001 3.560000e+001
      vertex   -2.500000e+001 4.316228e+001 6.820000e+001
    endloop
  endfacet
  facet normal 0.000000e+000 0.000000e+000 1.000000e+000
    outer loop
      vertex   -1.581487e+002 4.344605e+001 3.000000e+000
      vertex   -1.590000e+002 4.316228e+001 3.000000e+000
      vertex   -1.572000e+002 4.060000e+001 3.000000e+000
    endloop
  endfacet
  facet normal 0.000000e+000 0.000000e+000 1.000000e+000
    outer loop
      vertex   -1.572000e+002 4.060000e+001 3.000000e+000
      vertex   -1.590000e+002 4.316228e+001 3.000000e+000
      vertex   -1.590000e+002 4.000000e+001 3.000000e+000
    endloop
  endfacet
  facet normal 0.000000e+000 0.000000e+000 1.000000e+000
    outer loop
      vertex   -1.590000e+002 4.000000e+001 3.000000e+000
      vertex   -1.590000e+002 4.316228e+001 3.000000e+000
      vertex   -1.602649e+002 4.379473e+001 3.000000e+000
    endloop
  endfacet
  facet normal -3.162279e-001 9.486833e-001 -4.824705e-016
    outer loop
      vertex   -1.572000e+002 4.060000e+001 6.820000e+001
      vertex   -1.572000e+002 4.060000e+001 3.560000e+001
      vertex   -1.590000e+002 4.000000e+001 6.820000e+001
    endloop
  endfacet
  facet normal -3.162278e-001 9.486833e-001 7.709046e-009
    outer loop
      vertex   -1.590000e+002 4.000000e+001 6.820000e+001
      vertex   -1.572000e+002 4.060000e+001 3.560000e+001
      vertex   -1.590000e+002 4.000000e+001 3.560000e+001
    endloop
  endfacet
  facet normal -3.162278e-001 9.486833e-001 -7.709046e-009
    outer loop
      vertex   -1.590000e+002 4.000000e+001 3.560000e+001
      vertex   -1.572000e+002 4.060000e+001 3.560000e+001
      vertex   -1.590000e+002 4.000000e+001 3.000000e+000
    endloop
  endfacet
  facet normal -3.162279e-001 9.486833e-001 4.824705e-016
    outer loop
      vertex   -1.590000e+002 4.000000e+001 3.000000e+000
      vertex   -1.572000e+002 4.060000e+001 3.560000e+001
      vertex   -1.572000e+002 4.060000e+001 3.000000e+000
    endloop
  endfacet
  facet normal -0.000000e+000 -0.000000e+000 -1.000000e+000
    outer loop
      vertex   -1.581487e+002 4.344605e+001 6.820000e+001
      vertex   -1.572000e+002 4.060000e+001 6.820000e+001
      vertex   -1.590000e+002 4.316228e+001 6.820000e+001
    endloop
  endfacet
  facet normal 0.000000e+000 -0.000000e+000 -1.000000e+000
    outer loop
      vertex   -1.590000e+002 4.316228e+001 6.820000e+001
      vertex   -1.572000e+002 4.060000e+001 6.820000e+001
      vertex   -1.590000e+002 4.000000e+001 6.820000e+001
    endloop
  endfacet
  facet normal 0.000000e+000 0.000000e+000 -1.000000e+000
    outer loop
      vertex   -1.602649e+002 4.379473e+001 6.820000e+001
      vertex   -1.590000e+002 4.316228e+001 6.820000e+001
      vertex   -1.590000e+002 4.000000e+001 6.820000e+001
    endloop
  endfacet
  facet normal -9.486830e-001 -3.162288e-001 -1.098886e-006
    outer loop
      vertex   -1.590000e+002 4.000000e+001 6.820000e+001
      vertex   -1.590000e+002 4.000000e+001 7.220000e+001
      vertex   -1.602649e+002 4.379473e+001 6.820000e+001
    endloop
  endfacet
  facet normal -9.486833e-001 -3.162278e-001 -6.927719e-008
    outer loop
      vertex   -1.602649e+002 4.379473e+001 6.820000e+001
      vertex   -1.590000e+002 4.000000e+001 7.220000e+001
      vertex   -1.610000e+002 4.600000e+001 7.220000e+001
    endloop
  endfacet
  facet normal -9.486833e-001 -3.162279e-001 0.000000e+000
    outer loop
      vertex   -1.610000e+002 4.600000e+001 3.610000e+001
      vertex   -1.602649e+002 4.379473e+001 6.820000e+001
      vertex   -1.610000e+002 4.600000e+001 7.220000e+001
    endloop
  endfacet
  facet normal -9.486833e-001 -3.162279e-001 0.000000e+000
    outer loop
      vertex   -1.610000e+002 4.600000e+001 3.610000e+001
      vertex   -1.602649e+002 4.379473e+001 3.560000e+001
      vertex   -1.602649e+002 4.379473e+001 6.820000e+001
    endloop
  endfacet
  facet normal -9.486833e-001 -3.162279e-001 0.000000e+000
    outer loop
      vertex   -1.610000e+002 4.600000e+001 3.610000e+001
      vertex   -1.602649e+002 4.379473e+001 3.000000e+000
      vertex   -1.602649e+002 4.379473e+001 3.560000e+001
    endloop
  endfacet
  facet normal -9.486833e-001 -3.162279e-001 -0.000000e+000
    outer loop
      vertex   -1.610000e+002 4.600000e+001 3.610000e+001
      vertex   -1.610000e+002 4.600000e+001 -8.881784e-015
      vertex   -1.602649e+002 4.379473e+001 3.000000e+000
    endloop
  endfacet
  facet normal -9.486833e-001 -3.162279e-001 6.272691e-015
    outer loop
      vertex   -1.602649e+002 4.379473e+001 3.000000e+000
      vertex   -1.610000e+002 4.600000e+001 -8.881784e-015
      vertex   -1.590000e+002 4.000000e+001 -1.833296e-014
    endloop
  endfacet
  facet normal -9.486830e-001 -3.162288e-001 1.213866e-006
    outer loop
      vertex   -1.590000e+002 4.000000e+001 3.000000e+000
      vertex   -1.602649e+002 4.379473e+001 3.000000e+000
      vertex   -1.590000e+002 4.000000e+001 -1.833296e-014
    endloop
  endfacet
  facet normal 9.486833e-001 3.162278e-001 -3.071617e-015
    outer loop
      vertex   -1.581487e+002 4.344605e+001 6.820000e+001
      vertex   -1.570000e+002 4.000000e+001 7.220000e+001
      vertex   -1.572000e+002 4.060000e+001 6.820000e+001
    endloop
  endfacet
  facet normal 9.486833e-001 3.162278e-001 -3.475725e-015
    outer loop
      vertex   -1.581487e+002 4.344605e+001 6.820000e+001
      vertex   -1.590000e+002 4.600000e+001 7.220000e+001
      vertex   -1.570000e+002 4.000000e+001 7.220000e+001
    endloop
  endfacet
  facet normal 9.486833e-001 3.162278e-001 -0.000000e+000
    outer loop
      vertex   -1.581487e+002 4.344605e+001 6.820000e+001
      vertex   -1.590000e+002 4.600000e+001 3.610000e+001
      vertex   -1.590000e+002 4.600000e+001 7.220000e+001
    endloop
  endfacet
  facet normal 9.486833e-001 3.162278e-001 1.378487e-016
    outer loop
      vertex   -1.581487e+002 4.344605e+001 6.820000e+001
      vertex   -1.581487e+002 4.344605e+001 3.560000e+001
      vertex   -1.590000e+002 4.600000e+001 3.610000e+001
    endloop
  endfacet
  facet normal 9.486833e-001 3.162278e-001 -1.378487e-016
    outer loop
      vertex   -1.590000e+002 4.600000e+001 3.610000e+001
      vertex   -1.581487e+002 4.344605e+001 3.560000e+001
      vertex   -1.581487e+002 4.344605e+001 3.000000e+000
    endloop
  endfacet
  facet normal 9.486833e-001 3.162278e-001 4.610894e-015
    outer loop
      vertex   -1.590000e+002 4.600000e+001 2.980232e-008
      vertex   -1.581487e+002 4.344605e+001 3.000000e+000
      vertex   -1.570000e+002 4.000000e+001 -9.166481e-015
    endloop
  endfacet
  facet normal 9.486833e-001 3.162278e-001 -0.000000e+000
    outer loop
      vertex   -1.590000e+002 4.600000e+001 2.980232e-008
      vertex   -1.590000e+002 4.600000e+001 3.610000e+001
      vertex   -1.581487e+002 4.344605e+001 3.000000e+000
    endloop
  endfacet
  facet normal 9.486833e-001 3.162278e-001 4.095489e-015
    outer loop
      vertex   -1.581487e+002 4.344605e+001 3.000000e+000
      vertex   -1.572000e+002 4.060000e+001 3.000000e+000
      vertex   -1.570000e+002 4.000000e+001 -9.166481e-015
    endloop
  endfacet
  facet normal 9.486833e-001 3.162278e-001 -4.911272e-016
    outer loop
      vertex   -1.570000e+002 4.000000e+001 -9.166481e-015
      vertex   -1.572000e+002 4.060000e+001 3.000000e+000
      vertex   -1.570000e+002 4.000000e+001 3.610000e+001
    endloop
  endfacet
  facet normal 9.486833e-001 3.162278e-001 -7.581677e-016
    outer loop
      vertex   -1.570000e+002 4.000000e+001 3.610000e+001
      vertex   -1.572000e+002 4.060000e+001 3.000000e+000
      vertex   -1.572000e+002 4.060000e+001 3.560000e+001
    endloop
  endfacet
  facet normal 9.486833e-001 3.162278e-001 7.579006e-016
    outer loop
      vertex   -1.572000e+002 4.060000e+001 6.820000e+001
      vertex   -1.570000e+002 4.000000e+001 3.610000e+001
      vertex   -1.572000e+002 4.060000e+001 3.560000e+001
    endloop
  endfacet
  facet normal 9.486833e-001 3.162278e-001 4.910221e-016
    outer loop
      vertex   -1.572000e+002 4.060000e+001 6.820000e+001
      vertex   -1.570000e+002 4.000000e+001 7.220000e+001
      vertex   -1.570000e+002 4.000000e+001 3.610000e+001
    endloop
  endfacet
  facet normal -0.000000e+000 1.000000e+000 0.000000e+000
    outer loop
      vertex   -1.610000e+002 4.600000e+001 -8.881784e-015
      vertex   -1.610000e+002 4.600000e+001 3.610000e+001
      vertex   -1.590000e+002 4.600000e+001 2.980232e-008
    endloop
  endfacet
  facet normal 0.000000e+000 1.000000e+000 -0.000000e+000
    outer loop
      vertex   -1.590000e+002 4.600000e+001 2.980232e-008
      vertex   -1.610000e+002 4.600000e+001 3.610000e+001
      vertex   -1.590000e+002 4.600000e+001 3.610000e+001
    endloop
  endfacet
  facet normal 0.000000e+000 1.000000e+000 -0.000000e+000
    outer loop
      vertex   -1.590000e+002 4.600000e+001 3.610000e+001
      vertex   -1.610000e+002 4.600000e+001 3.610000e+001
      vertex   -1.610000e+002 4.600000e+001 7.220000e+001
    endloop
  endfacet
  facet normal 0.000000e+000 1.000000e+000 0.000000e+000
    outer loop
      vertex   -1.590000e+002 4.600000e+001 7.220000e+001
      vertex   -1.590000e+002 4.600000e+001 3.610000e+001
      vertex   -1.610000e+002 4.600000e+001 7.220000e+001
    endloop
  endfacet
  facet normal 4.768378e-006 1.000000e+000 0.000000e+000
    outer loop
      vertex   -1.565000e+002 4.000000e+001 -4.202127e-006
      vertex   -1.570000e+002 4.000000e+001 -9.166481e-015
      vertex   -1.565000e+002 4.000000e+001 1.299996e+000
    endloop
  endfacet
  facet normal 4.940091e-006 1.000000e+000 -6.604382e-008
    outer loop
      vertex   -1.565000e+002 4.000000e+001 1.299996e+000
      vertex   -1.570000e+002 4.000000e+001 -9.166481e-015
      vertex   -1.570000e+002 4.000000e+001 3.610000e+001
    endloop
  endfacet
  facet normal 5.960464e-007 1.000000e+000 0.000000e+000
    outer loop
      vertex   -1.530000e+002 4.000000e+001 2.000000e+000
      vertex   -1.570000e+002 4.000000e+001 3.610000e+001
      vertex   -1.530000e+002 4.000000e+001 3.660000e+001
    endloop
  endfacet
  facet normal -6.519180e-007 1.000000e+000 -1.463888e-007
    outer loop
      vertex   -1.530000e+002 4.000000e+001 2.000000e+000
      vertex   -1.565000e+002 4.000000e+001 1.299996e+000
      vertex   -1.570000e+002 4.000000e+001 3.610000e+001
    endloop
  endfacet
  facet normal 0.000000e+000 1.000000e+000 -3.405959e-006
    outer loop
      vertex   -1.530000e+002 4.000000e+001 2.000000e+000
      vertex   -1.552000e+002 4.000000e+001 1.299996e+000
      vertex   -1.565000e+002 4.000000e+001 1.299996e+000
    endloop
  endfacet
  facet normal -1.083721e-006 1.000000e+000 0.000000e+000
    outer loop
      vertex   -1.530000e+002 4.000000e+001 2.000000e+000
      vertex   -1.552000e+002 4.000000e+001 -4.202127e-006
      vertex   -1.552000e+002 4.000000e+001 1.299996e+000
    endloop
  endfacet
  facet normal -1.131733e-007 1.000000e+000 -1.067600e-006
    outer loop
      vertex   -1.530000e+002 4.000000e+001 2.000000e+000
      vertex   -1.130667e+002 4.000000e+001 -1.204868e-014
      vertex   -1.552000e+002 4.000000e+001 -4.202127e-006
    endloop
  endfacet
  facet normal -5.862752e-008 1.000000e+000 2.149676e-008
    outer loop
      vertex   -1.530000e+002 4.000000e+001 2.000000e+000
      vertex   -1.123333e+002 4.000000e+001 2.000000e+000
      vertex   -1.130667e+002 4.000000e+001 -1.204868e-014
    endloop
  endfacet
  facet normal -0.000000e+000 1.000000e+000 0.000000e+000
    outer loop
      vertex   -1.130667e+002 4.000000e+001 -1.204868e-014
      vertex   -1.123333e+002 4.000000e+001 2.000000e+000
      vertex   -7.093333e+001 4.000000e+001 -6.284284e-015
    endloop
  endfacet
  facet normal 0.000000e+000 1.000000e+000 -0.000000e+000
    outer loop
      vertex   -7.093333e+001 4.000000e+001 -6.284284e-015
      vertex   -1.123333e+002 4.000000e+001 2.000000e+000
      vertex   -7.166666e+001 4.000000e+001 2.000000e+000
    endloop
  endfacet
  facet normal 5.862752e-008 1.000000e+000 2.149675e-008
    outer loop
      vertex   -3.100000e+001 4.000000e+001 2.000000e+000
      vertex   -7.093333e+001 4.000000e+001 -6.284284e-015
      vertex   -7.166666e+001 4.000000e+001 2.000000e+000
    endloop
  endfacet
  facet normal 1.131733e-007 1.000000e+000 -1.067600e-006
    outer loop
      vertex   -3.100000e+001 4.000000e+001 2.000000e+000
      vertex   -2.880000e+001 4.000000e+001 -4.202127e-006
      vertex   -7.093333e+001 4.000000e+001 -6.284284e-015
    endloop
  endfacet
  facet normal 1.083721e-006 1.000000e+000 0.000000e+000
    outer loop
      vertex   -3.100000e+001 4.000000e+001 2.000000e+000
      vertex   -2.880000e+001 4.000000e+001 1.299996e+000
      vertex   -2.880000e+001 4.000000e+001 -4.202127e-006
    endloop
  endfacet
  facet normal 0.000000e+000 1.000000e+000 -3.405959e-006
    outer loop
      vertex   -3.100000e+001 4.000000e+001 2.000000e+000
      vertex   -2.750000e+001 4.000000e+001 1.299996e+000
      vertex   -2.880000e+001 4.000000e+001 1.299996e+000
    endloop
  endfacet
  facet normal 6.519180e-007 1.000000e+000 -1.463888e-007
    outer loop
      vertex   -3.100000e+001 4.000000e+001 2.000000e+000
      vertex   -2.700000e+001 4.000000e+001 3.610000e+001
      vertex   -2.750000e+001 4.000000e+001 1.299996e+000
    endloop
  endfacet
  facet normal -5.960464e-007 1.000000e+000 0.000000e+000
    outer loop
      vertex   -3.100000e+001 4.000000e+001 2.000000e+000
      vertex   -3.100000e+001 4.000000e+001 3.660000e+001
      vertex   -2.700000e+001 4.000000e+001 3.610000e+001
    endloop
  endfacet
  facet normal -5.794834e-007 1.000000e+000 1.325038e-007
    outer loop
      vertex   -2.700000e+001 4.000000e+001 3.610000e+001
      vertex   -3.100000e+001 4.000000e+001 3.660000e+001
      vertex   -2.750000e+001 4.000000e+001 6.990000e+001
    endloop
  endfacet
  facet normal 4.768373e-006 1.000000e+000 -2.073201e-006
    outer loop
      vertex   -2.700000e+001 4.000000e+001 7.220000e+001
      vertex   -2.750000e+001 4.000000e+001 6.990000e+001
      vertex   -2.750000e+001 4.000000e+001 7.220000e+001
    endloop
  endfacet
  facet normal -5.072175e-006 1.000000e+000 6.604382e-008
    outer loop
      vertex   -2.700000e+001 4.000000e+001 7.220000e+001
      vertex   -2.700000e+001 4.000000e+001 3.610000e+001
      vertex   -2.750000e+001 4.000000e+001 6.990000e+001
    endloop
  endfacet
  facet normal 5.794834e-007 1.000000e+000 1.325039e-007
    outer loop
      vertex   -1.530000e+002 4.000000e+001 3.660000e+001
      vertex   -1.570000e+002 4.000000e+001 3.610000e+001
      vertex   -1.565000e+002 4.000000e+001 6.990000e+001
    endloop
  endfacet
  facet normal 0.000000e+000 1.000000e+000 7.159718e-008
    outer loop
      vertex   -1.552000e+002 4.000000e+001 6.990000e+001
      vertex   -1.530000e+002 4.000000e+001 3.660000e+001
      vertex   -1.565000e+002 4.000000e+001 6.990000e+001
    endloop
  endfacet
  facet normal -1.083721e-006 1.000000e+000 0.000000e+000
    outer loop
      vertex   -1.552000e+002 4.000000e+001 6.990000e+001
      vertex   -1.530000e+002 4.000000e+001 7.120000e+001
      vertex   -1.530000e+002 4.000000e+001 3.660000e+001
    endloop
  endfacet
  facet normal -1.083721e-006 1.000000e+000 0.000000e+000
    outer loop
      vertex   -1.552000e+002 4.000000e+001 6.990000e+001
      vertex   -1.552000e+002 4.000000e+001 7.120000e+001
      vertex   -1.530000e+002 4.000000e+001 7.120000e+001
    endloop
  endfacet
  facet normal -4.768378e-006 1.000000e+000 -2.073201e-006
    outer loop
      vertex   -1.565000e+002 4.000000e+001 7.220000e+001
      vertex   -1.565000e+002 4.000000e+001 6.990000e+001
      vertex   -1.570000e+002 4.000000e+001 7.220000e+001
    endloop
  endfacet
  facet normal 5.072180e-006 1.000000e+000 6.604382e-008
    outer loop
      vertex   -1.570000e+002 4.000000e+001 7.220000e+001
      vertex   -1.565000e+002 4.000000e+001 6.990000e+001
      vertex   -1.570000e+002 4.000000e+001 3.610000e+001
    endloop
  endfacet
  facet normal 0.000000e+000 1.000000e+000 7.159718e-008
    outer loop
      vertex   -2.750000e+001 4.000000e+001 6.990000e+001
      vertex   -3.100000e+001 4.000000e+001 3.660000e+001
      vertex   -2.880000e+001 4.000000e+001 6.990000e+001
    endloop
  endfacet
  facet normal 1.083721e-006 1.000000e+000 -0.000000e+000
    outer loop
      vertex   -2.880000e+001 4.000000e+001 6.990000e+001
      vertex   -3.100000e+001 4.000000e+001 3.660000e+001
      vertex   -3.100000e+001 4.000000e+001 7.120000e+001
    endloop
  endfacet
  facet normal 1.083721e-006 1.000000e+000 0.000000e+000
    outer loop
      vertex   -2.880000e+001 4.000000e+001 7.120000e+001
      vertex   -2.880000e+001 4.000000e+001 6.990000e+001
      vertex   -3.100000e+001 4.000000e+001 7.120000e+001
    endloop
  endfacet
  facet normal -4.940086e-006 1.000000e+000 -6.604382e-008
    outer loop
      vertex   -2.700000e+001 4.000000e+001 3.610000e+001
      vertex   -2.700000e+001 4.000000e+001 -9.166481e-015
      vertex   -2.750000e+001 4.000000e+001 1.299996e+000
    endloop
  endfacet
  facet normal -4.768373e-006 1.000000e+000 0.000000e+000
    outer loop
      vertex   -2.750000e+001 4.000000e+001 1.299996e+000
      vertex   -2.700000e+001 4.000000e+001 -9.166481e-015
      vertex   -2.750000e+001 4.000000e+001 -4.202127e-006
    endloop
  endfacet
  facet normal 3.162278e-001 9.486833e-001 -7.709061e-009
    outer loop
      vertex   -2.500000e+001 4.000000e+001 3.000000e+000
      vertex   -2.680000e+001 4.060000e+001 3.000000e+000
      vertex   -2.500000e+001 4.000000e+001 3.560000e+001
    endloop
  endfacet
  facet normal 3.162277e-001 9.486833e-001 -3.446216e-017
    outer loop
      vertex   -2.500000e+001 4.000000e+001 3.560000e+001
      vertex   -2.680000e+001 4.060000e+001 3.000000e+000
      vertex   -2.680000e+001 4.060000e+001 3.560000e+001
    endloop
  endfacet
  facet normal 3.162277e-001 9.486833e-001 3.589812e-017
    outer loop
      vertex   -2.680000e+001 4.060000e+001 6.820000e+001
      vertex   -2.500000e+001 4.000000e+001 3.560000e+001
      vertex   -2.680000e+001 4.060000e+001 3.560000e+001
    endloop
  endfacet
  facet normal 3.162278e-001 9.486833e-001 7.709061e-009
    outer loop
      vertex   -2.680000e+001 4.060000e+001 6.820000e+001
      vertex   -2.500000e+001 4.000000e+001 6.820000e+001
      vertex   -2.500000e+001 4.000000e+001 3.560000e+001
    endloop
  endfacet
  facet normal -0.000000e+000 0.000000e+000 1.000000e+000
    outer loop
      vertex   -2.585132e+001 4.344605e+001 3.000000e+000
      vertex   -2.680000e+001 4.060000e+001 3.000000e+000
      vertex   -2.500000e+001 4.316228e+001 3.000000e+000
    endloop
  endfacet
  facet normal 0.000000e+000 0.000000e+000 1.000000e+000
    outer loop
      vertex   -2.500000e+001 4.316228e+001 3.000000e+000
      vertex   -2.680000e+001 4.060000e+001 3.000000e+000
      vertex   -2.500000e+001 4.000000e+001 3.000000e+000
    endloop
  endfacet
  facet normal 0.000000e+000 0.000000e+000 1.000000e+000
    outer loop
      vertex   -2.373509e+001 4.379473e+001 3.000000e+000
      vertex   -2.500000e+001 4.316228e+001 3.000000e+000
      vertex   -2.500000e+001 4.000000e+001 3.000000e+000
    endloop
  endfacet
  facet normal 0.000000e+000 -0.000000e+000 -1.000000e+000
    outer loop
      vertex   -2.585132e+001 4.344605e+001 6.820000e+001
      vertex   -2.500000e+001 4.316228e+001 6.820000e+001
      vertex   -2.680000e+001 4.060000e+001 6.820000e+001
    endloop
  endfacet
  facet normal 0.000000e+000 0.000000e+000 -1.000000e+000
    outer loop
      vertex   -2.680000e+001 4.060000e+001 6.820000e+001
      vertex   -2.500000e+001 4.316228e+001 6.820000e+001
      vertex   -2.500000e+001 4.000000e+001 6.820000e+001
    endloop
  endfacet
  facet normal 0.000000e+000 0.000000e+000 -1.000000e+000
    outer loop
      vertex   -2.500000e+001 4.000000e+001 6.820000e+001
      vertex   -2.500000e+001 4.316228e+001 6.820000e+001
      vertex   -2.373509e+001 4.379473e+001 6.820000e+001
    endloop
  endfacet
  facet normal 1.065815e-014 1.000000e+000 -0.000000e+000
    outer loop
      vertex   -2.500000e+001 4.600000e+001 -8.881784e-015
      vertex   -2.500000e+001 4.600000e+001 3.610000e+001
      vertex   -2.300000e+001 4.600000e+001 2.980232e-008
    endloop
  endfacet
  facet normal 4.399418e-024 1.000000e+000 -5.904787e-016
    outer loop
      vertex   -2.300000e+001 4.600000e+001 2.980232e-008
      vertex   -2.500000e+001 4.600000e+001 3.610000e+001
      vertex   -2.300000e+001 4.600000e+001 3.610000e+001
    endloop
  endfacet
  facet normal 0.000000e+000 1.000000e+000 -0.000000e+000
    outer loop
      vertex   -2.300000e+001 4.600000e+001 3.610000e+001
      vertex   -2.500000e+001 4.600000e+001 3.610000e+001
      vertex   -2.500000e+001 4.600000e+001 7.220000e+001
    endloop
  endfacet
  facet normal 0.000000e+000 1.000000e+000 0.000000e+000
    outer loop
      vertex   -2.300000e+001 4.600000e+001 7.220000e+001
      vertex   -2.300000e+001 4.600000e+001 3.610000e+001
      vertex   -2.500000e+001 4.600000e+001 7.220000e+001
    endloop
  endfacet
  facet normal -9.486833e-001 3.162278e-001 0.000000e+000
    outer loop
      vertex   -2.585132e+001 4.344605e+001 3.560000e+001
      vertex   -2.500000e+001 4.600000e+001 3.610000e+001
      vertex   -2.585132e+001 4.344605e+001 3.000000e+000
    endloop
  endfacet
  facet normal -9.486833e-001 3.162278e-001 -1.378487e-016
    outer loop
      vertex   -2.585132e+001 4.344605e+001 3.560000e+001
      vertex   -2.585132e+001 4.344605e+001 6.820000e+001
      vertex   -2.500000e+001 4.600000e+001 3.610000e+001
    endloop
  endfacet
  facet normal -9.486833e-001 3.162278e-001 0.000000e+000
    outer loop
      vertex   -2.500000e+001 4.600000e+001 3.610000e+001
      vertex   -2.585132e+001 4.344605e+001 6.820000e+001
      vertex   -2.500000e+001 4.600000e+001 7.220000e+001
    endloop
  endfacet
  facet normal -9.486833e-001 3.162278e-001 4.915167e-016
    outer loop
      vertex   -2.500000e+001 4.600000e+001 7.220000e+001
      vertex   -2.585132e+001 4.344605e+001 6.820000e+001
      vertex   -2.700000e+001 4.000000e+001 7.220000e+001
    endloop
  endfacet
  facet normal -9.486833e-001 3.162278e-001 3.700743e-017
    outer loop
      vertex   -2.700000e+001 4.000000e+001 7.220000e+001
      vertex   -2.585132e+001 4.344605e+001 6.820000e+001
      vertex   -2.680000e+001 4.060000e+001 6.820000e+001
    endloop
  endfacet
  facet normal -9.486833e-001 3.162278e-001 -1.033865e-016
    outer loop
      vertex   -2.700000e+001 4.000000e+001 3.610000e+001
      vertex   -2.680000e+001 4.060000e+001 6.820000e+001
      vertex   -2.680000e+001 4.060000e+001 3.560000e+001
    endloop
  endfacet
  facet normal -9.486833e-001 3.162278e-001 1.036562e-016
    outer loop
      vertex   -2.680000e+001 4.060000e+001 3.000000e+000
      vertex   -2.700000e+001 4.000000e+001 3.610000e+001
      vertex   -2.680000e+001 4.060000e+001 3.560000e+001
    endloop
  endfacet
  facet normal -9.486833e-001 3.162278e-001 3.457878e-016
    outer loop
      vertex   -2.680000e+001 4.060000e+001 3.000000e+000
      vertex   -2.700000e+001 4.000000e+001 -9.166481e-015
      vertex   -2.700000e+001 4.000000e+001 3.610000e+001
    endloop
  endfacet
  facet normal -9.486833e-001 3.162278e-001 2.960595e-015
    outer loop
      vertex   -2.680000e+001 4.060000e+001 3.000000e+000
      vertex   -2.585132e+001 4.344605e+001 3.000000e+000
      vertex   -2.700000e+001 4.000000e+001 -9.166481e-015
    endloop
  endfacet
  facet normal -9.486833e-001 3.162278e-001 2.270339e-015
    outer loop
      vertex   -2.700000e+001 4.000000e+001 -9.166481e-015
      vertex   -2.585132e+001 4.344605e+001 3.000000e+000
      vertex   -2.500000e+001 4.600000e+001 -8.881784e-015
    endloop
  endfacet
  facet normal -9.486833e-001 3.162278e-001 0.000000e+000
    outer loop
      vertex   -2.500000e+001 4.600000e+001 -8.881784e-015
      vertex   -2.585132e+001 4.344605e+001 3.000000e+000
      vertex   -2.500000e+001 4.600000e+001 3.610000e+001
    endloop
  endfacet
  facet normal -9.486833e-001 3.162278e-001 -6.564586e-017
    outer loop
      vertex   -2.700000e+001 4.000000e+001 7.220000e+001
      vertex   -2.680000e+001 4.060000e+001 6.820000e+001
      vertex   -2.700000e+001 4.000000e+001 3.610000e+001
    endloop
  endfacet
  facet normal 9.486834e-001 -3.162273e-001 -7.410636e-007
    outer loop
      vertex   -2.500000e+001 4.000000e+001 3.000000e+000
      vertex   -2.500000e+001 4.000000e+001 0.000000e+000
      vertex   -2.373509e+001 4.379473e+001 3.000000e+000
    endloop
  endfacet
  facet normal 9.486833e-001 -3.162278e-001 2.808668e-016
    outer loop
      vertex   -2.373509e+001 4.379473e+001 3.000000e+000
      vertex   -2.500000e+001 4.000000e+001 0.000000e+000
      vertex   -2.300000e+001 4.600000e+001 2.980232e-008
    endloop
  endfacet
  facet normal 9.486833e-001 -3.162278e-001 0.000000e+000
    outer loop
      vertex   -2.300000e+001 4.600000e+001 3.610000e+001
      vertex   -2.373509e+001 4.379473e+001 3.000000e+000
      vertex   -2.300000e+001 4.600000e+001 2.980232e-008
    endloop
  endfacet
  facet normal 9.486833e-001 -3.162278e-001 0.000000e+000
    outer loop
      vertex   -2.300000e+001 4.600000e+001 3.610000e+001
      vertex   -2.373509e+001 4.379473e+001 3.560000e+001
      vertex   -2.373509e+001 4.379473e+001 3.000000e+000
    endloop
  endfacet
  facet normal 9.486833e-001 -3.162278e-001 0.000000e+000
    outer loop
      vertex   -2.300000e+001 4.600000e+001 3.610000e+001
      vertex   -2.373509e+001 4.379473e+001 6.820000e+001
      vertex   -2.373509e+001 4.379473e+001 3.560000e+001
    endloop
  endfacet
  facet normal 9.486833e-001 -3.162278e-001 0.000000e+000
    outer loop
      vertex   -2.300000e+001 4.600000e+001 3.610000e+001
      vertex   -2.300000e+001 4.600000e+001 7.220000e+001
      vertex   -2.373509e+001 4.379473e+001 6.820000e+001
    endloop
  endfacet
  facet normal 9.486833e-001 -3.162277e-001 -6.927717e-008
    outer loop
      vertex   -2.373509e+001 4.379473e+001 6.820000e+001
      vertex   -2.300000e+001 4.600000e+001 7.220000e+001
      vertex   -2.500000e+001 4.000000e+001 7.220000e+001
    endloop
  endfacet
  facet normal 9.486834e-001 -3.162273e-001 3.673115e-007
    outer loop
      vertex   -2.500000e+001 4.000000e+001 6.820000e+001
      vertex   -2.373509e+001 4.379473e+001 6.820000e+001
      vertex   -2.500000e+001 4.000000e+001 7.220000e+001
    endloop
  endfacet
  facet normal 0.000000e+000 1.000000e+000 -0.000000e+000
    outer loop
      vertex   -2.880000e+001 4.010000e+001 7.119999e+001
      vertex   -3.100000e+001 4.010000e+001 7.119999e+001
      vertex   -2.880000e+001 4.010000e+001 7.219999e+001
    endloop
  endfacet
  facet normal 0.000000e+000 1.000000e+000 -0.000000e+000
    outer loop
      vertex   -2.880000e+001 4.010000e+001 7.219999e+001
      vertex   -3.100000e+001 4.010000e+001 7.119999e+001
      vertex   -3.100000e+001 4.010000e+001 7.219999e+001
    endloop
  endfacet
  facet normal 0.000000e+000 -0.000000e+000 1.000000e+000
    outer loop
      vertex   -3.100000e+001 3.800000e+001 7.219999e+001
      vertex   -2.880000e+001 3.800000e+001 7.219999e+001
      vertex   -3.100000e+001 4.010000e+001 7.219999e+001
    endloop
  endfacet
  facet normal -0.000000e+000 0.000000e+000 1.000000e+000
    outer loop
      vertex   -3.100000e+001 4.010000e+001 7.219999e+001
      vertex   -2.880000e+001 3.800000e+001 7.219999e+001
      vertex   -2.880000e+001 4.010000e+001 7.219999e+001
    endloop
  endfacet
  facet normal -1.923623e-006 -1.710610e-005 -1.000000e+000
    outer loop
      vertex   -2.880000e+001 4.000000e+001 7.120000e+001
      vertex   -3.100000e+001 4.000000e+001 7.120000e+001
      vertex   -2.880000e+001 4.010000e+001 7.119999e+001
    endloop
  endfacet
  facet normal 0.000000e+000 -5.942576e-005 -1.000000e+000
    outer loop
      vertex   -2.880000e+001 4.010000e+001 7.119999e+001
      vertex   -3.100000e+001 4.000000e+001 7.120000e+001
      vertex   -3.100000e+001 4.010000e+001 7.119999e+001
    endloop
  endfacet
  facet normal 0.000000e+000 1.000000e+000 -0.000000e+000
    outer loop
      vertex   -1.530000e+002 4.010000e+001 7.119999e+001
      vertex   -1.552000e+002 4.010000e+001 7.119999e+001
      vertex   -1.530000e+002 4.010000e+001 7.219999e+001
    endloop
  endfacet
  facet normal 0.000000e+000 1.000000e+000 -0.000000e+000
    outer loop
      vertex   -1.530000e+002 4.010000e+001 7.219999e+001
      vertex   -1.552000e+002 4.010000e+001 7.119999e+001
      vertex   -1.552000e+002 4.010000e+001 7.219999e+001
    endloop
  endfacet
  facet normal 0.000000e+000 -0.000000e+000 1.000000e+000
    outer loop
      vertex   -1.552000e+002 3.800000e+001 7.219999e+001
      vertex   -1.530000e+002 3.800000e+001 7.219999e+001
      vertex   -1.552000e+002 4.010000e+001 7.219999e+001
    endloop
  endfacet
  facet normal -0.000000e+000 0.000000e+000 1.000000e+000
    outer loop
      vertex   -1.552000e+002 4.010000e+001 7.219999e+001
      vertex   -1.530000e+002 3.800000e+001 7.219999e+001
      vertex   -1.530000e+002 4.010000e+001 7.219999e+001
    endloop
  endfacet
  facet normal 1.923623e-006 -1.710610e-005 -1.000000e+000
    outer loop
      vertex   -1.552000e+002 4.000000e+001 7.120000e+001
      vertex   -1.552000e+002 4.010000e+001 7.119999e+001
      vertex   -1.530000e+002 4.000000e+001 7.120000e+001
    endloop
  endfacet
  facet normal 0.000000e+000 -5.942576e-005 -1.000000e+000
    outer loop
      vertex   -1.530000e+002 4.000000e+001 7.120000e+001
      vertex   -1.552000e+002 4.010000e+001 7.119999e+001
      vertex   -1.530000e+002 4.010000e+001 7.119999e+001
    endloop
  endfacet
  facet normal -0.000000e+000 0.000000e+000 1.000000e+000
    outer loop
      vertex   -2.750000e+001 4.000000e+001 7.220000e+001
      vertex   -2.700000e+001 3.800000e+001 7.220000e+001
      vertex   -2.700000e+001 4.000000e+001 7.220000e+001
    endloop
  endfacet
  facet normal -0.000000e+000 0.000000e+000 1.000000e+000
    outer loop
      vertex   -2.750000e+001 4.000000e+001 7.220000e+001
      vertex   -2.750000e+001 3.800000e+001 7.220000e+001
      vertex   -2.700000e+001 3.800000e+001 7.220000e+001
    endloop
  endfacet
  facet normal -0.000000e+000 -0.000000e+000 1.000000e+000
    outer loop
      vertex   -2.700000e+001 2.630000e+001 7.220000e+001
      vertex   -2.500000e+001 2.530000e+001 7.220000e+001
      vertex   -2.700000e+001 3.800000e+001 7.220000e+001
    endloop
  endfacet
  facet normal -0.000000e+000 0.000000e+000 1.000000e+000
    outer loop
      vertex   -2.700000e+001 2.630000e+001 7.220000e+001
      vertex   -2.600000e+001 2.430000e+001 7.220000e+001
      vertex   -2.500000e+001 2.530000e+001 7.220000e+001
    endloop
  endfacet
  facet normal -0.000000e+000 0.000000e+000 1.000000e+000
    outer loop
      vertex   -2.700000e+001 2.630000e+001 7.220000e+001
      vertex   -3.100000e+001 2.430000e+001 7.220000e+001
      vertex   -2.600000e+001 2.430000e+001 7.220000e+001
    endloop
  endfacet
  facet normal 0.000000e+000 0.000000e+000 1.000000e+000
    outer loop
      vertex   -2.700000e+001 2.630000e+001 7.220000e+001
      vertex   -3.100000e+001 2.630000e+001 7.220000e+001
      vertex   -3.100000e+001 2.430000e+001 7.220000e+001
    endloop
  endfacet
  facet normal 0.000000e+000 -0.000000e+000 1.000000e+000
    outer loop
      vertex   -2.500000e+001 2.530000e+001 7.220000e+001
      vertex   -2.500000e+001 4.000000e+001 7.220000e+001
      vertex   -2.700000e+001 3.800000e+001 7.220000e+001
    endloop
  endfacet
  facet normal 0.000000e+000 -0.000000e+000 1.000000e+000
    outer loop
      vertex   -2.700000e+001 3.800000e+001 7.220000e+001
      vertex   -2.500000e+001 4.000000e+001 7.220000e+001
      vertex   -2.700000e+001 4.000000e+001 7.220000e+001
    endloop
  endfacet
  facet normal 0.000000e+000 0.000000e+000 1.000000e+000
    outer loop
      vertex   -2.700000e+001 4.000000e+001 7.220000e+001
      vertex   -2.500000e+001 4.000000e+001 7.220000e+001
      vertex   -2.500000e+001 4.600000e+001 7.220000e+001
    endloop
  endfacet
  facet normal -0.000000e+000 0.000000e+000 1.000000e+000
    outer loop
      vertex   -2.500000e+001 4.600000e+001 7.220000e+001
      vertex   -2.500000e+001 4.000000e+001 7.220000e+001
      vertex   -2.300000e+001 4.600000e+001 7.220000e+001
    endloop
  endfacet
  facet normal -1.000000e+000 0.000000e+000 -1.062363e-006
    outer loop
      vertex   -1.590000e+002 4.000000e+001 7.220000e+001
      vertex   -1.590000e+002 4.000000e+001 6.820000e+001
      vertex   -1.590000e+002 2.530000e+001 7.220000e+001
    endloop
  endfacet
  facet normal -1.000000e+000 2.890785e-007 0.000000e+000
    outer loop
      vertex   -1.590000e+002 2.530000e+001 7.220000e+001
      vertex   -1.590000e+002 4.000000e+001 6.820000e+001
      vertex   -1.590000e+002 2.530000e+001 3.610000e+001
    endloop
  endfacet
  facet normal -1.000000e+000 4.433719e-009 1.303513e-007
    outer loop
      vertex   -1.590000e+002 2.530000e+001 3.610000e+001
      vertex   -1.590000e+002 4.000000e+001 6.820000e+001
      vertex   -1.590000e+002 4.000000e+001 3.560000e+001
    endloop
  endfacet
  facet normal -1.000000e+000 -4.433719e-009 -1.303513e-007
    outer loop
      vertex   -1.590000e+002 4.000000e+001 3.000000e+000
      vertex   -1.590000e+002 2.530000e+001 3.610000e+001
      vertex   -1.590000e+002 4.000000e+001 3.560000e+001
    endloop
  endfacet
  facet normal -1.000000e+000 2.890785e-007 0.000000e+000
    outer loop
      vertex   -1.590000e+002 4.000000e+001 3.000000e+000
      vertex   -1.590000e+002 2.530000e+001 -1.833296e-014
      vertex   -1.590000e+002 2.530000e+001 3.610000e+001
    endloop
  endfacet
  facet normal -1.000000e+000 0.000000e+000 1.416484e-006
    outer loop
      vertex   -1.590000e+002 4.000000e+001 3.000000e+000
      vertex   -1.590000e+002 4.000000e+001 -1.833296e-014
      vertex   -1.590000e+002 2.530000e+001 -1.833296e-014
    endloop
  endfacet
  facet normal 1.000000e+000 0.000000e+000 -0.000000e+000
    outer loop
      vertex   -2.880000e+001 4.000000e+001 -4.202127e-006
      vertex   -2.880000e+001 4.000000e+001 1.299996e+000
      vertex   -2.880000e+001 3.840000e+001 -4.202127e-006
    endloop
  endfacet
  facet normal 1.000000e+000 0.000000e+000 -0.000000e+000
    outer loop
      vertex   -2.880000e+001 3.840000e+001 -4.202127e-006
      vertex   -2.880000e+001 4.000000e+001 1.299996e+000
      vertex   -2.880000e+001 3.840000e+001 1.299996e+000
    endloop
  endfacet
  facet normal 0.000000e+000 -0.000000e+000 -1.000000e+000
    outer loop
      vertex   -2.880000e+001 4.000000e+001 1.299996e+000
      vertex   -2.750000e+001 4.000000e+001 1.299996e+000
      vertex   -2.880000e+001 3.840000e+001 1.299996e+000
    endloop
  endfacet
  facet normal 0.000000e+000 0.000000e+000 -1.000000e+000
    outer loop
      vertex   -2.880000e+001 3.840000e+001 1.299996e+000
      vertex   -2.750000e+001 4.000000e+001 1.299996e+000
      vertex   -2.750000e+001 3.840000e+001 1.299996e+000
    endloop
  endfacet
  facet normal -1.000000e+000 -0.000000e+000 -0.000000e+000
    outer loop
      vertex   -2.750000e+001 4.000000e+001 1.299996e+000
      vertex   -2.750000e+001 4.000000e+001 -4.202127e-006
      vertex   -2.750000e+001 3.840000e+001 1.299996e+000
    endloop
  endfacet
  facet normal -1.000000e+000 -0.000000e+000 -0.000000e+000
    outer loop
      vertex   -2.750000e+001 3.840000e+001 1.299996e+000
      vertex   -2.750000e+001 4.000000e+001 -4.202127e-006
      vertex   -2.750000e+001 3.840000e+001 -4.202127e-006
    endloop
  endfacet
  facet normal 0.000000e+000 1.000000e+000 -0.000000e+000
    outer loop
      vertex   -2.750000e+001 3.840000e+001 -4.202127e-006
      vertex   -2.880000e+001 3.840000e+001 -4.202127e-006
      vertex   -2.750000e+001 3.840000e+001 1.299996e+000
    endloop
  endfacet
  facet normal 0.000000e+000 1.000000e+000 -0.000000e+000
    outer loop
      vertex   -2.750000e+001 3.840000e+001 1.299996e+000
      vertex   -2.880000e+001 3.840000e+001 -4.202127e-006
      vertex   -2.880000e+001 3.840000e+001 1.299996e+000
    endloop
  endfacet
  facet normal 0.000000e+000 -0.000000e+000 1.000000e+000
    outer loop
      vertex   -2.880000e+001 3.800000e+001 6.990000e+001
      vertex   -2.750000e+001 3.800000e+001 6.990000e+001
      vertex   -2.880000e+001 4.000000e+001 6.990000e+001
    endloop
  endfacet
  facet normal -0.000000e+000 0.000000e+000 1.000000e+000
    outer loop
      vertex   -2.880000e+001 4.000000e+001 6.990000e+001
      vertex   -2.750000e+001 3.800000e+001 6.990000e+001
      vertex   -2.750000e+001 4.000000e+001 6.990000e+001
    endloop
  endfacet
  facet normal 1.000000e+000 0.000000e+000 1.776360e-014
    outer loop
      vertex   -2.880000e+001 4.010000e+001 7.219999e+001
      vertex   -2.880000e+001 3.800000e+001 7.219999e+001
      vertex   -2.880000e+001 4.000000e+001 7.120000e+001
    endloop
  endfacet
  facet normal 1.000000e+000 1.776312e-013 -0.000000e+000
    outer loop
      vertex   -2.880000e+001 4.010000e+001 7.119999e+001
      vertex   -2.880000e+001 4.010000e+001 7.219999e+001
      vertex   -2.880000e+001 4.000000e+001 7.120000e+001
    endloop
  endfacet
  facet normal 1.000000e+000 0.000000e+000 -0.000000e+000
    outer loop
      vertex   -2.880000e+001 4.000000e+001 6.990000e+001
      vertex   -2.880000e+001 4.000000e+001 7.120000e+001
      vertex   -2.880000e+001 3.800000e+001 6.990000e+001
    endloop
  endfacet
  facet normal 1.000000e+000 -5.020149e-015 7.723296e-015
    outer loop
      vertex   -2.880000e+001 3.800000e+001 6.990000e+001
      vertex   -2.880000e+001 4.000000e+001 7.120000e+001
      vertex   -2.880000e+001 3.800000e+001 7.219999e+001
    endloop
  endfacet
  facet normal -1.000000e+000 0.000000e+000 0.000000e+000
    outer loop
      vertex   -2.750000e+001 3.800000e+001 6.990000e+001
      vertex   -2.750000e+001 3.800000e+001 7.220000e+001
      vertex   -2.750000e+001 4.000000e+001 6.990000e+001
    endloop
  endfacet
  facet normal -1.000000e+000 0.000000e+000 0.000000e+000
    outer loop
      vertex   -2.750000e+001 4.000000e+001 6.990000e+001
      vertex   -2.750000e+001 3.800000e+001 7.220000e+001
      vertex   -2.750000e+001 4.000000e+001 7.220000e+001
    endloop
  endfacet
  facet normal 0.000000e+000 -1.000000e+000 0.000000e+000
    outer loop
      vertex   -2.750000e+001 3.800000e+001 7.220000e+001
      vertex   -2.750000e+001 3.800000e+001 6.990000e+001
      vertex   -2.700000e+001 3.800000e+001 7.220000e+001
    endloop
  endfacet
  facet normal 0.000000e+000 -1.000000e+000 -0.000000e+000
    outer loop
      vertex   -2.700000e+001 3.800000e+001 7.220000e+001
      vertex   -2.750000e+001 3.800000e+001 6.990000e+001
      vertex   -2.700000e+001 3.800000e+001 3.710000e+001
    endloop
  endfacet
  facet normal 0.000000e+000 -1.000000e+000 0.000000e+000
    outer loop
      vertex   -2.700000e+001 3.800000e+001 3.710000e+001
      vertex   -2.750000e+001 3.800000e+001 6.990000e+001
      vertex   -2.880000e+001 3.800000e+001 6.990000e+001
    endloop
  endfacet
  facet normal 0.000000e+000 -1.000000e+000 0.000000e+000
    outer loop
      vertex   -3.100000e+001 3.800000e+001 3.710000e+001
      vertex   -2.880000e+001 3.800000e+001 6.990000e+001
      vertex   -3.100000e+001 3.800000e+001 7.219999e+001
    endloop
  endfacet
  facet normal 0.000000e+000 -1.000000e+000 0.000000e+000
    outer loop
      vertex   -3.100000e+001 3.800000e+001 3.710000e+001
      vertex   -2.700000e+001 3.800000e+001 3.710000e+001
      vertex   -2.880000e+001 3.800000e+001 6.990000e+001
    endloop
  endfacet
  facet normal 0.000000e+000 -1.000000e+000 0.000000e+000
    outer loop
      vertex   -3.100000e+001 3.800000e+001 3.710000e+001
      vertex   -3.100000e+001 3.800000e+001 2.000000e+000
      vertex   -2.700000e+001 3.800000e+001 3.710000e+001
    endloop
  endfacet
  facet normal 0.000000e+000 -1.000000e+000 -0.000000e+000
    outer loop
      vertex   -2.700000e+001 3.800000e+001 3.710000e+001
      vertex   -3.100000e+001 3.800000e+001 2.000000e+000
      vertex   -2.700000e+001 3.800000e+001 2.000000e+000
    endloop
  endfacet
  facet normal 0.000000e+000 -1.000000e+000 0.000000e+000
    outer loop
      vertex   -2.880000e+001 3.800000e+001 6.990000e+001
      vertex   -2.880000e+001 3.800000e+001 7.219999e+001
      vertex   -3.100000e+001 3.800000e+001 7.219999e+001
    endloop
  endfacet
  facet normal 0.000000e+000 0.000000e+000 1.000000e+000
    outer loop
      vertex   -1.565000e+002 4.000000e+001 7.220000e+001
      vertex   -1.570000e+002 4.000000e+001 7.220000e+001
      vertex   -1.565000e+002 3.800000e+001 7.220000e+001
    endloop
  endfacet
  facet normal 0.000000e+000 0.000000e+000 1.000000e+000
    outer loop
      vertex   -1.565000e+002 3.800000e+001 7.220000e+001
      vertex   -1.570000e+002 4.000000e+001 7.220000e+001
      vertex   -1.570000e+002 3.800000e+001 7.220000e+001
    endloop
  endfacet
  facet normal 0.000000e+000 -0.000000e+000 1.000000e+000
    outer loop
      vertex   -1.570000e+002 3.800000e+001 7.220000e+001
      vertex   -1.570000e+002 4.000000e+001 7.220000e+001
      vertex   -1.590000e+002 4.000000e+001 7.220000e+001
    endloop
  endfacet
  facet normal 0.000000e+000 -0.000000e+000 1.000000e+000
    outer loop
      vertex   -1.590000e+002 2.530000e+001 7.220000e+001
      vertex   -1.570000e+002 3.800000e+001 7.220000e+001
      vertex   -1.590000e+002 4.000000e+001 7.220000e+001
    endloop
  endfacet
  facet normal 0.000000e+000 0.000000e+000 1.000000e+000
    outer loop
      vertex   -1.590000e+002 2.530000e+001 7.220000e+001
      vertex   -1.570000e+002 2.630000e+001 7.220000e+001
      vertex   -1.570000e+002 3.800000e+001 7.220000e+001
    endloop
  endfacet
  facet normal -0.000000e+000 0.000000e+000 1.000000e+000
    outer loop
      vertex   -1.590000e+002 2.530000e+001 7.220000e+001
      vertex   -1.580000e+002 2.430000e+001 7.220000e+001
      vertex   -1.570000e+002 2.630000e+001 7.220000e+001
    endloop
  endfacet
  facet normal 0.000000e+000 0.000000e+000 1.000000e+000
    outer loop
      vertex   -1.570000e+002 2.630000e+001 7.220000e+001
      vertex   -1.580000e+002 2.430000e+001 7.220000e+001
      vertex   -1.530000e+002 2.430000e+001 7.220000e+001
    endloop
  endfacet
  facet normal 0.000000e+000 0.000000e+000 1.000000e+000
    outer loop
      vertex   -1.530000e+002 2.630000e+001 7.220000e+001
      vertex   -1.570000e+002 2.630000e+001 7.220000e+001
      vertex   -1.530000e+002 2.430000e+001 7.220000e+001
    endloop
  endfacet
  facet normal 0.000000e+000 0.000000e+000 1.000000e+000
    outer loop
      vertex   -1.570000e+002 4.000000e+001 7.220000e+001
      vertex   -1.590000e+002 4.600000e+001 7.220000e+001
      vertex   -1.590000e+002 4.000000e+001 7.220000e+001
    endloop
  endfacet
  facet normal 0.000000e+000 -0.000000e+000 1.000000e+000
    outer loop
      vertex   -1.590000e+002 4.000000e+001 7.220000e+001
      vertex   -1.590000e+002 4.600000e+001 7.220000e+001
      vertex   -1.610000e+002 4.600000e+001 7.220000e+001
    endloop
  endfacet
  facet normal 1.000000e+000 0.000000e+000 0.000000e+000
    outer loop
      vertex   -1.565000e+002 4.000000e+001 7.220000e+001
      vertex   -1.565000e+002 3.800000e+001 7.220000e+001
      vertex   -1.565000e+002 4.000000e+001 6.990000e+001
    endloop
  endfacet
  facet normal 1.000000e+000 0.000000e+000 0.000000e+000
    outer loop
      vertex   -1.565000e+002 4.000000e+001 6.990000e+001
      vertex   -1.565000e+002 3.800000e+001 7.220000e+001
      vertex   -1.565000e+002 3.800000e+001 6.990000e+001
    endloop
  endfacet
  facet normal -1.000000e+000 0.000000e+000 0.000000e+000
    outer loop
      vertex   -1.552000e+002 4.000000e+001 6.990000e+001
      vertex   -1.552000e+002 3.800000e+001 6.990000e+001
      vertex   -1.552000e+002 4.000000e+001 7.120000e+001
    endloop
  endfacet
  facet normal -1.000000e+000 -0.000000e+000 0.000000e+000
    outer loop
      vertex   -1.552000e+002 4.000000e+001 7.120000e+001
      vertex   -1.552000e+002 3.800000e+001 6.990000e+001
      vertex   -1.552000e+002 3.800000e+001 7.219999e+001
    endloop
  endfacet
  facet normal -1.000000e+000 -0.000000e+000 0.000000e+000
    outer loop
      vertex   -1.552000e+002 4.010000e+001 7.219999e+001
      vertex   -1.552000e+002 4.000000e+001 7.120000e+001
      vertex   -1.552000e+002 3.800000e+001 7.219999e+001
    endloop
  endfacet
  facet normal -1.000000e+000 -0.000000e+000 -0.000000e+000
    outer loop
      vertex   -1.552000e+002 4.010000e+001 7.219999e+001
      vertex   -1.552000e+002 4.010000e+001 7.119999e+001
      vertex   -1.552000e+002 4.000000e+001 7.120000e+001
    endloop
  endfacet
  facet normal 0.000000e+000 0.000000e+000 1.000000e+000
    outer loop
      vertex   -1.552000e+002 4.000000e+001 6.990000e+001
      vertex   -1.565000e+002 4.000000e+001 6.990000e+001
      vertex   -1.552000e+002 3.800000e+001 6.990000e+001
    endloop
  endfacet
  facet normal 0.000000e+000 0.000000e+000 1.000000e+000
    outer loop
      vertex   -1.552000e+002 3.800000e+001 6.990000e+001
      vertex   -1.565000e+002 4.000000e+001 6.990000e+001
      vertex   -1.565000e+002 3.800000e+001 6.990000e+001
    endloop
  endfacet
  facet normal 1.000000e+000 0.000000e+000 -0.000000e+000
    outer loop
      vertex   -1.565000e+002 4.000000e+001 -4.202127e-006
      vertex   -1.565000e+002 4.000000e+001 1.299996e+000
      vertex   -1.565000e+002 3.840000e+001 -4.202127e-006
    endloop
  endfacet
  facet normal 1.000000e+000 0.000000e+000 -0.000000e+000
    outer loop
      vertex   -1.565000e+002 3.840000e+001 -4.202127e-006
      vertex   -1.565000e+002 4.000000e+001 1.299996e+000
      vertex   -1.565000e+002 3.840000e+001 1.299996e+000
    endloop
  endfacet
  facet normal 0.000000e+000 -0.000000e+000 -1.000000e+000
    outer loop
      vertex   -1.565000e+002 4.000000e+001 1.299996e+000
      vertex   -1.552000e+002 4.000000e+001 1.299996e+000
      vertex   -1.565000e+002 3.840000e+001 1.299996e+000
    endloop
  endfacet
  facet normal 0.000000e+000 0.000000e+000 -1.000000e+000
    outer loop
      vertex   -1.565000e+002 3.840000e+001 1.299996e+000
      vertex   -1.552000e+002 4.000000e+001 1.299996e+000
      vertex   -1.552000e+002 3.840000e+001 1.299996e+000
    endloop
  endfacet
  facet normal -1.000000e+000 -0.000000e+000 -0.000000e+000
    outer loop
      vertex   -1.552000e+002 4.000000e+001 1.299996e+000
      vertex   -1.552000e+002 4.000000e+001 -4.202127e-006
      vertex   -1.552000e+002 3.840000e+001 1.299996e+000
    endloop
  endfacet
  facet normal -1.000000e+000 -0.000000e+000 -0.000000e+000
    outer loop
      vertex   -1.552000e+002 3.840000e+001 1.299996e+000
      vertex   -1.552000e+002 4.000000e+001 -4.202127e-006
      vertex   -1.552000e+002 3.840000e+001 -4.202127e-006
    endloop
  endfacet
  facet normal 0.000000e+000 1.000000e+000 -0.000000e+000
    outer loop
      vertex   -1.552000e+002 3.840000e+001 -4.202127e-006
      vertex   -1.565000e+002 3.840000e+001 -4.202127e-006
      vertex   -1.552000e+002 3.840000e+001 1.299996e+000
    endloop
  endfacet
  facet normal 0.000000e+000 1.000000e+000 -0.000000e+000
    outer loop
      vertex   -1.552000e+002 3.840000e+001 1.299996e+000
      vertex   -1.565000e+002 3.840000e+001 -4.202127e-006
      vertex   -1.565000e+002 3.840000e+001 1.299996e+000
    endloop
  endfacet
  facet normal 0.000000e+000 -1.000000e+000 0.000000e+000
    outer loop
      vertex   -1.420000e+002 3.710000e+001 -9.159340e-015
      vertex   -1.000000e+002 3.710000e+001 -9.159340e-015
      vertex   -1.420000e+002 3.710000e+001 2.000000e+000
    endloop
  endfacet
  facet normal 0.000000e+000 -1.000000e+000 0.000000e+000
    outer loop
      vertex   -1.420000e+002 3.710000e+001 2.000000e+000
      vertex   -1.000000e+002 3.710000e+001 -9.159340e-015
      vertex   -1.000000e+002 3.710000e+001 2.000000e+000
    endloop
  endfacet
  facet normal 1.000000e+000 0.000000e+000 -0.000000e+000
    outer loop
      vertex   -1.420000e+002 2.710000e+001 -9.159340e-015
      vertex   -1.420000e+002 3.710000e+001 -9.159340e-015
      vertex   -1.420000e+002 2.710000e+001 2.000000e+000
    endloop
  endfacet
  facet normal 1.000000e+000 -0.000000e+000 0.000000e+000
    outer loop
      vertex   -1.420000e+002 2.710000e+001 2.000000e+000
      vertex   -1.420000e+002 3.710000e+001 -9.159340e-015
      vertex   -1.420000e+002 3.710000e+001 2.000000e+000
    endloop
  endfacet
  facet normal 0.000000e+000 1.000000e+000 -0.000000e+000
    outer loop
      vertex   -1.000000e+002 2.710000e+001 -9.159340e-015
      vertex   -1.420000e+002 2.710000e+001 -9.159340e-015
      vertex   -1.000000e+002 2.710000e+001 2.000000e+000
    endloop
  endfacet
  facet normal 0.000000e+000 1.000000e+000 -0.000000e+000
    outer loop
      vertex   -1.000000e+002 2.710000e+001 2.000000e+000
      vertex   -1.420000e+002 2.710000e+001 -9.159340e-015
      vertex   -1.420000e+002 2.710000e+001 2.000000e+000
    endloop
  endfacet
  facet normal -1.000000e+000 0.000000e+000 0.000000e+000
    outer loop
      vertex   -1.000000e+002 3.710000e+001 -9.159340e-015
      vertex   -1.000000e+002 2.710000e+001 -9.159340e-015
      vertex   -1.000000e+002 3.710000e+001 2.000000e+000
    endloop
  endfacet
  facet normal -1.000000e+000 -0.000000e+000 0.000000e+000
    outer loop
      vertex   -1.000000e+002 3.710000e+001 2.000000e+000
      vertex   -1.000000e+002 2.710000e+001 -9.159340e-015
      vertex   -1.000000e+002 2.710000e+001 2.000000e+000
    endloop
  endfacet
  facet normal 0.000000e+000 -1.000000e+000 0.000000e+000
    outer loop
      vertex   -8.400000e+001 3.710000e+001 -9.159340e-015
      vertex   -4.200000e+001 3.710000e+001 -9.159340e-015
      vertex   -8.400000e+001 3.710000e+001 2.000000e+000
    endloop
  endfacet
  facet normal 0.000000e+000 -1.000000e+000 0.000000e+000
    outer loop
      vertex   -8.400000e+001 3.710000e+001 2.000000e+000
      vertex   -4.200000e+001 3.710000e+001 -9.159340e-015
      vertex   -4.200000e+001 3.710000e+001 2.000000e+000
    endloop
  endfacet
  facet normal 1.000000e+000 0.000000e+000 -0.000000e+000
    outer loop
      vertex   -8.400000e+001 2.710000e+001 -9.159340e-015
      vertex   -8.400000e+001 3.710000e+001 -9.159340e-015
      vertex   -8.400000e+001 2.710000e+001 2.000000e+000
    endloop
  endfacet
  facet normal 1.000000e+000 -0.000000e+000 0.000000e+000
    outer loop
      vertex   -8.400000e+001 2.710000e+001 2.000000e+000
      vertex   -8.400000e+001 3.710000e+001 -9.159340e-015
      vertex   -8.400000e+001 3.710000e+001 2.000000e+000
    endloop
  endfacet
  facet normal 0.000000e+000 1.000000e+000 -0.000000e+000
    outer loop
      vertex   -4.200000e+001 2.710000e+001 -9.159340e-015
      vertex   -8.400000e+001 2.710000e+001 -9.159340e-015
      vertex   -4.200000e+001 2.710000e+001 2.000000e+000
    endloop
  endfacet
  facet normal 0.000000e+000 1.000000e+000 -0.000000e+000
    outer loop
      vertex   -4.200000e+001 2.710000e+001 2.000000e+000
      vertex   -8.400000e+001 2.710000e+001 -9.159340e-015
      vertex   -8.400000e+001 2.710000e+001 2.000000e+000
    endloop
  endfacet
  facet normal -1.000000e+000 0.000000e+000 0.000000e+000
    outer loop
      vertex   -4.200000e+001 3.710000e+001 -9.159340e-015
      vertex   -4.200000e+001 2.710000e+001 -9.159340e-015
      vertex   -4.200000e+001 3.710000e+001 2.000000e+000
    endloop
  endfacet
  facet normal -1.000000e+000 -0.000000e+000 0.000000e+000
    outer loop
      vertex   -4.200000e+001 3.710000e+001 2.000000e+000
      vertex   -4.200000e+001 2.710000e+001 -9.159340e-015
      vertex   -4.200000e+001 2.710000e+001 2.000000e+000
    endloop
  endfacet
  facet normal 7.071068e-001 -7.071068e-001 0.000000e+000
    outer loop
      vertex   -2.600000e+001 2.430000e+001 7.220000e+001
      vertex   -2.600000e+001 2.430000e+001 3.610000e+001
      vertex   -2.500000e+001 2.530000e+001 7.220000e+001
    endloop
  endfacet
  facet normal 7.071068e-001 -7.071068e-001 0.000000e+000
    outer loop
      vertex   -2.500000e+001 2.530000e+001 7.220000e+001
      vertex   -2.600000e+001 2.430000e+001 3.610000e+001
      vertex   -2.500000e+001 2.530000e+001 3.610000e+001
    endloop
  endfacet
  facet normal 7.071068e-001 -7.071068e-001 0.000000e+000
    outer loop
      vertex   -2.500000e+001 2.530000e+001 3.610000e+001
      vertex   -2.600000e+001 2.430000e+001 3.610000e+001
      vertex   -2.600000e+001 2.430000e+001 -2.045160e-015
    endloop
  endfacet
  facet normal 7.071068e-001 -7.071068e-001 0.000000e+000
    outer loop
      vertex   -2.500000e+001 2.530000e+001 -1.800231e-015
      vertex   -2.500000e+001 2.530000e+001 3.610000e+001
      vertex   -2.600000e+001 2.430000e+001 -2.045160e-015
    endloop
  endfacet
  facet normal 1.386898e-022 -1.000000e+000 -1.132488e-006
    outer loop
      vertex   -7.000000e+001 2.430000e+001 -7.433606e-015
      vertex   -2.600000e+001 2.430000e+001 -2.045160e-015
      vertex   -3.100000e+001 2.430000e+001 2.000000e+000
    endloop
  endfacet
  facet normal -5.569614e-008 -1.000000e+000 -4.641340e-008
    outer loop
      vertex   -7.166666e+001 2.430000e+001 2.000000e+000
      vertex   -7.000000e+001 2.430000e+001 -7.433606e-015
      vertex   -3.100000e+001 2.430000e+001 2.000000e+000
    endloop
  endfacet
  facet normal 0.000000e+000 -1.000000e+000 -0.000000e+000
    outer loop
      vertex   -7.166666e+001 2.430000e+001 2.000000e+000
      vertex   -1.123333e+002 2.430000e+001 2.000000e+000
      vertex   -7.000000e+001 2.430000e+001 -7.433606e-015
    endloop
  endfacet
  facet normal -0.000000e+000 -1.000000e+000 0.000000e+000
    outer loop
      vertex   -7.000000e+001 2.430000e+001 -7.433606e-015
      vertex   -1.123333e+002 2.430000e+001 2.000000e+000
      vertex   -1.140000e+002 2.430000e+001 -1.282205e-014
    endloop
  endfacet
  facet normal 5.569614e-008 -1.000000e+000 -4.641350e-008
    outer loop
      vertex   -1.140000e+002 2.430000e+001 -1.282205e-014
      vertex   -1.123333e+002 2.430000e+001 2.000000e+000
      vertex   -1.530000e+002 2.430000e+001 2.000000e+000
    endloop
  endfacet
  facet normal -4.529952e-007 -1.000000e+000 0.000000e+000
    outer loop
      vertex   -1.580000e+002 2.430000e+001 -1.821050e-014
      vertex   -1.530000e+002 2.430000e+001 2.000000e+000
      vertex   -1.580000e+002 2.430000e+001 3.610000e+001
    endloop
  endfacet
  facet normal 1.386898e-022 -1.000000e+000 -1.132488e-006
    outer loop
      vertex   -1.580000e+002 2.430000e+001 -1.821050e-014
      vertex   -1.140000e+002 2.430000e+001 -1.282205e-014
      vertex   -1.530000e+002 2.430000e+001 2.000000e+000
    endloop
  endfacet
  facet normal 4.529955e-007 -1.000000e+000 0.000000e+000
    outer loop
      vertex   -2.600000e+001 2.430000e+001 7.220000e+001
      vertex   -3.100000e+001 2.430000e+001 3.710000e+001
      vertex   -2.600000e+001 2.430000e+001 3.610000e+001
    endloop
  endfacet
  facet normal 4.529955e-007 -1.000000e+000 0.000000e+000
    outer loop
      vertex   -2.600000e+001 2.430000e+001 7.220000e+001
      vertex   -3.100000e+001 2.430000e+001 7.220000e+001
      vertex   -3.100000e+001 2.430000e+001 3.710000e+001
    endloop
  endfacet
  facet normal 4.529955e-007 -1.000000e+000 0.000000e+000
    outer loop
      vertex   -3.100000e+001 2.430000e+001 3.710000e+001
      vertex   -3.100000e+001 2.430000e+001 2.000000e+000
      vertex   -2.600000e+001 2.430000e+001 3.610000e+001
    endloop
  endfacet
  facet normal 4.529955e-007 -1.000000e+000 0.000000e+000
    outer loop
      vertex   -2.600000e+001 2.430000e+001 3.610000e+001
      vertex   -3.100000e+001 2.430000e+001 2.000000e+000
      vertex   -2.600000e+001 2.430000e+001 -2.045160e-015
    endloop
  endfacet
  facet normal -4.529952e-007 -1.000000e+000 0.000000e+000
    outer loop
      vertex   -1.530000e+002 2.430000e+001 2.000000e+000
      vertex   -1.530000e+002 2.430000e+001 3.710000e+001
      vertex   -1.580000e+002 2.430000e+001 3.610000e+001
    endloop
  endfacet
  facet normal -4.529952e-007 -1.000000e+000 0.000000e+000
    outer loop
      vertex   -1.580000e+002 2.430000e+001 3.610000e+001
      vertex   -1.530000e+002 2.430000e+001 3.710000e+001
      vertex   -1.580000e+002 2.430000e+001 7.220000e+001
    endloop
  endfacet
  facet normal -4.529952e-007 -1.000000e+000 0.000000e+000
    outer loop
      vertex   -1.580000e+002 2.430000e+001 7.220000e+001
      vertex   -1.530000e+002 2.430000e+001 3.710000e+001
      vertex   -1.530000e+002 2.430000e+001 7.220000e+001
    endloop
  endfacet
  facet normal -7.071068e-001 -7.071068e-001 -0.000000e+000
    outer loop
      vertex   -1.590000e+002 2.530000e+001 7.220000e+001
      vertex   -1.590000e+002 2.530000e+001 3.610000e+001
      vertex   -1.580000e+002 2.430000e+001 7.220000e+001
    endloop
  endfacet
  facet normal -7.071068e-001 -7.071068e-001 0.000000e+000
    outer loop
      vertex   -1.580000e+002 2.430000e+001 7.220000e+001
      vertex   -1.590000e+002 2.530000e+001 3.610000e+001
      vertex   -1.580000e+002 2.430000e+001 3.610000e+001
    endloop
  endfacet
  facet normal -7.071068e-001 -7.071068e-001 -0.000000e+000
    outer loop
      vertex   -1.580000e+002 2.430000e+001 3.610000e+001
      vertex   -1.590000e+002 2.530000e+001 3.610000e+001
      vertex   -1.590000e+002 2.530000e+001 -1.833296e-014
    endloop
  endfacet
  facet normal -7.071068e-001 -7.071068e-001 0.000000e+000
    outer loop
      vertex   -1.580000e+002 2.430000e+001 -1.821050e-014
      vertex   -1.580000e+002 2.430000e+001 3.610000e+001
      vertex   -1.590000e+002 2.530000e+001 -1.833296e-014
    endloop
  endfacet
  facet normal -0.000000e+000 -1.000000e+000 -0.000000e+000
    outer loop
      vertex   -1.565000e+002 3.800000e+001 7.220000e+001
      vertex   -1.570000e+002 3.800000e+001 7.220000e+001
      vertex   -1.565000e+002 3.800000e+001 6.990000e+001
    endloop
  endfacet
  facet normal -0.000000e+000 -1.000000e+000 -0.000000e+000
    outer loop
      vertex   -1.565000e+002 3.800000e+001 6.990000e+001
      vertex   -1.570000e+002 3.800000e+001 7.220000e+001
      vertex   -1.570000e+002 3.800000e+001 3.710000e+001
    endloop
  endfacet
  facet normal 0.000000e+000 -1.000000e+000 -0.000000e+000
    outer loop
      vertex   -1.552000e+002 3.800000e+001 6.990000e+001
      vertex   -1.570000e+002 3.800000e+001 3.710000e+001
      vertex   -1.530000e+002 3.800000e+001 3.710000e+001
    endloop
  endfacet
  facet normal 0.000000e+000 -1.000000e+000 -0.000000e+000
    outer loop
      vertex   -1.530000e+002 3.800000e+001 7.219999e+001
      vertex   -1.552000e+002 3.800000e+001 6.990000e+001
      vertex   -1.530000e+002 3.800000e+001 3.710000e+001
    endloop
  endfacet
  facet normal -0.000000e+000 -1.000000e+000 -0.000000e+000
    outer loop
      vertex   -1.530000e+002 3.800000e+001 7.219999e+001
      vertex   -1.552000e+002 3.800000e+001 7.219999e+001
      vertex   -1.552000e+002 3.800000e+001 6.990000e+001
    endloop
  endfacet
  facet normal 0.000000e+000 -1.000000e+000 0.000000e+000
    outer loop
      vertex   -1.570000e+002 3.800000e+001 3.710000e+001
      vertex   -1.570000e+002 3.800000e+001 2.000000e+000
      vertex   -1.530000e+002 3.800000e+001 3.710000e+001
    endloop
  endfacet
  facet normal 0.000000e+000 -1.000000e+000 -0.000000e+000
    outer loop
      vertex   -1.530000e+002 3.800000e+001 3.710000e+001
      vertex   -1.570000e+002 3.800000e+001 2.000000e+000
      vertex   -1.530000e+002 3.800000e+001 2.000000e+000
    endloop
  endfacet
  facet normal -0.000000e+000 -1.000000e+000 0.000000e+000
    outer loop
      vertex   -1.552000e+002 3.800000e+001 6.990000e+001
      vertex   -1.565000e+002 3.800000e+001 6.990000e+001
      vertex   -1.570000e+002 3.800000e+001 3.710000e+001
    endloop
  endfacet
  facet normal 1.000000e+000 0.000000e+000 -0.000000e+000
    outer loop
      vertex   -1.530000e+002 4.000000e+001 2.000000e+000
      vertex   -1.530000e+002 4.000000e+001 3.660000e+001
      vertex   -1.530000e+002 3.800000e+001 2.000000e+000
    endloop
  endfacet
  facet normal 1.000000e+000 1.468888e-008 -8.490683e-010
    outer loop
      vertex   -1.530000e+002 3.800000e+001 2.000000e+000
      vertex   -1.530000e+002 4.000000e+001 3.660000e+001
      vertex   -1.530000e+002 3.800000e+001 3.710000e+001
    endloop
  endfacet
  facet normal 1.000000e+000 1.490115e-008 -0.000000e+000
    outer loop
      vertex   -1.530000e+002 3.800000e+001 3.710000e+001
      vertex   -1.530000e+002 4.000000e+001 3.660000e+001
      vertex   -1.530000e+002 4.000000e+001 7.120000e+001
    endloop
  endfacet
  facet normal 1.000000e+000 0.000000e+000 -2.980247e-008
    outer loop
      vertex   -1.530000e+002 3.800000e+001 7.219999e+001
      vertex   -1.530000e+002 4.000000e+001 7.120000e+001
      vertex   -1.530000e+002 4.010000e+001 7.219999e+001
    endloop
  endfacet
  facet normal 1.000000e+000 1.490115e-008 0.000000e+000
    outer loop
      vertex   -1.530000e+002 3.800000e+001 7.219999e+001
      vertex   -1.530000e+002 3.800000e+001 3.710000e+001
      vertex   -1.530000e+002 4.000000e+001 7.120000e+001
    endloop
  endfacet
  facet normal 1.000000e+000 -2.980226e-007 0.000000e+000
    outer loop
      vertex   -1.530000e+002 4.000000e+001 7.120000e+001
      vertex   -1.530000e+002 4.010000e+001 7.119999e+001
      vertex   -1.530000e+002 4.010000e+001 7.219999e+001
    endloop
  endfacet
  facet normal -1.268826e-016 -1.064370e-008 1.000000e+000
    outer loop
      vertex   -1.420000e+002 2.710000e+001 2.000000e+000
      vertex   -1.123333e+002 2.430000e+001 2.000000e+000
      vertex   -1.000000e+002 2.710000e+001 2.000000e+000
    endloop
  endfacet
  facet normal 7.328445e-010 -2.879035e-009 1.000000e+000
    outer loop
      vertex   -1.420000e+002 2.710000e+001 2.000000e+000
      vertex   -1.530000e+002 2.430000e+001 2.000000e+000
      vertex   -1.123333e+002 2.430000e+001 2.000000e+000
    endloop
  endfacet
  facet normal -9.285502e-016 0.000000e+000 1.000000e+000
    outer loop
      vertex   -1.420000e+002 2.710000e+001 2.000000e+000
      vertex   -1.530000e+002 2.630000e+001 2.000000e+000
      vertex   -1.530000e+002 2.430000e+001 2.000000e+000
    endloop
  endfacet
  facet normal -1.028672e-015 1.376677e-015 1.000000e+000
    outer loop
      vertex   -1.420000e+002 2.710000e+001 2.000000e+000
      vertex   -1.420000e+002 3.710000e+001 2.000000e+000
      vertex   -1.530000e+002 2.630000e+001 2.000000e+000
    endloop
  endfacet
  facet normal 3.229740e-016 0.000000e+000 1.000000e+000
    outer loop
      vertex   -1.530000e+002 2.630000e+001 2.000000e+000
      vertex   -1.420000e+002 3.710000e+001 2.000000e+000
      vertex   -1.530000e+002 3.800000e+001 2.000000e+000
    endloop
  endfacet
  facet normal 0.000000e+000 -0.000000e+000 1.000000e+000
    outer loop
      vertex   -1.570000e+002 2.630000e+001 2.000000e+000
      vertex   -1.530000e+002 3.800000e+001 2.000000e+000
      vertex   -1.570000e+002 3.800000e+001 2.000000e+000
    endloop
  endfacet
  facet normal 0.000000e+000 0.000000e+000 1.000000e+000
    outer loop
      vertex   -1.570000e+002 2.630000e+001 2.000000e+000
      vertex   -1.530000e+002 2.630000e+001 2.000000e+000
      vertex   -1.530000e+002 3.800000e+001 2.000000e+000
    endloop
  endfacet
  facet normal -2.431917e-016 3.311371e-008 1.000000e+000
    outer loop
      vertex   -1.000000e+002 3.710000e+001 2.000000e+000
      vertex   -1.136667e+002 3.800000e+001 2.000000e+000
      vertex   -1.420000e+002 3.710000e+001 2.000000e+000
    endloop
  endfacet
  facet normal -2.088949e-009 1.392633e-009 1.000000e+000
    outer loop
      vertex   -1.000000e+002 3.710000e+001 2.000000e+000
      vertex   -1.123333e+002 4.000000e+001 2.000000e+000
      vertex   -1.136667e+002 3.800000e+001 2.000000e+000
    endloop
  endfacet
  facet normal 1.942890e-016 1.027666e-008 1.000000e+000
    outer loop
      vertex   -1.000000e+002 3.710000e+001 2.000000e+000
      vertex   -8.400000e+001 3.710000e+001 2.000000e+000
      vertex   -1.123333e+002 4.000000e+001 2.000000e+000
    endloop
  endfacet
  facet normal 1.942890e-016 1.376677e-015 1.000000e+000
    outer loop
      vertex   -1.000000e+002 3.710000e+001 2.000000e+000
      vertex   -8.400000e+001 2.710000e+001 2.000000e+000
      vertex   -8.400000e+001 3.710000e+001 2.000000e+000
    endloop
  endfacet
  facet normal -1.110223e-016 8.881784e-016 1.000000e+000
    outer loop
      vertex   -1.000000e+002 3.710000e+001 2.000000e+000
      vertex   -1.000000e+002 2.710000e+001 2.000000e+000
      vertex   -8.400000e+001 2.710000e+001 2.000000e+000
    endloop
  endfacet
  facet normal -1.110223e-016 -1.064370e-008 1.000000e+000
    outer loop
      vertex   -8.400000e+001 2.710000e+001 2.000000e+000
      vertex   -1.000000e+002 2.710000e+001 2.000000e+000
      vertex   -1.123333e+002 2.430000e+001 2.000000e+000
    endloop
  endfacet
  facet normal -1.201225e-016 -1.064370e-008 1.000000e+000
    outer loop
      vertex   -7.166666e+001 2.430000e+001 2.000000e+000
      vertex   -8.400000e+001 2.710000e+001 2.000000e+000
      vertex   -1.123333e+002 2.430000e+001 2.000000e+000
    endloop
  endfacet
  facet normal -1.268826e-016 -1.064370e-008 1.000000e+000
    outer loop
      vertex   -7.166666e+001 2.430000e+001 2.000000e+000
      vertex   -4.200000e+001 2.710000e+001 2.000000e+000
      vertex   -8.400000e+001 2.710000e+001 2.000000e+000
    endloop
  endfacet
  facet normal -7.328443e-010 -2.879039e-009 1.000000e+000
    outer loop
      vertex   -7.166666e+001 2.430000e+001 2.000000e+000
      vertex   -3.100000e+001 2.430000e+001 2.000000e+000
      vertex   -4.200000e+001 2.710000e+001 2.000000e+000
    endloop
  endfacet
  facet normal 2.058959e-015 -0.000000e+000 1.000000e+000
    outer loop
      vertex   -4.200000e+001 2.710000e+001 2.000000e+000
      vertex   -3.100000e+001 2.430000e+001 2.000000e+000
      vertex   -3.100000e+001 2.630000e+001 2.000000e+000
    endloop
  endfacet
  facet normal 1.251524e-015 -0.000000e+000 1.000000e+000
    outer loop
      vertex   -4.200000e+001 3.710000e+001 2.000000e+000
      vertex   -3.100000e+001 2.630000e+001 2.000000e+000
      vertex   -3.100000e+001 3.800000e+001 2.000000e+000
    endloop
  endfacet
  facet normal 1.251524e-015 0.000000e+000 1.000000e+000
    outer loop
      vertex   -3.100000e+001 4.000000e+001 2.000000e+000
      vertex   -4.200000e+001 3.710000e+001 2.000000e+000
      vertex   -3.100000e+001 3.800000e+001 2.000000e+000
    endloop
  endfacet
  facet normal -7.328440e-010 2.779758e-009 1.000000e+000
    outer loop
      vertex   -3.100000e+001 4.000000e+001 2.000000e+000
      vertex   -7.166666e+001 4.000000e+001 2.000000e+000
      vertex   -4.200000e+001 3.710000e+001 2.000000e+000
    endloop
  endfacet
  facet normal -1.074604e-009 -7.164028e-010 1.000000e+000
    outer loop
      vertex   -4.200000e+001 3.710000e+001 2.000000e+000
      vertex   -7.166666e+001 4.000000e+001 2.000000e+000
      vertex   -7.033333e+001 3.800000e+001 2.000000e+000
    endloop
  endfacet
  facet normal 2.088949e-009 1.392629e-009 1.000000e+000
    outer loop
      vertex   -8.400000e+001 3.710000e+001 2.000000e+000
      vertex   -7.033333e+001 3.800000e+001 2.000000e+000
      vertex   -7.166666e+001 4.000000e+001 2.000000e+000
    endloop
  endfacet
  facet normal -1.365028e-016 1.027666e-008 1.000000e+000
    outer loop
      vertex   -1.123333e+002 4.000000e+001 2.000000e+000
      vertex   -8.400000e+001 3.710000e+001 2.000000e+000
      vertex   -7.166666e+001 4.000000e+001 2.000000e+000
    endloop
  endfacet
  facet normal -2.431917e-016 3.311371e-008 1.000000e+000
    outer loop
      vertex   -8.400000e+001 3.710000e+001 2.000000e+000
      vertex   -4.200000e+001 3.710000e+001 2.000000e+000
      vertex   -7.033333e+001 3.800000e+001 2.000000e+000
    endloop
  endfacet
  facet normal 2.123554e-015 8.881784e-016 1.000000e+000
    outer loop
      vertex   -4.200000e+001 3.710000e+001 2.000000e+000
      vertex   -4.200000e+001 2.710000e+001 2.000000e+000
      vertex   -3.100000e+001 2.630000e+001 2.000000e+000
    endloop
  endfacet
  facet normal 7.328441e-010 2.779752e-009 1.000000e+000
    outer loop
      vertex   -1.123333e+002 4.000000e+001 2.000000e+000
      vertex   -1.530000e+002 4.000000e+001 2.000000e+000
      vertex   -1.420000e+002 3.710000e+001 2.000000e+000
    endloop
  endfacet
  facet normal 1.074603e-009 -7.164006e-010 1.000000e+000
    outer loop
      vertex   -1.136667e+002 3.800000e+001 2.000000e+000
      vertex   -1.123333e+002 4.000000e+001 2.000000e+000
      vertex   -1.420000e+002 3.710000e+001 2.000000e+000
    endloop
  endfacet
  facet normal 0.000000e+000 -0.000000e+000 1.000000e+000
    outer loop
      vertex   -2.700000e+001 2.630000e+001 2.000000e+000
      vertex   -2.700000e+001 3.800000e+001 2.000000e+000
      vertex   -3.100000e+001 2.630000e+001 2.000000e+000
    endloop
  endfacet
  facet normal 0.000000e+000 -0.000000e+000 1.000000e+000
    outer loop
      vertex   -3.100000e+001 2.630000e+001 2.000000e+000
      vertex   -2.700000e+001 3.800000e+001 2.000000e+000
      vertex   -3.100000e+001 3.800000e+001 2.000000e+000
    endloop
  endfacet
  facet normal 3.229740e-016 0.000000e+000 1.000000e+000
    outer loop
      vertex   -1.420000e+002 3.710000e+001 2.000000e+000
      vertex   -1.530000e+002 4.000000e+001 2.000000e+000
      vertex   -1.530000e+002 3.800000e+001 2.000000e+000
    endloop
  endfacet
  facet normal 0.000000e+000 1.000000e+000 -0.000000e+000
    outer loop
      vertex   -1.530000e+002 2.630000e+001 2.000000e+000
      vertex   -1.570000e+002 2.630000e+001 2.000000e+000
      vertex   -1.530000e+002 2.630000e+001 3.710000e+001
    endloop
  endfacet
  facet normal 0.000000e+000 1.000000e+000 0.000000e+000
    outer loop
      vertex   -1.530000e+002 2.630000e+001 3.710000e+001
      vertex   -1.570000e+002 2.630000e+001 2.000000e+000
      vertex   -1.570000e+002 2.630000e+001 3.710000e+001
    endloop
  endfacet
  facet normal 0.000000e+000 1.000000e+000 -0.000000e+000
    outer loop
      vertex   -1.530000e+002 2.630000e+001 7.220000e+001
      vertex   -1.570000e+002 2.630000e+001 3.710000e+001
      vertex   -1.570000e+002 2.630000e+001 7.220000e+001
    endloop
  endfacet
  facet normal 0.000000e+000 1.000000e+000 0.000000e+000
    outer loop
      vertex   -1.530000e+002 2.630000e+001 7.220000e+001
      vertex   -1.530000e+002 2.630000e+001 3.710000e+001
      vertex   -1.570000e+002 2.630000e+001 3.710000e+001
    endloop
  endfacet
  facet normal 1.000000e+000 0.000000e+000 -0.000000e+000
    outer loop
      vertex   -1.530000e+002 2.430000e+001 2.000000e+000
      vertex   -1.530000e+002 2.630000e+001 2.000000e+000
      vertex   -1.530000e+002 2.430000e+001 3.710000e+001
    endloop
  endfacet
  facet normal 1.000000e+000 -0.000000e+000 0.000000e+000
    outer loop
      vertex   -1.530000e+002 2.430000e+001 3.710000e+001
      vertex   -1.530000e+002 2.630000e+001 2.000000e+000
      vertex   -1.530000e+002 2.630000e+001 3.710000e+001
    endloop
  endfacet
  facet normal 1.000000e+000 -0.000000e+000 0.000000e+000
    outer loop
      vertex   -1.530000e+002 2.430000e+001 7.220000e+001
      vertex   -1.530000e+002 2.630000e+001 3.710000e+001
      vertex   -1.530000e+002 2.630000e+001 7.220000e+001
    endloop
  endfacet
  facet normal 1.000000e+000 -0.000000e+000 0.000000e+000
    outer loop
      vertex   -1.530000e+002 2.430000e+001 7.220000e+001
      vertex   -1.530000e+002 2.430000e+001 3.710000e+001
      vertex   -1.530000e+002 2.630000e+001 3.710000e+001
    endloop
  endfacet
  facet normal -1.000000e+000 0.000000e+000 0.000000e+000
    outer loop
      vertex   -3.100000e+001 4.000000e+001 2.000000e+000
      vertex   -3.100000e+001 3.800000e+001 2.000000e+000
      vertex   -3.100000e+001 4.000000e+001 3.660000e+001
    endloop
  endfacet
  facet normal -1.000000e+000 -0.000000e+000 0.000000e+000
    outer loop
      vertex   -3.100000e+001 4.000000e+001 3.660000e+001
      vertex   -3.100000e+001 3.800000e+001 2.000000e+000
      vertex   -3.100000e+001 3.800000e+001 3.710000e+001
    endloop
  endfacet
  facet normal -1.000000e+000 1.013364e-007 -5.943484e-009
    outer loop
      vertex   -3.100000e+001 4.000000e+001 7.120000e+001
      vertex   -3.100000e+001 3.800000e+001 3.710000e+001
      vertex   -3.100000e+001 3.800000e+001 7.219999e+001
    endloop
  endfacet
  facet normal -1.000000e+000 0.000000e+000 -2.086175e-007
    outer loop
      vertex   -3.100000e+001 4.010000e+001 7.219999e+001
      vertex   -3.100000e+001 4.000000e+001 7.120000e+001
      vertex   -3.100000e+001 3.800000e+001 7.219999e+001
    endloop
  endfacet
  facet normal -1.000000e+000 -2.086160e-006 -0.000000e+000
    outer loop
      vertex   -3.100000e+001 4.010000e+001 7.219999e+001
      vertex   -3.100000e+001 4.010000e+001 7.119999e+001
      vertex   -3.100000e+001 4.000000e+001 7.120000e+001
    endloop
  endfacet
  facet normal -1.000000e+000 0.000000e+000 0.000000e+000
    outer loop
      vertex   -3.100000e+001 4.000000e+001 3.660000e+001
      vertex   -3.100000e+001 3.800000e+001 3.710000e+001
      vertex   -3.100000e+001 4.000000e+001 7.120000e+001
    endloop
  endfacet
  facet normal -1.000000e+000 0.000000e+000 -0.000000e+000
    outer loop
      vertex   -2.700000e+001 2.630000e+001 7.220000e+001
      vertex   -2.700000e+001 3.800000e+001 7.220000e+001
      vertex   -2.700000e+001 2.630000e+001 3.710000e+001
    endloop
  endfacet
  facet normal -1.000000e+000 0.000000e+000 0.000000e+000
    outer loop
      vertex   -2.700000e+001 2.630000e+001 3.710000e+001
      vertex   -2.700000e+001 3.800000e+001 7.220000e+001
      vertex   -2.700000e+001 3.800000e+001 3.710000e+001
    endloop
  endfacet
  facet normal -1.000000e+000 0.000000e+000 -4.584973e-008
    outer loop
      vertex   -2.700000e+001 2.630000e+001 2.000000e+000
      vertex   -2.700000e+001 3.800000e+001 3.710000e+001
      vertex   -2.700000e+001 3.800000e+001 2.000000e+000
    endloop
  endfacet
  facet normal -1.000000e+000 0.000000e+000 -4.584973e-008
    outer loop
      vertex   -2.700000e+001 2.630000e+001 2.000000e+000
      vertex   -2.700000e+001 2.630000e+001 3.710000e+001
      vertex   -2.700000e+001 3.800000e+001 3.710000e+001
    endloop
  endfacet
  facet normal -1.000000e+000 0.000000e+000 0.000000e+000
    outer loop
      vertex   -3.100000e+001 2.630000e+001 2.000000e+000
      vertex   -3.100000e+001 2.430000e+001 2.000000e+000
      vertex   -3.100000e+001 2.630000e+001 3.710000e+001
    endloop
  endfacet
  facet normal -1.000000e+000 -0.000000e+000 0.000000e+000
    outer loop
      vertex   -3.100000e+001 2.630000e+001 3.710000e+001
      vertex   -3.100000e+001 2.430000e+001 2.000000e+000
      vertex   -3.100000e+001 2.430000e+001 3.710000e+001
    endloop
  endfacet
  facet normal -1.000000e+000 -0.000000e+000 0.000000e+000
    outer loop
      vertex   -3.100000e+001 2.630000e+001 7.220000e+001
      vertex   -3.100000e+001 2.430000e+001 3.710000e+001
      vertex   -3.100000e+001 2.430000e+001 7.220000e+001
    endloop
  endfacet
  facet normal -1.000000e+000 -0.000000e+000 -0.000000e+000
    outer loop
      vertex   -3.100000e+001 2.630000e+001 7.220000e+001
      vertex   -3.100000e+001 2.630000e+001 3.710000e+001
      vertex   -3.100000e+001 2.430000e+001 3.710000e+001
    endloop
  endfacet
  facet normal 0.000000e+000 1.000000e+000 -0.000000e+000
    outer loop
      vertex   -2.700000e+001 2.630000e+001 2.000000e+000
      vertex   -3.100000e+001 2.630000e+001 2.000000e+000
      vertex   -2.700000e+001 2.630000e+001 3.710000e+001
    endloop
  endfacet
  facet normal 0.000000e+000 1.000000e+000 -0.000000e+000
    outer loop
      vertex   -2.700000e+001 2.630000e+001 3.710000e+001
      vertex   -3.100000e+001 2.630000e+001 2.000000e+000
      vertex   -3.100000e+001 2.630000e+001 3.710000e+001
    endloop
  endfacet
  facet normal 0.000000e+000 1.000000e+000 -0.000000e+000
    outer loop
      vertex   -2.700000e+001 2.630000e+001 7.220000e+001
      vertex   -3.100000e+001 2.630000e+001 3.710000e+001
      vertex   -3.100000e+001 2.630000e+001 7.220000e+001
    endloop
  endfacet
  facet normal 0.000000e+000 1.000000e+000 0.000000e+000
    outer loop
      vertex   -2.700000e+001 2.630000e+001 7.220000e+001
      vertex   -2.700000e+001 2.630000e+001 3.710000e+001
      vertex   -3.100000e+001 2.630000e+001 3.710000e+001
    endloop
  endfacet
  facet normal 1.000000e+000 -0.000000e+000 5.264228e-008
    outer loop
      vertex   -1.570000e+002 2.630000e+001 2.000000e+000
      vertex   -1.570000e+002 3.800000e+001 2.000000e+000
      vertex   -1.570000e+002 2.630000e+001 3.710000e+001
    endloop
  endfacet
  facet normal 1.000000e+000 0.000000e+000 5.264228e-008
    outer loop
      vertex   -1.570000e+002 2.630000e+001 3.710000e+001
      vertex   -1.570000e+002 3.800000e+001 2.000000e+000
      vertex   -1.570000e+002 3.800000e+001 3.710000e+001
    endloop
  endfacet
  facet normal 1.000000e+000 -0.000000e+000 0.000000e+000
    outer loop
      vertex   -1.570000e+002 2.630000e+001 7.220000e+001
      vertex   -1.570000e+002 3.800000e+001 3.710000e+001
      vertex   -1.570000e+002 3.800000e+001 7.220000e+001
    endloop
  endfacet
  facet normal 1.000000e+000 -0.000000e+000 0.000000e+000
    outer loop
      vertex   -1.570000e+002 2.630000e+001 7.220000e+001
      vertex   -1.570000e+002 2.630000e+001 3.710000e+001
      vertex   -1.570000e+002 3.800000e+001 3.710000e+001
    endloop
  endfacet
  facet normal 1.000000e+000 3.841419e-023 -4.381255e-007
    outer loop
      vertex   -2.500000e+001 4.000000e+001 0.000000e+000
      vertex   -2.500000e+001 4.000000e+001 3.000000e+000
      vertex   -2.500000e+001 2.530000e+001 -1.800231e-015
    endloop
  endfacet
  facet normal 1.000000e+000 -8.941339e-008 0.000000e+000
    outer loop
      vertex   -2.500000e+001 2.530000e+001 -1.800231e-015
      vertex   -2.500000e+001 4.000000e+001 3.000000e+000
      vertex   -2.500000e+001 2.530000e+001 3.610000e+001
    endloop
  endfacet
  facet normal 1.000000e+000 1.371371e-009 4.031830e-008
    outer loop
      vertex   -2.500000e+001 2.530000e+001 3.610000e+001
      vertex   -2.500000e+001 4.000000e+001 3.000000e+000
      vertex   -2.500000e+001 4.000000e+001 3.560000e+001
    endloop
  endfacet
  facet normal 1.000000e+000 -1.371371e-009 -4.031830e-008
    outer loop
      vertex   -2.500000e+001 4.000000e+001 6.820000e+001
      vertex   -2.500000e+001 2.530000e+001 3.610000e+001
      vertex   -2.500000e+001 4.000000e+001 3.560000e+001
    endloop
  endfacet
  facet normal 1.000000e+000 -8.941339e-008 0.000000e+000
    outer loop
      vertex   -2.500000e+001 4.000000e+001 6.820000e+001
      vertex   -2.500000e+001 2.530000e+001 7.220000e+001
      vertex   -2.500000e+001 2.530000e+001 3.610000e+001
    endloop
  endfacet
  facet normal 1.000000e+000 0.000000e+000 3.285941e-007
    outer loop
      vertex   -2.500000e+001 4.000000e+001 6.820000e+001
      vertex   -2.500000e+001 4.000000e+001 7.220000e+001
      vertex   -2.500000e+001 2.530000e+001 7.220000e+001
    endloop
  endfacet
  facet normal 8.404257e-006 0.000000e+000 -1.000000e+000
    outer loop
      vertex   -2.750000e+001 4.000000e+001 -4.202127e-006
      vertex   -2.700000e+001 4.000000e+001 -9.166481e-015
      vertex   -2.750000e+001 3.840000e+001 -4.202127e-006
    endloop
  endfacet
  facet normal -3.126245e-012 2.626327e-006 -1.000000e+000
    outer loop
      vertex   -2.750000e+001 3.840000e+001 -4.202127e-006
      vertex   -2.700000e+001 4.000000e+001 -9.166481e-015
      vertex   -2.500000e+001 4.000000e+001 0.000000e+000
    endloop
  endfacet
  facet normal 1.680852e-006 1.224646e-016 -1.000000e+000
    outer loop
      vertex   -2.500000e+001 2.530000e+001 -1.800231e-015
      vertex   -2.750000e+001 3.840000e+001 -4.202127e-006
      vertex   -2.500000e+001 4.000000e+001 0.000000e+000
    endloop
  endfacet
  facet normal 0.000000e+000 -3.207732e-007 -1.000000e+000
    outer loop
      vertex   -2.500000e+001 2.530000e+001 -1.800231e-015
      vertex   -2.880000e+001 3.840000e+001 -4.202127e-006
      vertex   -2.750000e+001 3.840000e+001 -4.202127e-006
    endloop
  endfacet
  facet normal -3.504041e-008 -3.309376e-007 -1.000000e+000
    outer loop
      vertex   -2.500000e+001 2.530000e+001 -1.800231e-015
      vertex   -4.200000e+001 2.710000e+001 -9.159340e-015
      vertex   -2.880000e+001 3.840000e+001 -4.202127e-006
    endloop
  endfacet
  facet normal 4.148927e-016 -1.699634e-016 -1.000000e+000
    outer loop
      vertex   -2.500000e+001 2.530000e+001 -1.800231e-015
      vertex   -2.600000e+001 2.430000e+001 -2.045160e-015
      vertex   -4.200000e+001 2.710000e+001 -9.159340e-015
    endloop
  endfacet
  facet normal 1.224647e-016 -1.840982e-015 -1.000000e+000
    outer loop
      vertex   -4.200000e+001 2.710000e+001 -9.159340e-015
      vertex   -2.600000e+001 2.430000e+001 -2.045160e-015
      vertex   -7.000000e+001 2.430000e+001 -7.433606e-015
    endloop
  endfacet
  facet normal 0.000000e+000 -6.163340e-016 -1.000000e+000
    outer loop
      vertex   -8.400000e+001 2.710000e+001 -9.159340e-015
      vertex   -7.000000e+001 2.430000e+001 -7.433606e-015
      vertex   -1.000000e+002 2.710000e+001 -9.159340e-015
    endloop
  endfacet
  facet normal -0.000000e+000 0.000000e+000 -1.000000e+000
    outer loop
      vertex   -8.400000e+001 3.710000e+001 -9.159340e-015
      vertex   -1.000000e+002 2.710000e+001 -9.159340e-015
      vertex   -1.000000e+002 3.710000e+001 -9.159340e-015
    endloop
  endfacet
  facet normal -1.408881e-016 -1.631128e-015 -1.000000e+000
    outer loop
      vertex   -1.130667e+002 4.000000e+001 -1.204868e-014
      vertex   -1.000000e+002 3.710000e+001 -9.159340e-015
      vertex   -1.150000e+002 3.840000e+001 -9.166481e-015
    endloop
  endfacet
  facet normal 0.000000e+000 -5.493348e-018 -1.000000e+000
    outer loop
      vertex   -1.420000e+002 3.710000e+001 -9.159340e-015
      vertex   -1.150000e+002 3.840000e+001 -9.166481e-015
      vertex   -1.000000e+002 3.710000e+001 -9.159340e-015
    endloop
  endfacet
  facet normal 9.180921e-017 -1.912304e-015 -1.000000e+000
    outer loop
      vertex   -1.420000e+002 3.710000e+001 -9.159340e-015
      vertex   -1.130667e+002 4.000000e+001 -1.204868e-014
      vertex   -1.150000e+002 3.840000e+001 -9.166481e-015
    endloop
  endfacet
  facet normal 9.973415e-008 -9.950480e-007 -1.000000e+000
    outer loop
      vertex   -1.420000e+002 3.710000e+001 -9.159340e-015
      vertex   -1.552000e+002 4.000000e+001 -4.202127e-006
      vertex   -1.130667e+002 4.000000e+001 -1.204868e-014
    endloop
  endfacet
  facet normal 3.183430e-007 0.000000e+000 -1.000000e+000
    outer loop
      vertex   -1.420000e+002 3.710000e+001 -9.159340e-015
      vertex   -1.552000e+002 3.840000e+001 -4.202127e-006
      vertex   -1.552000e+002 4.000000e+001 -4.202127e-006
    endloop
  endfacet
  facet normal 3.183430e-007 0.000000e+000 -1.000000e+000
    outer loop
      vertex   -1.420000e+002 3.710000e+001 -9.159340e-015
      vertex   -1.420000e+002 2.710000e+001 -9.159340e-015
      vertex   -1.552000e+002 3.840000e+001 -4.202127e-006
    endloop
  endfacet
  facet normal 3.504041e-008 -3.309376e-007 -1.000000e+000
    outer loop
      vertex   -1.552000e+002 3.840000e+001 -4.202127e-006
      vertex   -1.420000e+002 2.710000e+001 -9.159340e-015
      vertex   -1.590000e+002 2.530000e+001 -1.833296e-014
    endloop
  endfacet
  facet normal -1.680850e-006 0.000000e+000 -1.000000e+000
    outer loop
      vertex   -1.565000e+002 3.840000e+001 -4.202127e-006
      vertex   -1.590000e+002 2.530000e+001 -1.833296e-014
      vertex   -1.590000e+002 4.000000e+001 -1.833296e-014
    endloop
  endfacet
  facet normal 1.050442e-014 4.967058e-009 -1.000000e+000
    outer loop
      vertex   -1.570000e+002 4.000000e+001 -9.166481e-015
      vertex   -1.590000e+002 4.000000e+001 -1.833296e-014
      vertex   -1.590000e+002 4.600000e+001 2.980232e-008
    endloop
  endfacet
  facet normal 3.135405e-012 2.626327e-006 -1.000000e+000
    outer loop
      vertex   -1.570000e+002 4.000000e+001 -9.166481e-015
      vertex   -1.565000e+002 3.840000e+001 -4.202127e-006
      vertex   -1.590000e+002 4.000000e+001 -1.833296e-014
    endloop
  endfacet
  facet normal -8.404266e-006 -0.000000e+000 -1.000000e+000
    outer loop
      vertex   -1.570000e+002 4.000000e+001 -9.166481e-015
      vertex   -1.565000e+002 4.000000e+001 -4.202127e-006
      vertex   -1.565000e+002 3.840000e+001 -4.202127e-006
    endloop
  endfacet
  facet normal 4.583246e-015 -1.480299e-015 -1.000000e+000
    outer loop
      vertex   -2.700000e+001 4.000000e+001 -9.166481e-015
      vertex   -2.500000e+001 4.600000e+001 -8.881784e-015
      vertex   -2.500000e+001 4.000000e+001 0.000000e+000
    endloop
  endfacet
  facet normal 1.490118e-008 -5.938400e-015 -1.000000e+000
    outer loop
      vertex   -2.500000e+001 4.000000e+001 0.000000e+000
      vertex   -2.500000e+001 4.600000e+001 -8.881784e-015
      vertex   -2.300000e+001 4.600000e+001 2.980232e-008
    endloop
  endfacet
  facet normal 1.224647e-016 6.957885e-016 -1.000000e+000
    outer loop
      vertex   -7.000000e+001 2.430000e+001 -7.433606e-015
      vertex   -1.140000e+002 2.430000e+001 -1.282205e-014
      vertex   -1.000000e+002 2.710000e+001 -9.159340e-015
    endloop
  endfacet
  facet normal 0.000000e+000 1.308112e-015 -1.000000e+000
    outer loop
      vertex   -1.000000e+002 2.710000e+001 -9.159340e-015
      vertex   -1.140000e+002 2.430000e+001 -1.282205e-014
      vertex   -1.420000e+002 2.710000e+001 -9.159340e-015
    endloop
  endfacet
  facet normal 1.224647e-016 2.532760e-015 -1.000000e+000
    outer loop
      vertex   -1.420000e+002 2.710000e+001 -9.159340e-015
      vertex   -1.140000e+002 2.430000e+001 -1.282205e-014
      vertex   -1.580000e+002 2.430000e+001 -1.821050e-014
    endloop
  endfacet
  facet normal 4.996840e-016 3.772193e-016 -1.000000e+000
    outer loop
      vertex   -1.590000e+002 2.530000e+001 -1.833296e-014
      vertex   -1.420000e+002 2.710000e+001 -9.159340e-015
      vertex   -1.580000e+002 2.430000e+001 -1.821050e-014
    endloop
  endfacet
  facet normal 0.000000e+000 -3.207732e-007 -1.000000e+000
    outer loop
      vertex   -1.552000e+002 3.840000e+001 -4.202127e-006
      vertex   -1.590000e+002 2.530000e+001 -1.833296e-014
      vertex   -1.565000e+002 3.840000e+001 -4.202127e-006
    endloop
  endfacet
  facet normal 1.490115e-008 4.967054e-009 -1.000000e+000
    outer loop
      vertex   -1.590000e+002 4.000000e+001 -1.833296e-014
      vertex   -1.610000e+002 4.600000e+001 -8.881784e-015
      vertex   -1.590000e+002 4.600000e+001 2.980232e-008
    endloop
  endfacet
  facet normal 0.000000e+000 -9.963227e-016 -1.000000e+000
    outer loop
      vertex   -1.000000e+002 3.710000e+001 -9.159340e-015
      vertex   -1.130667e+002 4.000000e+001 -1.204868e-014
      vertex   -8.400000e+001 3.710000e+001 -9.159340e-015
    endloop
  endfacet
  facet normal 1.368132e-016 3.749528e-016 -1.000000e+000
    outer loop
      vertex   -8.400000e+001 3.710000e+001 -9.159340e-015
      vertex   -1.130667e+002 4.000000e+001 -1.204868e-014
      vertex   -7.093333e+001 4.000000e+001 -6.284284e-015
    endloop
  endfacet
  facet normal -1.490793e-015 0.000000e+000 -1.000000e+000
    outer loop
      vertex   -6.900000e+001 3.744513e+001 -9.166481e-015
      vertex   -7.093333e+001 4.000000e+001 -6.284284e-015
      vertex   -6.900000e+001 3.840000e+001 -9.166481e-015
    endloop
  endfacet
  facet normal 9.237087e-017 1.912982e-015 -1.000000e+000
    outer loop
      vertex   -4.200000e+001 3.710000e+001 -9.159340e-015
      vertex   -6.900000e+001 3.840000e+001 -9.166481e-015
      vertex   -7.093333e+001 4.000000e+001 -6.284284e-015
    endloop
  endfacet
  facet normal -9.973415e-008 -9.950480e-007 -1.000000e+000
    outer loop
      vertex   -2.880000e+001 4.000000e+001 -4.202127e-006
      vertex   -4.200000e+001 3.710000e+001 -9.159340e-015
      vertex   -7.093333e+001 4.000000e+001 -6.284284e-015
    endloop
  endfacet
  facet normal -3.183430e-007 -0.000000e+000 -1.000000e+000
    outer loop
      vertex   -2.880000e+001 4.000000e+001 -4.202127e-006
      vertex   -2.880000e+001 3.840000e+001 -4.202127e-006
      vertex   -4.200000e+001 3.710000e+001 -9.159340e-015
    endloop
  endfacet
  facet normal -3.183430e-007 0.000000e+000 -1.000000e+000
    outer loop
      vertex   -4.200000e+001 3.710000e+001 -9.159340e-015
      vertex   -2.880000e+001 3.840000e+001 -4.202127e-006
      vertex   -4.200000e+001 2.710000e+001 -9.159340e-015
    endloop
  endfacet
  facet normal 0.000000e+000 0.000000e+000 -1.000000e+000
    outer loop
      vertex   -8.400000e+001 2.710000e+001 -9.159340e-015
      vertex   -1.000000e+002 2.710000e+001 -9.159340e-015
      vertex   -8.400000e+001 3.710000e+001 -9.159340e-015
    endloop
  endfacet
  facet normal 0.000000e+000 -6.163340e-016 -1.000000e+000
    outer loop
      vertex   -8.400000e+001 2.710000e+001 -9.159340e-015
      vertex   -4.200000e+001 2.710000e+001 -9.159340e-015
      vertex   -7.000000e+001 2.430000e+001 -7.433606e-015
    endloop
  endfacet
  facet normal 2.644940e-019 0.000000e+000 -1.000000e+000
    outer loop
      vertex   -6.900000e+001 3.840000e+001 -9.166481e-015
      vertex   -4.200000e+001 3.710000e+001 -9.159340e-015
      vertex   -6.900000e+001 3.744513e+001 -9.166481e-015
    endloop
  endfacet
  facet normal -0.000000e+000 -2.069161e-017 -1.000000e+000
    outer loop
      vertex   -6.900000e+001 3.744513e+001 -9.166481e-015
      vertex   -4.200000e+001 3.710000e+001 -9.159340e-015
      vertex   -8.400000e+001 3.710000e+001 -9.159340e-015
    endloop
  endfacet
  facet normal -2.598040e-017 1.108459e-015 -1.000000e+000
    outer loop
      vertex   -7.093333e+001 4.000000e+001 -6.284284e-015
      vertex   -6.900000e+001 3.744513e+001 -9.166481e-015
      vertex   -8.400000e+001 3.710000e+001 -9.159340e-015
    endloop
  endfacet
endsolid
