solid ascii
  facet normal 0.000000e+000 -1.000000e+000 0.000000e+000
    outer loop
      vertex   -2.900000e+001 1.900000e+001 -9.797174e-016
      vertex   -2.700000e+001 1.900000e+001 -7.347881e-016
      vertex   -2.900000e+001 1.900000e+001 3.000000e+001
    endloop
  endfacet
  facet normal 0.000000e+000 -1.000000e+000 0.000000e+000
    outer loop
      vertex   -2.900000e+001 1.900000e+001 3.000000e+001
      vertex   -2.700000e+001 1.900000e+001 -7.347881e-016
      vertex   -2.700000e+001 1.900000e+001 3.000000e+001
    endloop
  endfacet
  facet normal -1.000000e+000 -0.000000e+000 -0.000000e+000
    outer loop
      vertex   -2.900000e+001 2.200000e+001 3.000000e+001
      vertex   -2.900000e+001 2.200000e+001 1.500000e+001
      vertex   -2.900000e+001 1.900000e+001 3.000000e+001
    endloop
  endfacet
  facet normal -1.000000e+000 0.000000e+000 -0.000000e+000
    outer loop
      vertex   -2.900000e+001 1.900000e+001 3.000000e+001
      vertex   -2.900000e+001 2.200000e+001 1.500000e+001
      vertex   -2.900000e+001 1.900000e+001 -9.797174e-016
    endloop
  endfacet
  facet normal -1.000000e+000 0.000000e+000 0.000000e+000
    outer loop
      vertex   -2.900000e+001 1.900000e+001 -9.797174e-016
      vertex   -2.900000e+001 2.200000e+001 1.500000e+001
      vertex   -2.900000e+001 2.500000e+001 -9.797174e-016
    endloop
  endfacet
  facet normal -1.000000e+000 0.000000e+000 0.000000e+000
    outer loop
      vertex   -2.900000e+001 2.500000e+001 -9.797174e-016
      vertex   -2.900000e+001 2.200000e+001 1.500000e+001
      vertex   -2.900000e+001 2.500000e+001 1.500000e+001
    endloop
  endfacet
  facet normal 0.000000e+000 0.000000e+000 1.000000e+000
    outer loop
      vertex   -2.700000e+001 2.200000e+001 3.000000e+001
      vertex   -2.900000e+001 2.200000e+001 3.000000e+001
      vertex   -2.700000e+001 1.900000e+001 3.000000e+001
    endloop
  endfacet
  facet normal 0.000000e+000 0.000000e+000 1.000000e+000
    outer loop
      vertex   -2.700000e+001 1.900000e+001 3.000000e+001
      vertex   -2.900000e+001 2.200000e+001 3.000000e+001
      vertex   -2.900000e+001 1.900000e+001 3.000000e+001
    endloop
  endfacet
  facet normal 1.000000e+000 0.000000e+000 0.000000e+000
    outer loop
      vertex   -2.700000e+001 2.500000e+001 1.500000e+001
      vertex   -2.700000e+001 2.200000e+001 1.500000e+001
      vertex   -2.700000e+001 2.500000e+001 0.000000e+000
    endloop
  endfacet
  facet normal 1.000000e+000 0.000000e+000 0.000000e+000
    outer loop
      vertex   -2.700000e+001 2.500000e+001 0.000000e+000
      vertex   -2.700000e+001 2.200000e+001 1.500000e+001
      vertex   -2.700000e+001 1.900000e+001 -7.347881e-016
    endloop
  endfacet
  facet normal 1.000000e+000 0.000000e+000 -0.000000e+000
    outer loop
      vertex   -2.700000e+001 1.900000e+001 -7.347881e-016
      vertex   -2.700000e+001 2.200000e+001 1.500000e+001
      vertex   -2.700000e+001 1.900000e+001 3.000000e+001
    endloop
  endfacet
  facet normal 1.000000e+000 -0.000000e+000 0.000000e+000
    outer loop
      vertex   -2.700000e+001 1.900000e+001 3.000000e+001
      vertex   -2.700000e+001 2.200000e+001 1.500000e+001
      vertex   -2.700000e+001 2.200000e+001 3.000000e+001
    endloop
  endfacet
  facet normal 0.000000e+000 -0.000000e+000 1.000000e+000
    outer loop
      vertex   -2.900000e+001 2.200000e+001 1.500000e+001
      vertex   -2.700000e+001 2.200000e+001 1.500000e+001
      vertex   -2.900000e+001 2.500000e+001 1.500000e+001
    endloop
  endfacet
  facet normal -0.000000e+000 0.000000e+000 1.000000e+000
    outer loop
      vertex   -2.900000e+001 2.500000e+001 1.500000e+001
      vertex   -2.700000e+001 2.200000e+001 1.500000e+001
      vertex   -2.700000e+001 2.500000e+001 1.500000e+001
    endloop
  endfacet
  facet normal -0.000000e+000 1.000000e+000 0.000000e+000
    outer loop
      vertex   -2.900000e+001 2.200000e+001 3.000000e+001
      vertex   -2.700000e+001 2.200000e+001 3.000000e+001
      vertex   -2.900000e+001 2.200000e+001 1.500000e+001
    endloop
  endfacet
  facet normal -0.000000e+000 1.000000e+000 0.000000e+000
    outer loop
      vertex   -2.900000e+001 2.200000e+001 1.500000e+001
      vertex   -2.700000e+001 2.200000e+001 3.000000e+001
      vertex   -2.700000e+001 2.200000e+001 1.500000e+001
    endloop
  endfacet
  facet normal 9.316557e-017 -1.000000e+000 -1.122128e-015
    outer loop
      vertex   -6.713333e+001 2.500000e+001 -6.629421e-015
      vertex   -2.900000e+001 2.500000e+001 -9.797174e-016
      vertex   -3.100000e+001 2.500000e+001 2.999999e+000
    endloop
  endfacet
  facet normal 0.000000e+000 -1.000000e+000 0.000000e+000
    outer loop
      vertex   -7.640000e+001 2.500000e+001 2.999999e+000
      vertex   -6.713333e+001 2.500000e+001 -6.629421e-015
      vertex   -3.100000e+001 2.500000e+001 2.999999e+000
    endloop
  endfacet
  facet normal -0.000000e+000 -1.000000e+000 -0.000000e+000
    outer loop
      vertex   -7.640000e+001 2.500000e+001 2.999999e+000
      vertex   -9.600000e+001 2.500000e+001 2.999999e+000
      vertex   -6.713333e+001 2.500000e+001 -6.629421e-015
    endloop
  endfacet
  facet normal -0.000000e+000 -1.000000e+000 -0.000000e+000
    outer loop
      vertex   -7.640000e+001 2.500000e+001 2.999999e+000
      vertex   -9.600000e+001 2.500000e+001 5.620000e+001
      vertex   -9.600000e+001 2.500000e+001 2.999999e+000
    endloop
  endfacet
  facet normal -0.000000e+000 -1.000000e+000 0.000000e+000
    outer loop
      vertex   -7.640000e+001 2.500000e+001 2.999999e+000
      vertex   -7.640000e+001 2.500000e+001 5.620000e+001
      vertex   -9.600000e+001 2.500000e+001 5.620000e+001
    endloop
  endfacet
  facet normal 0.000000e+000 -1.000000e+000 -8.623092e-017
    outer loop
      vertex   -2.700000e+001 2.500000e+001 1.500000e+001
      vertex   -2.699995e+001 2.500000e+001 5.620000e+001
      vertex   -2.900000e+001 2.500000e+001 1.500000e+001
    endloop
  endfacet
  facet normal 4.934285e-023 -1.000000e+000 -8.623092e-017
    outer loop
      vertex   -2.700000e+001 2.500000e+001 1.500000e+001
      vertex   -2.500000e+001 2.500000e+001 5.620000e+001
      vertex   -2.699995e+001 2.500000e+001 5.620000e+001
    endloop
  endfacet
  facet normal -1.776357e-015 -1.000000e+000 0.000000e+000
    outer loop
      vertex   -2.700000e+001 2.500000e+001 1.500000e+001
      vertex   -2.500000e+001 2.500000e+001 -1.469576e-015
      vertex   -2.500000e+001 2.500000e+001 5.620000e+001
    endloop
  endfacet
  facet normal -1.776357e-015 -1.000000e+000 -0.000000e+000
    outer loop
      vertex   -2.700000e+001 2.500000e+001 1.500000e+001
      vertex   -2.700000e+001 2.500000e+001 0.000000e+000
      vertex   -2.500000e+001 2.500000e+001 -1.469576e-015
    endloop
  endfacet
  facet normal -0.000000e+000 -1.000000e+000 -0.000000e+000
    outer loop
      vertex   -2.699995e+001 2.500000e+001 5.820000e+001
      vertex   -3.099995e+001 2.500000e+001 5.820000e+001
      vertex   -2.699995e+001 2.500000e+001 5.620000e+001
    endloop
  endfacet
  facet normal -0.000000e+000 -1.000000e+000 -0.000000e+000
    outer loop
      vertex   -2.699995e+001 2.500000e+001 5.620000e+001
      vertex   -3.099995e+001 2.500000e+001 5.820000e+001
      vertex   -3.099995e+001 2.500000e+001 5.620000e+001
    endloop
  endfacet
  facet normal -2.176074e-018 -1.000000e+000 -8.633655e-017
    outer loop
      vertex   -2.900000e+001 2.500000e+001 1.500000e+001
      vertex   -3.099995e+001 2.500000e+001 5.620000e+001
      vertex   -3.100000e+001 2.500000e+001 5.620000e+001
    endloop
  endfacet
  facet normal 1.776357e-015 -1.000000e+000 0.000000e+000
    outer loop
      vertex   -3.100000e+001 2.500000e+001 2.999999e+000
      vertex   -2.900000e+001 2.500000e+001 1.500000e+001
      vertex   -3.100000e+001 2.500000e+001 5.620000e+001
    endloop
  endfacet
  facet normal 1.776357e-015 -1.000000e+000 0.000000e+000
    outer loop
      vertex   -3.100000e+001 2.500000e+001 2.999999e+000
      vertex   -2.900000e+001 2.500000e+001 -9.797174e-016
      vertex   -2.900000e+001 2.500000e+001 1.500000e+001
    endloop
  endfacet
  facet normal -0.000000e+000 -1.000000e+000 -8.623092e-017
    outer loop
      vertex   -2.699995e+001 2.500000e+001 5.620000e+001
      vertex   -3.099995e+001 2.500000e+001 5.620000e+001
      vertex   -2.900000e+001 2.500000e+001 1.500000e+001
    endloop
  endfacet
  facet normal -0.000000e+000 -1.000000e+000 0.000000e+000
    outer loop
      vertex   -6.713333e+001 2.500000e+001 -6.629421e-015
      vertex   -9.600000e+001 2.500000e+001 2.999999e+000
      vertex   -1.052667e+002 2.500000e+001 -1.129941e-014
    endloop
  endfacet
  facet normal 0.000000e+000 -1.000000e+000 0.000000e+000
    outer loop
      vertex   -1.052667e+002 2.500000e+001 -1.129941e-014
      vertex   -9.600000e+001 2.500000e+001 2.999999e+000
      vertex   -1.414000e+002 2.500000e+001 2.999999e+000
    endloop
  endfacet
  facet normal -1.776357e-015 -1.000000e+000 0.000000e+000
    outer loop
      vertex   -1.434000e+002 2.500000e+001 0.000000e+000
      vertex   -1.414000e+002 2.500000e+001 2.999999e+000
      vertex   -1.434000e+002 2.500000e+001 1.500000e+001
    endloop
  endfacet
  facet normal -9.316557e-017 -1.000000e+000 -1.122128e-015
    outer loop
      vertex   -1.434000e+002 2.500000e+001 0.000000e+000
      vertex   -1.052667e+002 2.500000e+001 -1.129941e-014
      vertex   -1.414000e+002 2.500000e+001 2.999999e+000
    endloop
  endfacet
  facet normal -1.776357e-015 -1.000000e+000 0.000000e+000
    outer loop
      vertex   -1.414000e+002 2.500000e+001 2.999999e+000
      vertex   -1.414000e+002 2.500000e+001 5.620000e+001
      vertex   -1.434000e+002 2.500000e+001 1.500000e+001
    endloop
  endfacet
  facet normal -1.531786e-031 -1.000000e+000 -8.623092e-017
    outer loop
      vertex   -1.434000e+002 2.500000e+001 1.500000e+001
      vertex   -1.414000e+002 2.500000e+001 5.620000e+001
      vertex   -1.454000e+002 2.500000e+001 5.620000e+001
    endloop
  endfacet
  facet normal -0.000000e+000 -1.000000e+000 -8.623092e-017
    outer loop
      vertex   -1.454000e+002 2.500000e+001 1.500000e+001
      vertex   -1.454000e+002 2.500000e+001 5.620000e+001
      vertex   -1.474000e+002 2.500000e+001 5.620000e+001
    endloop
  endfacet
  facet normal 1.776357e-015 -1.000000e+000 0.000000e+000
    outer loop
      vertex   -1.474000e+002 2.500000e+001 -8.881784e-015
      vertex   -1.454000e+002 2.500000e+001 1.500000e+001
      vertex   -1.474000e+002 2.500000e+001 5.620000e+001
    endloop
  endfacet
  facet normal 1.776357e-015 -1.000000e+000 3.365807e-030
    outer loop
      vertex   -1.474000e+002 2.500000e+001 -8.881784e-015
      vertex   -1.454000e+002 2.500000e+001 -9.797174e-016
      vertex   -1.454000e+002 2.500000e+001 1.500000e+001
    endloop
  endfacet
  facet normal -0.000000e+000 -1.000000e+000 0.000000e+000
    outer loop
      vertex   -1.414000e+002 2.500000e+001 5.620000e+001
      vertex   -1.414000e+002 2.500000e+001 5.820000e+001
      vertex   -1.414000e+002 2.500000e+001 5.620000e+001
    endloop
  endfacet
  facet normal 0.000000e+000 -1.000000e+000 0.000000e+000
    outer loop
      vertex   -1.414000e+002 2.500000e+001 5.620000e+001
      vertex   -1.414000e+002 2.500000e+001 5.820000e+001
      vertex   -1.454000e+002 2.500000e+001 5.820000e+001
    endloop
  endfacet
  facet normal 0.000000e+000 -1.000000e+000 0.000000e+000
    outer loop
      vertex   -1.454000e+002 2.500000e+001 5.620000e+001
      vertex   -1.414000e+002 2.500000e+001 5.620000e+001
      vertex   -1.454000e+002 2.500000e+001 5.820000e+001
    endloop
  endfacet
  facet normal 0.000000e+000 -1.000000e+000 -8.623092e-017
    outer loop
      vertex   -1.434000e+002 2.500000e+001 1.500000e+001
      vertex   -1.454000e+002 2.500000e+001 5.620000e+001
      vertex   -1.454000e+002 2.500000e+001 1.500000e+001
    endloop
  endfacet
  facet normal -0.000000e+000 1.000000e+000 0.000000e+000
    outer loop
      vertex   -1.454000e+002 2.200000e+001 3.000000e+001
      vertex   -1.434000e+002 2.200000e+001 3.000000e+001
      vertex   -1.454000e+002 2.200000e+001 1.500000e+001
    endloop
  endfacet
  facet normal -0.000000e+000 1.000000e+000 0.000000e+000
    outer loop
      vertex   -1.454000e+002 2.200000e+001 1.500000e+001
      vertex   -1.434000e+002 2.200000e+001 3.000000e+001
      vertex   -1.434000e+002 2.200000e+001 1.500000e+001
    endloop
  endfacet
  facet normal 0.000000e+000 -0.000000e+000 1.000000e+000
    outer loop
      vertex   -1.454000e+002 2.200000e+001 1.500000e+001
      vertex   -1.434000e+002 2.200000e+001 1.500000e+001
      vertex   -1.454000e+002 2.500000e+001 1.500000e+001
    endloop
  endfacet
  facet normal -0.000000e+000 0.000000e+000 1.000000e+000
    outer loop
      vertex   -1.454000e+002 2.500000e+001 1.500000e+001
      vertex   -1.434000e+002 2.200000e+001 1.500000e+001
      vertex   -1.434000e+002 2.500000e+001 1.500000e+001
    endloop
  endfacet
  facet normal 1.000000e+000 0.000000e+000 0.000000e+000
    outer loop
      vertex   -1.434000e+002 2.500000e+001 1.500000e+001
      vertex   -1.434000e+002 2.200000e+001 1.500000e+001
      vertex   -1.434000e+002 2.500000e+001 0.000000e+000
    endloop
  endfacet
  facet normal 1.000000e+000 0.000000e+000 0.000000e+000
    outer loop
      vertex   -1.434000e+002 2.500000e+001 0.000000e+000
      vertex   -1.434000e+002 2.200000e+001 1.500000e+001
      vertex   -1.434000e+002 1.900000e+001 -7.347881e-016
    endloop
  endfacet
  facet normal 1.000000e+000 0.000000e+000 -0.000000e+000
    outer loop
      vertex   -1.434000e+002 1.900000e+001 -7.347881e-016
      vertex   -1.434000e+002 2.200000e+001 1.500000e+001
      vertex   -1.434000e+002 1.900000e+001 3.000000e+001
    endloop
  endfacet
  facet normal 1.000000e+000 -0.000000e+000 0.000000e+000
    outer loop
      vertex   -1.434000e+002 1.900000e+001 3.000000e+001
      vertex   -1.434000e+002 2.200000e+001 1.500000e+001
      vertex   -1.434000e+002 2.200000e+001 3.000000e+001
    endloop
  endfacet
  facet normal 0.000000e+000 0.000000e+000 1.000000e+000
    outer loop
      vertex   -1.434000e+002 2.200000e+001 3.000000e+001
      vertex   -1.454000e+002 2.200000e+001 3.000000e+001
      vertex   -1.434000e+002 1.900000e+001 3.000000e+001
    endloop
  endfacet
  facet normal 0.000000e+000 0.000000e+000 1.000000e+000
    outer loop
      vertex   -1.434000e+002 1.900000e+001 3.000000e+001
      vertex   -1.454000e+002 2.200000e+001 3.000000e+001
      vertex   -1.454000e+002 1.900000e+001 3.000000e+001
    endloop
  endfacet
  facet normal -1.000000e+000 -9.473903e-015 -0.000000e+000
    outer loop
      vertex   -1.454000e+002 2.200000e+001 3.000000e+001
      vertex   -1.454000e+002 2.200000e+001 1.500000e+001
      vertex   -1.454000e+002 1.900000e+001 3.000000e+001
    endloop
  endfacet
  facet normal -1.000000e+000 -9.473903e-015 0.000000e+000
    outer loop
      vertex   -1.454000e+002 1.900000e+001 3.000000e+001
      vertex   -1.454000e+002 2.200000e+001 1.500000e+001
      vertex   -1.454000e+002 1.900000e+001 -9.797174e-016
    endloop
  endfacet
  facet normal -1.000000e+000 0.000000e+000 -1.894781e-015
    outer loop
      vertex   -1.454000e+002 1.900000e+001 -9.797174e-016
      vertex   -1.454000e+002 2.200000e+001 1.500000e+001
      vertex   -1.454000e+002 2.500000e+001 -9.797174e-016
    endloop
  endfacet
  facet normal -1.000000e+000 0.000000e+000 -1.894781e-015
    outer loop
      vertex   -1.454000e+002 2.500000e+001 -9.797174e-016
      vertex   -1.454000e+002 2.200000e+001 1.500000e+001
      vertex   -1.454000e+002 2.500000e+001 1.500000e+001
    endloop
  endfacet
  facet normal 0.000000e+000 -1.000000e+000 0.000000e+000
    outer loop
      vertex   -1.454000e+002 1.900000e+001 -9.797174e-016
      vertex   -1.434000e+002 1.900000e+001 -7.347881e-016
      vertex   -1.454000e+002 1.900000e+001 3.000000e+001
    endloop
  endfacet
  facet normal 0.000000e+000 -1.000000e+000 0.000000e+000
    outer loop
      vertex   -1.454000e+002 1.900000e+001 3.000000e+001
      vertex   -1.434000e+002 1.900000e+001 -7.347881e-016
      vertex   -1.434000e+002 1.900000e+001 3.000000e+001
    endloop
  endfacet
  facet normal -7.347881e-016 1.224647e-016 -1.000000e+000
    outer loop
      vertex   -2.500000e+001 2.500000e+001 -1.469576e-015
      vertex   -2.700000e+001 2.500000e+001 0.000000e+000
      vertex   -2.500000e+001 3.700000e+001 0.000000e+000
    endloop
  endfacet
  facet normal -0.000000e+000 0.000000e+000 -1.000000e+000
    outer loop
      vertex   -2.500000e+001 3.700000e+001 0.000000e+000
      vertex   -2.700000e+001 2.500000e+001 0.000000e+000
      vertex   -2.700000e+001 3.700000e+001 0.000000e+000
    endloop
  endfacet
  facet normal 4.898587e-016 0.000000e+000 -1.000000e+000
    outer loop
      vertex   -2.700000e+001 3.700000e+001 0.000000e+000
      vertex   -2.700000e+001 2.500000e+001 0.000000e+000
      vertex   -2.900000e+001 2.500000e+001 -9.797174e-016
    endloop
  endfacet
  facet normal 1.481566e-016 6.123234e-017 -1.000000e+000
    outer loop
      vertex   -2.900000e+001 3.700000e+001 -2.449294e-016
      vertex   -2.900000e+001 2.500000e+001 -9.797174e-016
      vertex   -6.713333e+001 2.500000e+001 -6.629421e-015
    endloop
  endfacet
  facet normal 1.224647e-016 5.527920e-016 -1.000000e+000
    outer loop
      vertex   -6.716667e+001 3.700000e+001 0.000000e+000
      vertex   -6.713333e+001 2.500000e+001 -6.629421e-015
      vertex   -1.052667e+002 2.500000e+001 -1.129941e-014
    endloop
  endfacet
  facet normal -2.963131e-016 9.399711e-016 -1.000000e+000
    outer loop
      vertex   -1.053333e+002 3.700000e+001 0.000000e+000
      vertex   -1.052667e+002 2.500000e+001 -1.129941e-014
      vertex   -1.434000e+002 2.500000e+001 0.000000e+000
    endloop
  endfacet
  facet normal 4.898587e-016 4.082156e-018 -1.000000e+000
    outer loop
      vertex   -1.435000e+002 3.700000e+001 0.000000e+000
      vertex   -1.434000e+002 2.500000e+001 0.000000e+000
      vertex   -1.454000e+002 2.500000e+001 -9.797174e-016
    endloop
  endfacet
  facet normal 3.951033e-015 9.415762e-017 -1.000000e+000
    outer loop
      vertex   -1.455000e+002 3.700000e+001 -2.449294e-016
      vertex   -1.454000e+002 2.500000e+001 -9.797174e-016
      vertex   -1.474000e+002 2.500000e+001 -8.881784e-015
    endloop
  endfacet
  facet normal -1.289102e-016 7.401487e-016 -1.000000e+000
    outer loop
      vertex   -1.474000e+002 3.700000e+001 0.000000e+000
      vertex   -1.455000e+002 3.700000e+001 -2.449294e-016
      vertex   -1.474000e+002 2.500000e+001 -8.881784e-015
    endloop
  endfacet
  facet normal 1.224647e-016 1.224647e-016 -1.000000e+000
    outer loop
      vertex   -2.700000e+001 1.900000e+001 -7.347881e-016
      vertex   -2.900000e+001 1.900000e+001 -9.797174e-016
      vertex   -2.700000e+001 2.500000e+001 0.000000e+000
    endloop
  endfacet
  facet normal 4.898587e-016 6.573841e-032 -1.000000e+000
    outer loop
      vertex   -2.700000e+001 2.500000e+001 0.000000e+000
      vertex   -2.900000e+001 1.900000e+001 -9.797174e-016
      vertex   -2.900000e+001 2.500000e+001 -9.797174e-016
    endloop
  endfacet
  facet normal 1.224647e-016 6.123234e-017 -1.000000e+000
    outer loop
      vertex   -2.700000e+001 3.700000e+001 0.000000e+000
      vertex   -2.900000e+001 2.500000e+001 -9.797174e-016
      vertex   -2.900000e+001 3.700000e+001 -2.449294e-016
    endloop
  endfacet
  facet normal -4.930381e-032 0.000000e+000 -1.000000e+000
    outer loop
      vertex   -2.700000e+001 4.300000e+001 -2.449294e-016
      vertex   -2.900000e+001 3.700000e+001 -2.449294e-016
      vertex   -2.900000e+001 4.300000e+001 -2.449294e-016
    endloop
  endfacet
  facet normal 1.224647e-016 -4.082156e-017 -1.000000e+000
    outer loop
      vertex   -2.700000e+001 4.300000e+001 -2.449294e-016
      vertex   -2.700000e+001 3.700000e+001 0.000000e+000
      vertex   -2.900000e+001 3.700000e+001 -2.449294e-016
    endloop
  endfacet
  facet normal -6.417363e-018 5.524340e-016 -1.000000e+000
    outer loop
      vertex   -2.900000e+001 3.700000e+001 -2.449294e-016
      vertex   -6.713333e+001 2.500000e+001 -6.629421e-015
      vertex   -6.716667e+001 3.700000e+001 0.000000e+000
    endloop
  endfacet
  facet normal 0.000000e+000 9.416173e-016 -1.000000e+000
    outer loop
      vertex   -6.716667e+001 3.700000e+001 0.000000e+000
      vertex   -1.052667e+002 2.500000e+001 -1.129941e-014
      vertex   -1.053333e+002 3.700000e+001 0.000000e+000
    endloop
  endfacet
  facet normal 1.224647e-016 1.224647e-016 -1.000000e+000
    outer loop
      vertex   -1.434000e+002 1.900000e+001 -7.347881e-016
      vertex   -1.454000e+002 1.900000e+001 -9.797174e-016
      vertex   -1.434000e+002 2.500000e+001 0.000000e+000
    endloop
  endfacet
  facet normal 4.898587e-016 6.573841e-032 -1.000000e+000
    outer loop
      vertex   -1.434000e+002 2.500000e+001 0.000000e+000
      vertex   -1.454000e+002 1.900000e+001 -9.797174e-016
      vertex   -1.454000e+002 2.500000e+001 -9.797174e-016
    endloop
  endfacet
  facet normal 1.224647e-016 6.225288e-017 -1.000000e+000
    outer loop
      vertex   -1.435000e+002 3.700000e+001 0.000000e+000
      vertex   -1.454000e+002 2.500000e+001 -9.797174e-016
      vertex   -1.455000e+002 3.700000e+001 -2.449294e-016
    endloop
  endfacet
  facet normal -4.930381e-032 0.000000e+000 -1.000000e+000
    outer loop
      vertex   -1.435000e+002 4.300000e+001 -2.449294e-016
      vertex   -1.455000e+002 3.700000e+001 -2.449294e-016
      vertex   -1.455000e+002 4.300000e+001 -2.449294e-016
    endloop
  endfacet
  facet normal 1.224647e-016 -4.082156e-017 -1.000000e+000
    outer loop
      vertex   -1.435000e+002 4.300000e+001 -2.449294e-016
      vertex   -1.435000e+002 3.700000e+001 0.000000e+000
      vertex   -1.455000e+002 3.700000e+001 -2.449294e-016
    endloop
  endfacet
  facet normal 0.000000e+000 -0.000000e+000 -1.000000e+000
    outer loop
      vertex   -1.435000e+002 3.700000e+001 0.000000e+000
      vertex   -1.053333e+002 3.700000e+001 0.000000e+000
      vertex   -1.434000e+002 2.500000e+001 0.000000e+000
    endloop
  endfacet
  facet normal -1.000000e+000 0.000000e+000 0.000000e+000
    outer loop
      vertex   -1.454000e+002 3.700000e+001 5.620000e+001
      vertex   -1.454000e+002 3.500000e+001 5.620000e+001
      vertex   -1.454000e+002 3.700000e+001 5.820000e+001
    endloop
  endfacet
  facet normal -1.000000e+000 -0.000000e+000 0.000000e+000
    outer loop
      vertex   -1.454000e+002 3.700000e+001 5.820000e+001
      vertex   -1.454000e+002 3.500000e+001 5.620000e+001
      vertex   -1.454000e+002 3.500000e+001 5.820000e+001
    endloop
  endfacet
  facet normal 1.000000e+000 0.000000e+000 -0.000000e+000
    outer loop
      vertex   -1.414000e+002 3.500000e+001 5.620000e+001
      vertex   -1.414000e+002 3.700000e+001 5.620000e+001
      vertex   -1.414000e+002 3.500000e+001 5.820000e+001
    endloop
  endfacet
  facet normal 1.000000e+000 -0.000000e+000 0.000000e+000
    outer loop
      vertex   -1.414000e+002 3.500000e+001 5.820000e+001
      vertex   -1.414000e+002 3.700000e+001 5.620000e+001
      vertex   -1.414000e+002 3.700000e+001 5.820000e+001
    endloop
  endfacet
  facet normal 0.000000e+000 -0.000000e+000 1.000000e+000
    outer loop
      vertex   -1.414000e+002 3.500000e+001 5.820000e+001
      vertex   -1.414000e+002 3.700000e+001 5.820000e+001
      vertex   -1.454000e+002 3.500000e+001 5.820000e+001
    endloop
  endfacet
  facet normal 0.000000e+000 -0.000000e+000 1.000000e+000
    outer loop
      vertex   -1.454000e+002 3.500000e+001 5.820000e+001
      vertex   -1.414000e+002 3.700000e+001 5.820000e+001
      vertex   -1.454000e+002 3.700000e+001 5.820000e+001
    endloop
  endfacet
  facet normal 0.000000e+000 0.000000e+000 -1.000000e+000
    outer loop
      vertex   -1.414000e+002 3.500000e+001 5.620000e+001
      vertex   -1.414000e+002 3.700000e+001 5.620000e+001
      vertex   -1.414000e+002 3.500000e+001 5.620000e+001
    endloop
  endfacet
  facet normal 0.000000e+000 0.000000e+000 -1.000000e+000
    outer loop
      vertex   -1.414000e+002 3.500000e+001 5.620000e+001
      vertex   -1.414000e+002 3.700000e+001 5.620000e+001
      vertex   -1.414000e+002 3.700000e+001 5.620000e+001
    endloop
  endfacet
  facet normal -1.000000e+000 0.000000e+000 0.000000e+000
    outer loop
      vertex   -1.454000e+002 2.700000e+001 5.620000e+001
      vertex   -1.454000e+002 2.500000e+001 5.620000e+001
      vertex   -1.454000e+002 2.700000e+001 5.820000e+001
    endloop
  endfacet
  facet normal -1.000000e+000 -0.000000e+000 0.000000e+000
    outer loop
      vertex   -1.454000e+002 2.700000e+001 5.820000e+001
      vertex   -1.454000e+002 2.500000e+001 5.620000e+001
      vertex   -1.454000e+002 2.500000e+001 5.820000e+001
    endloop
  endfacet
  facet normal 1.000000e+000 0.000000e+000 -0.000000e+000
    outer loop
      vertex   -1.414000e+002 2.500000e+001 5.620000e+001
      vertex   -1.414000e+002 2.700000e+001 5.620000e+001
      vertex   -1.414000e+002 2.500000e+001 5.820000e+001
    endloop
  endfacet
  facet normal 1.000000e+000 -0.000000e+000 0.000000e+000
    outer loop
      vertex   -1.414000e+002 2.500000e+001 5.820000e+001
      vertex   -1.414000e+002 2.700000e+001 5.620000e+001
      vertex   -1.414000e+002 2.700000e+001 5.820000e+001
    endloop
  endfacet
  facet normal 0.000000e+000 -0.000000e+000 1.000000e+000
    outer loop
      vertex   -1.414000e+002 2.500000e+001 5.820000e+001
      vertex   -1.414000e+002 2.700000e+001 5.820000e+001
      vertex   -1.454000e+002 2.500000e+001 5.820000e+001
    endloop
  endfacet
  facet normal 0.000000e+000 -0.000000e+000 1.000000e+000
    outer loop
      vertex   -1.454000e+002 2.500000e+001 5.820000e+001
      vertex   -1.414000e+002 2.700000e+001 5.820000e+001
      vertex   -1.454000e+002 2.700000e+001 5.820000e+001
    endloop
  endfacet
  facet normal 1.564904e-010 0.000000e+000 -1.000000e+000
    outer loop
      vertex   -1.414000e+002 2.500000e+001 5.620000e+001
      vertex   -1.414000e+002 2.700000e+001 5.620000e+001
      vertex   -1.414000e+002 2.500000e+001 5.620000e+001
    endloop
  endfacet
  facet normal 1.564904e-010 0.000000e+000 -1.000000e+000
    outer loop
      vertex   -1.414000e+002 2.500000e+001 5.620000e+001
      vertex   -1.414000e+002 2.700000e+001 5.620000e+001
      vertex   -1.414000e+002 2.700000e+001 5.620000e+001
    endloop
  endfacet
  facet normal -1.000000e+000 0.000000e+000 0.000000e+000
    outer loop
      vertex   -3.099995e+001 2.700000e+001 5.620000e+001
      vertex   -3.099995e+001 2.500000e+001 5.620000e+001
      vertex   -3.099995e+001 2.700000e+001 5.820000e+001
    endloop
  endfacet
  facet normal -1.000000e+000 -0.000000e+000 0.000000e+000
    outer loop
      vertex   -3.099995e+001 2.700000e+001 5.820000e+001
      vertex   -3.099995e+001 2.500000e+001 5.620000e+001
      vertex   -3.099995e+001 2.500000e+001 5.820000e+001
    endloop
  endfacet
  facet normal 1.000000e+000 0.000000e+000 -0.000000e+000
    outer loop
      vertex   -2.699995e+001 2.500000e+001 5.620000e+001
      vertex   -2.699995e+001 2.700000e+001 5.620000e+001
      vertex   -2.699995e+001 2.500000e+001 5.820000e+001
    endloop
  endfacet
  facet normal 1.000000e+000 -0.000000e+000 0.000000e+000
    outer loop
      vertex   -2.699995e+001 2.500000e+001 5.820000e+001
      vertex   -2.699995e+001 2.700000e+001 5.620000e+001
      vertex   -2.699995e+001 2.700000e+001 5.820000e+001
    endloop
  endfacet
  facet normal 0.000000e+000 -0.000000e+000 1.000000e+000
    outer loop
      vertex   -2.699995e+001 2.500000e+001 5.820000e+001
      vertex   -2.699995e+001 2.700000e+001 5.820000e+001
      vertex   -3.099995e+001 2.500000e+001 5.820000e+001
    endloop
  endfacet
  facet normal 0.000000e+000 -0.000000e+000 1.000000e+000
    outer loop
      vertex   -3.099995e+001 2.500000e+001 5.820000e+001
      vertex   -2.699995e+001 2.700000e+001 5.820000e+001
      vertex   -3.099995e+001 2.700000e+001 5.820000e+001
    endloop
  endfacet
  facet normal 2.519654e-002 -0.000000e+000 9.996825e-001
    outer loop
      vertex   -3.099995e+001 2.500000e+001 5.620000e+001
      vertex   -3.099995e+001 2.700000e+001 5.620000e+001
      vertex   -3.100000e+001 2.500000e+001 5.620000e+001
    endloop
  endfacet
  facet normal 2.519654e-002 3.551586e-015 9.996825e-001
    outer loop
      vertex   -3.100000e+001 2.500000e+001 5.620000e+001
      vertex   -3.099995e+001 2.700000e+001 5.620000e+001
      vertex   -3.100000e+001 2.700000e+001 5.620000e+001
    endloop
  endfacet
  facet normal -0.000000e+000 -0.000000e+000 1.000000e+000
    outer loop
      vertex   -2.700000e+001 2.700000e+001 5.620000e+001
      vertex   -2.699995e+001 2.700000e+001 5.620000e+001
      vertex   -2.700000e+001 3.500000e+001 5.620000e+001
    endloop
  endfacet
  facet normal -5.722013e-007 -3.247591e-012 1.000000e+000
    outer loop
      vertex   -2.700000e+001 3.500000e+001 5.620000e+001
      vertex   -2.699995e+001 2.700000e+001 5.620000e+001
      vertex   -2.500000e+001 3.700000e+001 5.620000e+001
    endloop
  endfacet
  facet normal 1.811981e-006 -2.384186e-006 1.000000e+000
    outer loop
      vertex   -2.700000e+001 3.700000e+001 5.620000e+001
      vertex   -2.700000e+001 3.500000e+001 5.620000e+001
      vertex   -2.500000e+001 3.700000e+001 5.620000e+001
    endloop
  endfacet
  facet normal -5.722176e-007 0.000000e+000 1.000000e+000
    outer loop
      vertex   -2.699995e+001 2.500000e+001 5.620000e+001
      vertex   -2.500000e+001 2.500000e+001 5.620000e+001
      vertex   -2.699995e+001 2.700000e+001 5.620000e+001
    endloop
  endfacet
  facet normal -5.722176e-007 0.000000e+000 1.000000e+000
    outer loop
      vertex   -2.699995e+001 2.700000e+001 5.620000e+001
      vertex   -2.500000e+001 2.500000e+001 5.620000e+001
      vertex   -2.500000e+001 3.700000e+001 5.620000e+001
    endloop
  endfacet
  facet normal -1.000000e+000 0.000000e+000 0.000000e+000
    outer loop
      vertex   -3.099955e+001 3.700000e+001 5.620000e+001
      vertex   -3.099955e+001 3.500000e+001 5.620000e+001
      vertex   -3.099955e+001 3.700000e+001 5.820000e+001
    endloop
  endfacet
  facet normal -1.000000e+000 -0.000000e+000 0.000000e+000
    outer loop
      vertex   -3.099955e+001 3.700000e+001 5.820000e+001
      vertex   -3.099955e+001 3.500000e+001 5.620000e+001
      vertex   -3.099955e+001 3.500000e+001 5.820000e+001
    endloop
  endfacet
  facet normal 1.000000e+000 0.000000e+000 -0.000000e+000
    outer loop
      vertex   -2.700000e+001 3.500000e+001 5.620000e+001
      vertex   -2.700000e+001 3.700000e+001 5.620000e+001
      vertex   -2.700000e+001 3.500000e+001 5.820000e+001
    endloop
  endfacet
  facet normal 1.000000e+000 -0.000000e+000 0.000000e+000
    outer loop
      vertex   -2.700000e+001 3.500000e+001 5.820000e+001
      vertex   -2.700000e+001 3.700000e+001 5.620000e+001
      vertex   -2.700000e+001 3.700000e+001 5.820000e+001
    endloop
  endfacet
  facet normal 0.000000e+000 -0.000000e+000 1.000000e+000
    outer loop
      vertex   -2.700000e+001 3.500000e+001 5.820000e+001
      vertex   -2.700000e+001 3.700000e+001 5.820000e+001
      vertex   -3.099955e+001 3.500000e+001 5.820000e+001
    endloop
  endfacet
  facet normal 0.000000e+000 -0.000000e+000 1.000000e+000
    outer loop
      vertex   -3.099955e+001 3.500000e+001 5.820000e+001
      vertex   -2.700000e+001 3.700000e+001 5.820000e+001
      vertex   -3.099955e+001 3.700000e+001 5.820000e+001
    endloop
  endfacet
  facet normal -8.138969e-003 0.000000e+000 9.999669e-001
    outer loop
      vertex   -3.099955e+001 3.500000e+001 5.620000e+001
      vertex   -3.099955e+001 3.700000e+001 5.620000e+001
      vertex   -3.100000e+001 3.500000e+001 5.620000e+001
    endloop
  endfacet
  facet normal -1.070891e-002 5.721718e-007 9.999427e-001
    outer loop
      vertex   -3.100000e+001 3.500000e+001 5.620000e+001
      vertex   -3.099955e+001 3.700000e+001 5.620000e+001
      vertex   -3.100000e+001 3.700000e+001 5.620000e+001
    endloop
  endfacet
  facet normal -0.000000e+000 -1.000000e+000 -0.000000e+000
    outer loop
      vertex   -2.700000e+001 4.000000e+001 3.000000e+001
      vertex   -2.900000e+001 4.000000e+001 3.000000e+001
      vertex   -2.700000e+001 4.000000e+001 1.500000e+001
    endloop
  endfacet
  facet normal -0.000000e+000 -1.000000e+000 -0.000000e+000
    outer loop
      vertex   -2.700000e+001 4.000000e+001 1.500000e+001
      vertex   -2.900000e+001 4.000000e+001 3.000000e+001
      vertex   -2.900000e+001 4.000000e+001 1.500000e+001
    endloop
  endfacet
  facet normal 0.000000e+000 0.000000e+000 1.000000e+000
    outer loop
      vertex   -2.700000e+001 4.000000e+001 1.500000e+001
      vertex   -2.900000e+001 4.000000e+001 1.500000e+001
      vertex   -2.700000e+001 3.700000e+001 1.500000e+001
    endloop
  endfacet
  facet normal 0.000000e+000 0.000000e+000 1.000000e+000
    outer loop
      vertex   -2.700000e+001 3.700000e+001 1.500000e+001
      vertex   -2.900000e+001 4.000000e+001 1.500000e+001
      vertex   -2.900000e+001 3.700000e+001 1.500000e+001
    endloop
  endfacet
  facet normal -1.000000e+000 0.000000e+000 -0.000000e+000
    outer loop
      vertex   -2.900000e+001 3.700000e+001 1.500000e+001
      vertex   -2.900000e+001 4.000000e+001 1.500000e+001
      vertex   -2.900000e+001 3.700000e+001 -2.449294e-016
    endloop
  endfacet
  facet normal -1.000000e+000 0.000000e+000 0.000000e+000
    outer loop
      vertex   -2.900000e+001 3.700000e+001 -2.449294e-016
      vertex   -2.900000e+001 4.000000e+001 1.500000e+001
      vertex   -2.900000e+001 4.300000e+001 -2.449294e-016
    endloop
  endfacet
  facet normal -1.000000e+000 0.000000e+000 0.000000e+000
    outer loop
      vertex   -2.900000e+001 4.300000e+001 -2.449294e-016
      vertex   -2.900000e+001 4.000000e+001 1.500000e+001
      vertex   -2.900000e+001 4.300000e+001 3.000000e+001
    endloop
  endfacet
  facet normal -1.000000e+000 -0.000000e+000 0.000000e+000
    outer loop
      vertex   -2.900000e+001 4.300000e+001 3.000000e+001
      vertex   -2.900000e+001 4.000000e+001 1.500000e+001
      vertex   -2.900000e+001 4.000000e+001 3.000000e+001
    endloop
  endfacet
  facet normal 0.000000e+000 1.000000e+000 -0.000000e+000
    outer loop
      vertex   -2.900000e+001 3.700000e+001 -2.449294e-016
      vertex   -3.100000e+001 3.700000e+001 2.999999e+000
      vertex   -2.900000e+001 3.700000e+001 1.500000e+001
    endloop
  endfacet
  facet normal 0.000000e+000 1.000000e+000 -0.000000e+000
    outer loop
      vertex   -2.900000e+001 3.700000e+001 -2.449294e-016
      vertex   -6.716667e+001 3.700000e+001 0.000000e+000
      vertex   -3.100000e+001 3.700000e+001 2.999999e+000
    endloop
  endfacet
  facet normal 0.000000e+000 1.000000e+000 0.000000e+000
    outer loop
      vertex   -3.100000e+001 3.700000e+001 2.999999e+000
      vertex   -6.716667e+001 3.700000e+001 0.000000e+000
      vertex   -7.640000e+001 3.700000e+001 2.999999e+000
    endloop
  endfacet
  facet normal 0.000000e+000 1.000000e+000 0.000000e+000
    outer loop
      vertex   -7.640000e+001 3.700000e+001 2.999999e+000
      vertex   -6.716667e+001 3.700000e+001 0.000000e+000
      vertex   -9.600000e+001 3.700000e+001 2.999999e+000
    endloop
  endfacet
  facet normal 0.000000e+000 1.000000e+000 -0.000000e+000
    outer loop
      vertex   -7.640000e+001 3.700000e+001 5.620000e+001
      vertex   -9.600000e+001 3.700000e+001 2.999999e+000
      vertex   -9.600000e+001 3.700000e+001 5.620000e+001
    endloop
  endfacet
  facet normal 0.000000e+000 1.000000e+000 0.000000e+000
    outer loop
      vertex   -7.640000e+001 3.700000e+001 5.620000e+001
      vertex   -7.640000e+001 3.700000e+001 2.999999e+000
      vertex   -9.600000e+001 3.700000e+001 2.999999e+000
    endloop
  endfacet
  facet normal 0.000000e+000 1.000000e+000 -0.000000e+000
    outer loop
      vertex   -6.716667e+001 3.700000e+001 0.000000e+000
      vertex   -1.053333e+002 3.700000e+001 0.000000e+000
      vertex   -9.600000e+001 3.700000e+001 2.999999e+000
    endloop
  endfacet
  facet normal 0.000000e+000 1.000000e+000 0.000000e+000
    outer loop
      vertex   -9.600000e+001 3.700000e+001 2.999999e+000
      vertex   -1.053333e+002 3.700000e+001 0.000000e+000
      vertex   -1.414000e+002 3.700000e+001 2.999999e+000
    endloop
  endfacet
  facet normal 0.000000e+000 1.000000e+000 0.000000e+000
    outer loop
      vertex   -1.414000e+002 3.700000e+001 2.999999e+000
      vertex   -1.053333e+002 3.700000e+001 0.000000e+000
      vertex   -1.435000e+002 3.700000e+001 0.000000e+000
    endloop
  endfacet
  facet normal 0.000000e+000 1.000000e+000 0.000000e+000
    outer loop
      vertex   -1.435000e+002 3.700000e+001 1.500000e+001
      vertex   -1.414000e+002 3.700000e+001 2.999999e+000
      vertex   -1.435000e+002 3.700000e+001 0.000000e+000
    endloop
  endfacet
  facet normal -0.000000e+000 1.000000e+000 0.000000e+000
    outer loop
      vertex   -1.435000e+002 3.700000e+001 1.500000e+001
      vertex   -1.414000e+002 3.700000e+001 5.620000e+001
      vertex   -1.414000e+002 3.700000e+001 2.999999e+000
    endloop
  endfacet
  facet normal 0.000000e+000 1.000000e+000 -0.000000e+000
    outer loop
      vertex   -1.435000e+002 3.700000e+001 1.500000e+001
      vertex   -1.454000e+002 3.700000e+001 5.620000e+001
      vertex   -1.414000e+002 3.700000e+001 5.620000e+001
    endloop
  endfacet
  facet normal 0.000000e+000 1.000000e+000 -0.000000e+000
    outer loop
      vertex   -1.435000e+002 3.700000e+001 1.500000e+001
      vertex   -1.455000e+002 3.700000e+001 1.500000e+001
      vertex   -1.454000e+002 3.700000e+001 5.620000e+001
    endloop
  endfacet
  facet normal 0.000000e+000 1.000000e+000 0.000000e+000
    outer loop
      vertex   -1.454000e+002 3.700000e+001 5.620000e+001
      vertex   -1.455000e+002 3.700000e+001 1.500000e+001
      vertex   -1.474000e+002 3.700000e+001 5.620000e+001
    endloop
  endfacet
  facet normal 0.000000e+000 1.000000e+000 0.000000e+000
    outer loop
      vertex   -1.474000e+002 3.700000e+001 5.620000e+001
      vertex   -1.455000e+002 3.700000e+001 1.500000e+001
      vertex   -1.474000e+002 3.700000e+001 0.000000e+000
    endloop
  endfacet
  facet normal -0.000000e+000 1.000000e+000 0.000000e+000
    outer loop
      vertex   -1.474000e+002 3.700000e+001 0.000000e+000
      vertex   -1.455000e+002 3.700000e+001 1.500000e+001
      vertex   -1.455000e+002 3.700000e+001 -2.449294e-016
    endloop
  endfacet
  facet normal -0.000000e+000 1.000000e+000 0.000000e+000
    outer loop
      vertex   -1.454000e+002 3.700000e+001 5.620000e+001
      vertex   -1.454000e+002 3.700000e+001 5.820000e+001
      vertex   -1.414000e+002 3.700000e+001 5.620000e+001
    endloop
  endfacet
  facet normal 0.000000e+000 1.000000e+000 -0.000000e+000
    outer loop
      vertex   -1.414000e+002 3.700000e+001 5.620000e+001
      vertex   -1.454000e+002 3.700000e+001 5.820000e+001
      vertex   -1.414000e+002 3.700000e+001 5.820000e+001
    endloop
  endfacet
  facet normal 0.000000e+000 1.000000e+000 -0.000000e+000
    outer loop
      vertex   -1.414000e+002 3.700000e+001 5.620000e+001
      vertex   -1.414000e+002 3.700000e+001 5.620000e+001
      vertex   -1.414000e+002 3.700000e+001 5.820000e+001
    endloop
  endfacet
  facet normal -0.000000e+000 1.000000e+000 0.000000e+000
    outer loop
      vertex   -3.100000e+001 3.700000e+001 2.999999e+000
      vertex   -3.100000e+001 3.700000e+001 5.620000e+001
      vertex   -2.900000e+001 3.700000e+001 1.500000e+001
    endloop
  endfacet
  facet normal 0.000000e+000 1.000000e+000 -0.000000e+000
    outer loop
      vertex   -2.900000e+001 3.700000e+001 1.500000e+001
      vertex   -3.100000e+001 3.700000e+001 5.620000e+001
      vertex   -3.099955e+001 3.700000e+001 5.620000e+001
    endloop
  endfacet
  facet normal 0.000000e+000 1.000000e+000 -0.000000e+000
    outer loop
      vertex   -2.700000e+001 3.700000e+001 5.620000e+001
      vertex   -3.099955e+001 3.700000e+001 5.620000e+001
      vertex   -2.700000e+001 3.700000e+001 5.820000e+001
    endloop
  endfacet
  facet normal 0.000000e+000 1.000000e+000 0.000000e+000
    outer loop
      vertex   -2.700000e+001 3.700000e+001 5.620000e+001
      vertex   -2.900000e+001 3.700000e+001 1.500000e+001
      vertex   -3.099955e+001 3.700000e+001 5.620000e+001
    endloop
  endfacet
  facet normal 0.000000e+000 1.000000e+000 0.000000e+000
    outer loop
      vertex   -2.700000e+001 3.700000e+001 5.620000e+001
      vertex   -2.700000e+001 3.700000e+001 1.500000e+001
      vertex   -2.900000e+001 3.700000e+001 1.500000e+001
    endloop
  endfacet
  facet normal 0.000000e+000 1.000000e+000 0.000000e+000
    outer loop
      vertex   -2.700000e+001 3.700000e+001 5.620000e+001
      vertex   -2.500000e+001 3.700000e+001 5.620000e+001
      vertex   -2.700000e+001 3.700000e+001 1.500000e+001
    endloop
  endfacet
  facet normal -0.000000e+000 1.000000e+000 0.000000e+000
    outer loop
      vertex   -2.700000e+001 3.700000e+001 1.500000e+001
      vertex   -2.500000e+001 3.700000e+001 5.620000e+001
      vertex   -2.500000e+001 3.700000e+001 0.000000e+000
    endloop
  endfacet
  facet normal -0.000000e+000 1.000000e+000 0.000000e+000
    outer loop
      vertex   -2.700000e+001 3.700000e+001 0.000000e+000
      vertex   -2.700000e+001 3.700000e+001 1.500000e+001
      vertex   -2.500000e+001 3.700000e+001 0.000000e+000
    endloop
  endfacet
  facet normal 0.000000e+000 1.000000e+000 0.000000e+000
    outer loop
      vertex   -3.099955e+001 3.700000e+001 5.620000e+001
      vertex   -3.099955e+001 3.700000e+001 5.820000e+001
      vertex   -2.700000e+001 3.700000e+001 5.820000e+001
    endloop
  endfacet
  facet normal 0.000000e+000 -0.000000e+000 1.000000e+000
    outer loop
      vertex   -2.900000e+001 4.000000e+001 3.000000e+001
      vertex   -2.700000e+001 4.000000e+001 3.000000e+001
      vertex   -2.900000e+001 4.300000e+001 3.000000e+001
    endloop
  endfacet
  facet normal -0.000000e+000 0.000000e+000 1.000000e+000
    outer loop
      vertex   -2.900000e+001 4.300000e+001 3.000000e+001
      vertex   -2.700000e+001 4.000000e+001 3.000000e+001
      vertex   -2.700000e+001 4.300000e+001 3.000000e+001
    endloop
  endfacet
  facet normal -0.000000e+000 -1.000000e+000 -0.000000e+000
    outer loop
      vertex   -1.435000e+002 4.000000e+001 3.000000e+001
      vertex   -1.455000e+002 4.000000e+001 3.000000e+001
      vertex   -1.435000e+002 4.000000e+001 1.500000e+001
    endloop
  endfacet
  facet normal -0.000000e+000 -1.000000e+000 -0.000000e+000
    outer loop
      vertex   -1.435000e+002 4.000000e+001 1.500000e+001
      vertex   -1.455000e+002 4.000000e+001 3.000000e+001
      vertex   -1.455000e+002 4.000000e+001 1.500000e+001
    endloop
  endfacet
  facet normal 0.000000e+000 -0.000000e+000 1.000000e+000
    outer loop
      vertex   -1.455000e+002 3.700000e+001 1.500000e+001
      vertex   -1.435000e+002 3.700000e+001 1.500000e+001
      vertex   -1.455000e+002 4.000000e+001 1.500000e+001
    endloop
  endfacet
  facet normal -0.000000e+000 0.000000e+000 1.000000e+000
    outer loop
      vertex   -1.455000e+002 4.000000e+001 1.500000e+001
      vertex   -1.435000e+002 3.700000e+001 1.500000e+001
      vertex   -1.435000e+002 4.000000e+001 1.500000e+001
    endloop
  endfacet
  facet normal -1.000000e+000 0.000000e+000 -0.000000e+000
    outer loop
      vertex   -1.455000e+002 3.700000e+001 1.500000e+001
      vertex   -1.455000e+002 4.000000e+001 1.500000e+001
      vertex   -1.455000e+002 3.700000e+001 -2.449294e-016
    endloop
  endfacet
  facet normal -1.000000e+000 0.000000e+000 0.000000e+000
    outer loop
      vertex   -1.455000e+002 3.700000e+001 -2.449294e-016
      vertex   -1.455000e+002 4.000000e+001 1.500000e+001
      vertex   -1.455000e+002 4.300000e+001 -2.449294e-016
    endloop
  endfacet
  facet normal -1.000000e+000 0.000000e+000 0.000000e+000
    outer loop
      vertex   -1.455000e+002 4.300000e+001 -2.449294e-016
      vertex   -1.455000e+002 4.000000e+001 1.500000e+001
      vertex   -1.455000e+002 4.300000e+001 3.000000e+001
    endloop
  endfacet
  facet normal -1.000000e+000 -0.000000e+000 0.000000e+000
    outer loop
      vertex   -1.455000e+002 4.300000e+001 3.000000e+001
      vertex   -1.455000e+002 4.000000e+001 1.500000e+001
      vertex   -1.455000e+002 4.000000e+001 3.000000e+001
    endloop
  endfacet
  facet normal 1.000000e+000 -0.000000e+000 0.000000e+000
    outer loop
      vertex   -1.435000e+002 3.700000e+001 1.500000e+001
      vertex   -1.435000e+002 3.700000e+001 0.000000e+000
      vertex   -1.435000e+002 4.000000e+001 1.500000e+001
    endloop
  endfacet
  facet normal 1.000000e+000 0.000000e+000 0.000000e+000
    outer loop
      vertex   -1.435000e+002 4.000000e+001 1.500000e+001
      vertex   -1.435000e+002 3.700000e+001 0.000000e+000
      vertex   -1.435000e+002 4.300000e+001 -2.449294e-016
    endloop
  endfacet
  facet normal 1.000000e+000 0.000000e+000 0.000000e+000
    outer loop
      vertex   -1.435000e+002 4.300000e+001 3.000000e+001
      vertex   -1.435000e+002 4.000000e+001 1.500000e+001
      vertex   -1.435000e+002 4.300000e+001 -2.449294e-016
    endloop
  endfacet
  facet normal 1.000000e+000 0.000000e+000 0.000000e+000
    outer loop
      vertex   -1.435000e+002 4.300000e+001 3.000000e+001
      vertex   -1.435000e+002 4.000000e+001 3.000000e+001
      vertex   -1.435000e+002 4.000000e+001 1.500000e+001
    endloop
  endfacet
  facet normal 0.000000e+000 1.000000e+000 -0.000000e+000
    outer loop
      vertex   -1.435000e+002 4.300000e+001 -2.449294e-016
      vertex   -1.455000e+002 4.300000e+001 -2.449294e-016
      vertex   -1.435000e+002 4.300000e+001 3.000000e+001
    endloop
  endfacet
  facet normal 0.000000e+000 1.000000e+000 -0.000000e+000
    outer loop
      vertex   -1.435000e+002 4.300000e+001 3.000000e+001
      vertex   -1.455000e+002 4.300000e+001 -2.449294e-016
      vertex   -1.455000e+002 4.300000e+001 3.000000e+001
    endloop
  endfacet
  facet normal 0.000000e+000 -0.000000e+000 1.000000e+000
    outer loop
      vertex   -1.455000e+002 4.000000e+001 3.000000e+001
      vertex   -1.435000e+002 4.000000e+001 3.000000e+001
      vertex   -1.455000e+002 4.300000e+001 3.000000e+001
    endloop
  endfacet
  facet normal -0.000000e+000 0.000000e+000 1.000000e+000
    outer loop
      vertex   -1.455000e+002 4.300000e+001 3.000000e+001
      vertex   -1.435000e+002 4.000000e+001 3.000000e+001
      vertex   -1.435000e+002 4.300000e+001 3.000000e+001
    endloop
  endfacet
  facet normal 1.000000e+000 -0.000000e+000 0.000000e+000
    outer loop
      vertex   -2.700000e+001 3.700000e+001 1.500000e+001
      vertex   -2.700000e+001 3.700000e+001 0.000000e+000
      vertex   -2.700000e+001 4.000000e+001 1.500000e+001
    endloop
  endfacet
  facet normal 1.000000e+000 0.000000e+000 0.000000e+000
    outer loop
      vertex   -2.700000e+001 4.000000e+001 1.500000e+001
      vertex   -2.700000e+001 3.700000e+001 0.000000e+000
      vertex   -2.700000e+001 4.300000e+001 -2.449294e-016
    endloop
  endfacet
  facet normal 1.000000e+000 0.000000e+000 0.000000e+000
    outer loop
      vertex   -2.700000e+001 4.300000e+001 3.000000e+001
      vertex   -2.700000e+001 4.000000e+001 1.500000e+001
      vertex   -2.700000e+001 4.300000e+001 -2.449294e-016
    endloop
  endfacet
  facet normal 1.000000e+000 0.000000e+000 0.000000e+000
    outer loop
      vertex   -2.700000e+001 4.300000e+001 3.000000e+001
      vertex   -2.700000e+001 4.000000e+001 3.000000e+001
      vertex   -2.700000e+001 4.000000e+001 1.500000e+001
    endloop
  endfacet
  facet normal 0.000000e+000 1.000000e+000 -0.000000e+000
    outer loop
      vertex   -2.700000e+001 4.300000e+001 -2.449294e-016
      vertex   -2.900000e+001 4.300000e+001 -2.449294e-016
      vertex   -2.700000e+001 4.300000e+001 3.000000e+001
    endloop
  endfacet
  facet normal 0.000000e+000 1.000000e+000 -0.000000e+000
    outer loop
      vertex   -2.700000e+001 4.300000e+001 3.000000e+001
      vertex   -2.900000e+001 4.300000e+001 -2.449294e-016
      vertex   -2.900000e+001 4.300000e+001 3.000000e+001
    endloop
  endfacet
  facet normal 1.000000e+000 -0.000000e+000 0.000000e+000
    outer loop
      vertex   -7.640000e+001 2.500000e+001 5.620000e+001
      vertex   -7.640000e+001 2.500000e+001 2.999999e+000
      vertex   -7.640000e+001 2.700000e+001 5.620000e+001
    endloop
  endfacet
  facet normal 1.000000e+000 -0.000000e+000 0.000000e+000
    outer loop
      vertex   -7.640000e+001 2.700000e+001 5.620000e+001
      vertex   -7.640000e+001 2.500000e+001 2.999999e+000
      vertex   -7.640000e+001 2.700000e+001 2.999999e+000
    endloop
  endfacet
  facet normal -1.000000e+000 0.000000e+000 0.000000e+000
    outer loop
      vertex   -3.100000e+001 2.500000e+001 2.999999e+000
      vertex   -3.100000e+001 2.500000e+001 5.620000e+001
      vertex   -3.100000e+001 2.700000e+001 2.999999e+000
    endloop
  endfacet
  facet normal -1.000000e+000 0.000000e+000 0.000000e+000
    outer loop
      vertex   -3.100000e+001 2.700000e+001 2.999999e+000
      vertex   -3.100000e+001 2.500000e+001 5.620000e+001
      vertex   -3.100000e+001 2.700000e+001 5.620000e+001
    endloop
  endfacet
  facet normal -1.000000e+000 -0.000000e+000 0.000000e+000
    outer loop
      vertex   -3.100000e+001 3.700000e+001 2.999999e+000
      vertex   -3.100000e+001 3.500000e+001 2.999999e+000
      vertex   -3.100000e+001 3.700000e+001 5.620000e+001
    endloop
  endfacet
  facet normal -1.000000e+000 -0.000000e+000 0.000000e+000
    outer loop
      vertex   -3.100000e+001 3.700000e+001 5.620000e+001
      vertex   -3.100000e+001 3.500000e+001 2.999999e+000
      vertex   -3.100000e+001 3.500000e+001 5.620000e+001
    endloop
  endfacet
  facet normal 1.000000e+000 0.000000e+000 -0.000000e+000
    outer loop
      vertex   -7.640000e+001 3.700000e+001 2.999999e+000
      vertex   -7.640000e+001 3.700000e+001 5.620000e+001
      vertex   -7.640000e+001 3.500000e+001 2.999999e+000
    endloop
  endfacet
  facet normal 1.000000e+000 0.000000e+000 -0.000000e+000
    outer loop
      vertex   -7.640000e+001 3.500000e+001 2.999999e+000
      vertex   -7.640000e+001 3.700000e+001 5.620000e+001
      vertex   -7.640000e+001 3.500000e+001 5.620000e+001
    endloop
  endfacet
  facet normal 0.000000e+000 -1.000000e+000 0.000000e+000
    outer loop
      vertex   -3.100000e+001 3.500000e+001 5.620000e+001
      vertex   -3.100000e+001 3.500000e+001 2.999999e+000
      vertex   -3.099955e+001 3.500000e+001 5.620000e+001
    endloop
  endfacet
  facet normal 0.000000e+000 -1.000000e+000 -0.000000e+000
    outer loop
      vertex   -3.099955e+001 3.500000e+001 5.620000e+001
      vertex   -3.100000e+001 3.500000e+001 2.999999e+000
      vertex   -2.700000e+001 3.500000e+001 2.999999e+000
    endloop
  endfacet
  facet normal -0.000000e+000 -1.000000e+000 -0.000000e+000
    outer loop
      vertex   -2.700000e+001 3.500000e+001 5.620000e+001
      vertex   -3.099955e+001 3.500000e+001 5.620000e+001
      vertex   -2.700000e+001 3.500000e+001 2.999999e+000
    endloop
  endfacet
  facet normal -0.000000e+000 -1.000000e+000 0.000000e+000
    outer loop
      vertex   -2.700000e+001 3.500000e+001 5.620000e+001
      vertex   -2.700000e+001 3.500000e+001 5.820000e+001
      vertex   -3.099955e+001 3.500000e+001 5.620000e+001
    endloop
  endfacet
  facet normal 0.000000e+000 -1.000000e+000 0.000000e+000
    outer loop
      vertex   -3.099955e+001 3.500000e+001 5.620000e+001
      vertex   -2.700000e+001 3.500000e+001 5.820000e+001
      vertex   -3.099955e+001 3.500000e+001 5.820000e+001
    endloop
  endfacet
  facet normal 7.824521e-011 1.000000e+000 0.000000e+000
    outer loop
      vertex   -3.100000e+001 2.700000e+001 5.620000e+001
      vertex   -3.099995e+001 2.700000e+001 5.620000e+001
      vertex   -3.100000e+001 2.700000e+001 2.999999e+000
    endloop
  endfacet
  facet normal -1.186257e-031 1.000000e+000 6.678033e-017
    outer loop
      vertex   -3.100000e+001 2.700000e+001 2.999999e+000
      vertex   -3.099995e+001 2.700000e+001 5.620000e+001
      vertex   -2.700000e+001 2.700000e+001 2.999999e+000
    endloop
  endfacet
  facet normal -8.881885e-016 1.000000e+000 0.000000e+000
    outer loop
      vertex   -2.700000e+001 2.700000e+001 2.999999e+000
      vertex   -3.099995e+001 2.700000e+001 5.620000e+001
      vertex   -2.700000e+001 2.700000e+001 5.620000e+001
    endloop
  endfacet
  facet normal -8.881885e-016 1.000000e+000 0.000000e+000
    outer loop
      vertex   -2.700000e+001 2.700000e+001 5.620000e+001
      vertex   -3.099995e+001 2.700000e+001 5.620000e+001
      vertex   -3.099995e+001 2.700000e+001 5.820000e+001
    endloop
  endfacet
  facet normal 0.000000e+000 1.000000e+000 1.776357e-015
    outer loop
      vertex   -2.699995e+001 2.700000e+001 5.820000e+001
      vertex   -2.700000e+001 2.700000e+001 5.620000e+001
      vertex   -3.099995e+001 2.700000e+001 5.820000e+001
    endloop
  endfacet
  facet normal 7.824521e-011 1.000000e+000 0.000000e+000
    outer loop
      vertex   -2.699995e+001 2.700000e+001 5.820000e+001
      vertex   -2.699995e+001 2.700000e+001 5.620000e+001
      vertex   -2.700000e+001 2.700000e+001 5.620000e+001
    endloop
  endfacet
  facet normal 1.000000e+000 0.000000e+000 -0.000000e+000
    outer loop
      vertex   -1.414000e+002 2.700000e+001 2.999999e+000
      vertex   -1.414000e+002 2.700000e+001 5.620000e+001
      vertex   -1.414000e+002 2.500000e+001 2.999999e+000
    endloop
  endfacet
  facet normal 1.000000e+000 0.000000e+000 -0.000000e+000
    outer loop
      vertex   -1.414000e+002 2.500000e+001 2.999999e+000
      vertex   -1.414000e+002 2.700000e+001 5.620000e+001
      vertex   -1.414000e+002 2.500000e+001 5.620000e+001
    endloop
  endfacet
  facet normal -1.000000e+000 -0.000000e+000 -0.000000e+000
    outer loop
      vertex   -9.600000e+001 2.700000e+001 5.620000e+001
      vertex   -9.600000e+001 2.700000e+001 2.999999e+000
      vertex   -9.600000e+001 2.500000e+001 5.620000e+001
    endloop
  endfacet
  facet normal -1.000000e+000 0.000000e+000 -0.000000e+000
    outer loop
      vertex   -9.600000e+001 2.500000e+001 5.620000e+001
      vertex   -9.600000e+001 2.700000e+001 2.999999e+000
      vertex   -9.600000e+001 2.500000e+001 2.999999e+000
    endloop
  endfacet
  facet normal -1.000000e+000 -0.000000e+000 -0.000000e+000
    outer loop
      vertex   -9.600000e+001 3.700000e+001 5.620000e+001
      vertex   -9.600000e+001 3.700000e+001 2.999999e+000
      vertex   -9.600000e+001 3.500000e+001 5.620000e+001
    endloop
  endfacet
  facet normal -1.000000e+000 0.000000e+000 -0.000000e+000
    outer loop
      vertex   -9.600000e+001 3.500000e+001 5.620000e+001
      vertex   -9.600000e+001 3.700000e+001 2.999999e+000
      vertex   -9.600000e+001 3.500000e+001 2.999999e+000
    endloop
  endfacet
  facet normal 1.000000e+000 0.000000e+000 -0.000000e+000
    outer loop
      vertex   -1.414000e+002 3.700000e+001 2.999999e+000
      vertex   -1.414000e+002 3.700000e+001 5.620000e+001
      vertex   -1.414000e+002 3.500000e+001 2.999999e+000
    endloop
  endfacet
  facet normal 1.000000e+000 0.000000e+000 -0.000000e+000
    outer loop
      vertex   -1.414000e+002 3.500000e+001 2.999999e+000
      vertex   -1.414000e+002 3.700000e+001 5.620000e+001
      vertex   -1.414000e+002 3.500000e+001 5.620000e+001
    endloop
  endfacet
  facet normal 0.000000e+000 -1.000000e+000 0.000000e+000
    outer loop
      vertex   -9.600000e+001 3.500000e+001 2.999999e+000
      vertex   -9.200000e+001 3.500000e+001 2.999999e+000
      vertex   -9.600000e+001 3.500000e+001 5.620000e+001
    endloop
  endfacet
  facet normal 0.000000e+000 -1.000000e+000 0.000000e+000
    outer loop
      vertex   -9.600000e+001 3.500000e+001 5.620000e+001
      vertex   -9.200000e+001 3.500000e+001 2.999999e+000
      vertex   -9.200000e+001 3.500000e+001 5.620000e+001
    endloop
  endfacet
  facet normal -0.000000e+000 1.000000e+000 0.000000e+000
    outer loop
      vertex   -9.600000e+001 2.700000e+001 5.620000e+001
      vertex   -9.200000e+001 2.700000e+001 5.620000e+001
      vertex   -9.600000e+001 2.700000e+001 2.999999e+000
    endloop
  endfacet
  facet normal -0.000000e+000 1.000000e+000 0.000000e+000
    outer loop
      vertex   -9.600000e+001 2.700000e+001 2.999999e+000
      vertex   -9.200000e+001 2.700000e+001 5.620000e+001
      vertex   -9.200000e+001 2.700000e+001 2.999999e+000
    endloop
  endfacet
  facet normal -2.861023e-007 5.722046e-007 1.000000e+000
    outer loop
      vertex   -7.640000e+001 3.500000e+001 5.620000e+001
      vertex   -7.640000e+001 3.700000e+001 5.620000e+001
      vertex   -8.040000e+001 3.500000e+001 5.620000e+001
    endloop
  endfacet
  facet normal 0.000000e+000 -0.000000e+000 1.000000e+000
    outer loop
      vertex   -8.040000e+001 3.500000e+001 5.620000e+001
      vertex   -7.640000e+001 3.700000e+001 5.620000e+001
      vertex   -8.240000e+001 3.500000e+001 5.620000e+001
    endloop
  endfacet
  facet normal 3.552714e-015 0.000000e+000 1.000000e+000
    outer loop
      vertex   -8.040000e+001 2.700000e+001 5.620000e+001
      vertex   -8.240000e+001 3.500000e+001 5.620000e+001
      vertex   -8.240000e+001 2.700000e+001 5.620000e+001
    endloop
  endfacet
  facet normal 0.000000e+000 5.722046e-007 1.000000e+000
    outer loop
      vertex   -7.640000e+001 2.500000e+001 5.620000e+001
      vertex   -8.240000e+001 2.700000e+001 5.620000e+001
      vertex   -9.000000e+001 2.700000e+001 5.620000e+001
    endloop
  endfacet
  facet normal 1.262177e-029 -3.552714e-015 1.000000e+000
    outer loop
      vertex   -9.600000e+001 2.500000e+001 5.620000e+001
      vertex   -9.000000e+001 2.700000e+001 5.620000e+001
      vertex   -9.200000e+001 2.700000e+001 5.620000e+001
    endloop
  endfacet
  facet normal -1.776357e-015 0.000000e+000 1.000000e+000
    outer loop
      vertex   -9.600000e+001 2.700000e+001 5.620000e+001
      vertex   -9.600000e+001 2.500000e+001 5.620000e+001
      vertex   -9.200000e+001 2.700000e+001 5.620000e+001
    endloop
  endfacet
  facet normal 0.000000e+000 0.000000e+000 1.000000e+000
    outer loop
      vertex   -7.640000e+001 3.700000e+001 5.620000e+001
      vertex   -9.600000e+001 3.700000e+001 5.620000e+001
      vertex   -8.240000e+001 3.500000e+001 5.620000e+001
    endloop
  endfacet
  facet normal 0.000000e+000 0.000000e+000 1.000000e+000
    outer loop
      vertex   -8.240000e+001 3.500000e+001 5.620000e+001
      vertex   -9.600000e+001 3.700000e+001 5.620000e+001
      vertex   -9.000000e+001 3.500000e+001 5.620000e+001
    endloop
  endfacet
  facet normal 3.552714e-015 1.065814e-014 1.000000e+000
    outer loop
      vertex   -9.000000e+001 3.500000e+001 5.620000e+001
      vertex   -9.600000e+001 3.700000e+001 5.620000e+001
      vertex   -9.200000e+001 3.500000e+001 5.620000e+001
    endloop
  endfacet
  facet normal 3.155444e-030 -8.881784e-016 1.000000e+000
    outer loop
      vertex   -9.000000e+001 2.700000e+001 5.620000e+001
      vertex   -9.200000e+001 3.500000e+001 5.620000e+001
      vertex   -9.200000e+001 2.700000e+001 5.620000e+001
    endloop
  endfacet
  facet normal 3.552714e-015 -0.000000e+000 1.000000e+000
    outer loop
      vertex   -9.000000e+001 2.700000e+001 5.620000e+001
      vertex   -9.000000e+001 3.500000e+001 5.620000e+001
      vertex   -9.200000e+001 3.500000e+001 5.620000e+001
    endloop
  endfacet
  facet normal -1.776357e-015 0.000000e+000 1.000000e+000
    outer loop
      vertex   -9.600000e+001 3.700000e+001 5.620000e+001
      vertex   -9.600000e+001 3.500000e+001 5.620000e+001
      vertex   -9.200000e+001 3.500000e+001 5.620000e+001
    endloop
  endfacet
  facet normal -5.838822e-008 1.751647e-007 1.000000e+000
    outer loop
      vertex   -9.600000e+001 2.500000e+001 5.620000e+001
      vertex   -7.640000e+001 2.500000e+001 5.620000e+001
      vertex   -9.000000e+001 2.700000e+001 5.620000e+001
    endloop
  endfacet
  facet normal -2.861023e-007 0.000000e+000 1.000000e+000
    outer loop
      vertex   -7.640000e+001 2.700000e+001 5.620000e+001
      vertex   -8.040000e+001 2.700000e+001 5.620000e+001
      vertex   -7.640000e+001 2.500000e+001 5.620000e+001
    endloop
  endfacet
  facet normal 3.552714e-015 5.722046e-007 1.000000e+000
    outer loop
      vertex   -7.640000e+001 2.500000e+001 5.620000e+001
      vertex   -8.040000e+001 2.700000e+001 5.620000e+001
      vertex   -8.240000e+001 2.700000e+001 5.620000e+001
    endloop
  endfacet
  facet normal 0.000000e+000 -8.881784e-016 1.000000e+000
    outer loop
      vertex   -8.040000e+001 2.700000e+001 5.620000e+001
      vertex   -8.040000e+001 3.500000e+001 5.620000e+001
      vertex   -8.240000e+001 3.500000e+001 5.620000e+001
    endloop
  endfacet
  facet normal -1.000000e+000 0.000000e+000 -0.000000e+000
    outer loop
      vertex   -8.240000e+001 2.700000e+001 5.620000e+001
      vertex   -8.240000e+001 3.500000e+001 5.620000e+001
      vertex   -8.240000e+001 2.700000e+001 2.999999e+000
    endloop
  endfacet
  facet normal -1.000000e+000 0.000000e+000 0.000000e+000
    outer loop
      vertex   -8.240000e+001 2.700000e+001 2.999999e+000
      vertex   -8.240000e+001 3.500000e+001 5.620000e+001
      vertex   -8.240000e+001 3.500000e+001 2.999999e+000
    endloop
  endfacet
  facet normal -0.000000e+000 -1.000000e+000 -0.000000e+000
    outer loop
      vertex   -8.240000e+001 3.500000e+001 5.620000e+001
      vertex   -9.000000e+001 3.500000e+001 5.620000e+001
      vertex   -8.240000e+001 3.500000e+001 2.999999e+000
    endloop
  endfacet
  facet normal -0.000000e+000 -1.000000e+000 -0.000000e+000
    outer loop
      vertex   -8.240000e+001 3.500000e+001 2.999999e+000
      vertex   -9.000000e+001 3.500000e+001 5.620000e+001
      vertex   -9.000000e+001 3.500000e+001 2.999999e+000
    endloop
  endfacet
  facet normal 1.000000e+000 0.000000e+000 0.000000e+000
    outer loop
      vertex   -9.000000e+001 3.500000e+001 5.620000e+001
      vertex   -9.000000e+001 2.700000e+001 5.620000e+001
      vertex   -9.000000e+001 3.500000e+001 2.999999e+000
    endloop
  endfacet
  facet normal 1.000000e+000 0.000000e+000 0.000000e+000
    outer loop
      vertex   -9.000000e+001 3.500000e+001 2.999999e+000
      vertex   -9.000000e+001 2.700000e+001 5.620000e+001
      vertex   -9.000000e+001 2.700000e+001 2.999999e+000
    endloop
  endfacet
  facet normal -0.000000e+000 1.000000e+000 0.000000e+000
    outer loop
      vertex   -9.000000e+001 2.700000e+001 5.620000e+001
      vertex   -8.240000e+001 2.700000e+001 5.620000e+001
      vertex   -9.000000e+001 2.700000e+001 2.999999e+000
    endloop
  endfacet
  facet normal -0.000000e+000 1.000000e+000 0.000000e+000
    outer loop
      vertex   -9.000000e+001 2.700000e+001 2.999999e+000
      vertex   -8.240000e+001 2.700000e+001 5.620000e+001
      vertex   -8.240000e+001 2.700000e+001 2.999999e+000
    endloop
  endfacet
  facet normal 0.000000e+000 -0.000000e+000 1.000000e+000
    outer loop
      vertex   -9.000000e+001 2.700000e+001 2.999999e+000
      vertex   -8.240000e+001 2.700000e+001 2.999999e+000
      vertex   -9.000000e+001 3.500000e+001 2.999999e+000
    endloop
  endfacet
  facet normal -0.000000e+000 0.000000e+000 1.000000e+000
    outer loop
      vertex   -9.000000e+001 3.500000e+001 2.999999e+000
      vertex   -8.240000e+001 2.700000e+001 2.999999e+000
      vertex   -8.240000e+001 3.500000e+001 2.999999e+000
    endloop
  endfacet
  facet normal 1.000000e+000 0.000000e+000 0.000000e+000
    outer loop
      vertex   -8.040000e+001 3.500000e+001 5.620000e+001
      vertex   -8.040000e+001 2.700000e+001 5.620000e+001
      vertex   -8.040000e+001 3.500000e+001 2.999999e+000
    endloop
  endfacet
  facet normal 1.000000e+000 0.000000e+000 0.000000e+000
    outer loop
      vertex   -8.040000e+001 3.500000e+001 2.999999e+000
      vertex   -8.040000e+001 2.700000e+001 5.620000e+001
      vertex   -8.040000e+001 2.700000e+001 2.999999e+000
    endloop
  endfacet
  facet normal 0.000000e+000 1.000000e+000 0.000000e+000
    outer loop
      vertex   -7.640000e+001 2.700000e+001 5.620000e+001
      vertex   -7.640000e+001 2.700000e+001 2.999999e+000
      vertex   -8.040000e+001 2.700000e+001 5.620000e+001
    endloop
  endfacet
  facet normal 0.000000e+000 1.000000e+000 0.000000e+000
    outer loop
      vertex   -8.040000e+001 2.700000e+001 5.620000e+001
      vertex   -7.640000e+001 2.700000e+001 2.999999e+000
      vertex   -8.040000e+001 2.700000e+001 2.999999e+000
    endloop
  endfacet
  facet normal -1.000000e+000 0.000000e+000 -0.000000e+000
    outer loop
      vertex   -2.700000e+001 2.700000e+001 5.620000e+001
      vertex   -2.700000e+001 3.500000e+001 5.620000e+001
      vertex   -2.700000e+001 2.700000e+001 2.999999e+000
    endloop
  endfacet
  facet normal -1.000000e+000 0.000000e+000 0.000000e+000
    outer loop
      vertex   -2.700000e+001 2.700000e+001 2.999999e+000
      vertex   -2.700000e+001 3.500000e+001 5.620000e+001
      vertex   -2.700000e+001 3.500000e+001 2.999999e+000
    endloop
  endfacet
  facet normal 0.000000e+000 -1.000000e+000 -0.000000e+000
    outer loop
      vertex   -7.640000e+001 3.500000e+001 5.620000e+001
      vertex   -8.040000e+001 3.500000e+001 5.620000e+001
      vertex   -7.640000e+001 3.500000e+001 2.999999e+000
    endloop
  endfacet
  facet normal -0.000000e+000 -1.000000e+000 -0.000000e+000
    outer loop
      vertex   -7.640000e+001 3.500000e+001 2.999999e+000
      vertex   -8.040000e+001 3.500000e+001 5.620000e+001
      vertex   -8.040000e+001 3.500000e+001 2.999999e+000
    endloop
  endfacet
  facet normal 5.551115e-016 -5.551115e-016 1.000000e+000
    outer loop
      vertex   -8.040000e+001 3.500000e+001 2.999999e+000
      vertex   -7.640000e+001 2.700000e+001 2.999999e+000
      vertex   -7.640000e+001 3.500000e+001 2.999999e+000
    endloop
  endfacet
  facet normal -5.551115e-016 -1.110223e-015 1.000000e+000
    outer loop
      vertex   -8.040000e+001 3.500000e+001 2.999999e+000
      vertex   -8.040000e+001 2.700000e+001 2.999999e+000
      vertex   -7.640000e+001 2.700000e+001 2.999999e+000
    endloop
  endfacet
  facet normal 0.000000e+000 -6.661338e-016 1.000000e+000
    outer loop
      vertex   -7.640000e+001 2.500000e+001 2.999999e+000
      vertex   -3.100000e+001 2.500000e+001 2.999999e+000
      vertex   -7.640000e+001 2.700000e+001 2.999999e+000
    endloop
  endfacet
  facet normal 0.000000e+000 -6.661338e-016 1.000000e+000
    outer loop
      vertex   -7.640000e+001 2.700000e+001 2.999999e+000
      vertex   -3.100000e+001 2.500000e+001 2.999999e+000
      vertex   -3.100000e+001 2.700000e+001 2.999999e+000
    endloop
  endfacet
  facet normal 0.000000e+000 -5.551115e-016 1.000000e+000
    outer loop
      vertex   -7.640000e+001 3.500000e+001 2.999999e+000
      vertex   -3.100000e+001 2.700000e+001 2.999999e+000
      vertex   -3.100000e+001 3.500000e+001 2.999999e+000
    endloop
  endfacet
  facet normal 0.000000e+000 -6.661338e-016 1.000000e+000
    outer loop
      vertex   -7.640000e+001 3.700000e+001 2.999999e+000
      vertex   -3.100000e+001 3.500000e+001 2.999999e+000
      vertex   -3.100000e+001 3.700000e+001 2.999999e+000
    endloop
  endfacet
  facet normal 0.000000e+000 -6.661338e-016 1.000000e+000
    outer loop
      vertex   -7.640000e+001 3.700000e+001 2.999999e+000
      vertex   -7.640000e+001 3.500000e+001 2.999999e+000
      vertex   -3.100000e+001 3.500000e+001 2.999999e+000
    endloop
  endfacet
  facet normal -1.665335e-015 -5.551115e-016 1.000000e+000
    outer loop
      vertex   -3.100000e+001 2.700000e+001 2.999999e+000
      vertex   -2.700000e+001 2.700000e+001 2.999999e+000
      vertex   -3.100000e+001 3.500000e+001 2.999999e+000
    endloop
  endfacet
  facet normal -5.551115e-016 0.000000e+000 1.000000e+000
    outer loop
      vertex   -3.100000e+001 3.500000e+001 2.999999e+000
      vertex   -2.700000e+001 2.700000e+001 2.999999e+000
      vertex   -2.700000e+001 3.500000e+001 2.999999e+000
    endloop
  endfacet
  facet normal 0.000000e+000 -5.551115e-016 1.000000e+000
    outer loop
      vertex   -7.640000e+001 2.700000e+001 2.999999e+000
      vertex   -3.100000e+001 2.700000e+001 2.999999e+000
      vertex   -7.640000e+001 3.500000e+001 2.999999e+000
    endloop
  endfacet
  facet normal 8.881885e-016 1.000000e+000 0.000000e+000
    outer loop
      vertex   -1.414000e+002 2.700000e+001 2.999999e+000
      vertex   -1.454000e+002 2.700000e+001 5.620000e+001
      vertex   -1.414000e+002 2.700000e+001 5.620000e+001
    endloop
  endfacet
  facet normal -1.112116e-031 1.000000e+000 -6.678033e-017
    outer loop
      vertex   -1.414000e+002 2.700000e+001 2.999999e+000
      vertex   -1.454000e+002 2.700000e+001 2.999999e+000
      vertex   -1.454000e+002 2.700000e+001 5.620000e+001
    endloop
  endfacet
  facet normal -7.824521e-011 1.000000e+000 0.000000e+000
    outer loop
      vertex   -1.454000e+002 2.700000e+001 5.620000e+001
      vertex   -1.454000e+002 2.700000e+001 2.999999e+000
      vertex   -1.454000e+002 2.700000e+001 5.620000e+001
    endloop
  endfacet
  facet normal 8.881885e-016 1.000000e+000 -0.000000e+000
    outer loop
      vertex   -1.454000e+002 2.700000e+001 5.620000e+001
      vertex   -1.454000e+002 2.700000e+001 5.820000e+001
      vertex   -1.414000e+002 2.700000e+001 5.620000e+001
    endloop
  endfacet
  facet normal 0.000000e+000 1.000000e+000 -1.776357e-015
    outer loop
      vertex   -1.414000e+002 2.700000e+001 5.620000e+001
      vertex   -1.454000e+002 2.700000e+001 5.820000e+001
      vertex   -1.414000e+002 2.700000e+001 5.820000e+001
    endloop
  endfacet
  facet normal -7.824521e-011 1.000000e+000 0.000000e+000
    outer loop
      vertex   -1.414000e+002 2.700000e+001 5.620000e+001
      vertex   -1.414000e+002 2.700000e+001 5.620000e+001
      vertex   -1.414000e+002 2.700000e+001 5.820000e+001
    endloop
  endfacet
  facet normal -1.000000e+000 0.000000e+000 -0.000000e+000
    outer loop
      vertex   -9.200000e+001 2.700000e+001 5.620000e+001
      vertex   -9.200000e+001 3.500000e+001 5.620000e+001
      vertex   -9.200000e+001 2.700000e+001 2.999999e+000
    endloop
  endfacet
  facet normal -1.000000e+000 0.000000e+000 0.000000e+000
    outer loop
      vertex   -9.200000e+001 2.700000e+001 2.999999e+000
      vertex   -9.200000e+001 3.500000e+001 5.620000e+001
      vertex   -9.200000e+001 3.500000e+001 2.999999e+000
    endloop
  endfacet
  facet normal 0.000000e+000 -1.000000e+000 0.000000e+000
    outer loop
      vertex   -1.454000e+002 3.500000e+001 2.999999e+000
      vertex   -1.414000e+002 3.500000e+001 2.999999e+000
      vertex   -1.454000e+002 3.500000e+001 5.620000e+001
    endloop
  endfacet
  facet normal 0.000000e+000 -1.000000e+000 0.000000e+000
    outer loop
      vertex   -1.454000e+002 3.500000e+001 5.620000e+001
      vertex   -1.454000e+002 3.500000e+001 2.999999e+000
      vertex   -1.454000e+002 3.500000e+001 5.620000e+001
    endloop
  endfacet
  facet normal -0.000000e+000 -1.000000e+000 0.000000e+000
    outer loop
      vertex   -1.414000e+002 3.500000e+001 5.620000e+001
      vertex   -1.414000e+002 3.500000e+001 5.820000e+001
      vertex   -1.414000e+002 3.500000e+001 5.620000e+001
    endloop
  endfacet
  facet normal 0.000000e+000 -1.000000e+000 0.000000e+000
    outer loop
      vertex   -1.414000e+002 3.500000e+001 5.620000e+001
      vertex   -1.414000e+002 3.500000e+001 5.820000e+001
      vertex   -1.454000e+002 3.500000e+001 5.820000e+001
    endloop
  endfacet
  facet normal 0.000000e+000 -1.000000e+000 0.000000e+000
    outer loop
      vertex   -1.454000e+002 3.500000e+001 5.620000e+001
      vertex   -1.414000e+002 3.500000e+001 5.620000e+001
      vertex   -1.454000e+002 3.500000e+001 5.820000e+001
    endloop
  endfacet
  facet normal 0.000000e+000 -1.000000e+000 0.000000e+000
    outer loop
      vertex   -1.454000e+002 3.500000e+001 5.620000e+001
      vertex   -1.414000e+002 3.500000e+001 2.999999e+000
      vertex   -1.414000e+002 3.500000e+001 5.620000e+001
    endloop
  endfacet
  facet normal 1.000000e+000 0.000000e+000 0.000000e+000
    outer loop
      vertex   -1.454000e+002 3.500000e+001 5.620000e+001
      vertex   -1.454000e+002 2.700000e+001 5.620000e+001
      vertex   -1.454000e+002 3.500000e+001 2.999999e+000
    endloop
  endfacet
  facet normal 1.000000e+000 0.000000e+000 0.000000e+000
    outer loop
      vertex   -1.454000e+002 3.500000e+001 2.999999e+000
      vertex   -1.454000e+002 2.700000e+001 5.620000e+001
      vertex   -1.454000e+002 2.700000e+001 2.999999e+000
    endloop
  endfacet
  facet normal 5.551115e-016 -5.551115e-016 1.000000e+000
    outer loop
      vertex   -1.454000e+002 3.500000e+001 2.999999e+000
      vertex   -1.414000e+002 2.700000e+001 2.999999e+000
      vertex   -1.414000e+002 3.500000e+001 2.999999e+000
    endloop
  endfacet
  facet normal 1.665335e-015 0.000000e+000 1.000000e+000
    outer loop
      vertex   -1.454000e+002 3.500000e+001 2.999999e+000
      vertex   -1.454000e+002 2.700000e+001 2.999999e+000
      vertex   -1.414000e+002 2.700000e+001 2.999999e+000
    endloop
  endfacet
  facet normal 0.000000e+000 -6.661338e-016 1.000000e+000
    outer loop
      vertex   -1.414000e+002 2.500000e+001 2.999999e+000
      vertex   -9.600000e+001 2.500000e+001 2.999999e+000
      vertex   -1.414000e+002 2.700000e+001 2.999999e+000
    endloop
  endfacet
  facet normal 0.000000e+000 -6.661338e-016 1.000000e+000
    outer loop
      vertex   -1.414000e+002 2.700000e+001 2.999999e+000
      vertex   -9.600000e+001 2.500000e+001 2.999999e+000
      vertex   -9.600000e+001 2.700000e+001 2.999999e+000
    endloop
  endfacet
  facet normal 0.000000e+000 -5.551115e-016 1.000000e+000
    outer loop
      vertex   -1.414000e+002 3.500000e+001 2.999999e+000
      vertex   -9.600000e+001 2.700000e+001 2.999999e+000
      vertex   -9.600000e+001 3.500000e+001 2.999999e+000
    endloop
  endfacet
  facet normal 0.000000e+000 -6.661338e-016 1.000000e+000
    outer loop
      vertex   -1.414000e+002 3.700000e+001 2.999999e+000
      vertex   -9.600000e+001 3.500000e+001 2.999999e+000
      vertex   -9.600000e+001 3.700000e+001 2.999999e+000
    endloop
  endfacet
  facet normal 0.000000e+000 -6.661338e-016 1.000000e+000
    outer loop
      vertex   -1.414000e+002 3.700000e+001 2.999999e+000
      vertex   -1.414000e+002 3.500000e+001 2.999999e+000
      vertex   -9.600000e+001 3.500000e+001 2.999999e+000
    endloop
  endfacet
  facet normal -1.665335e-015 -5.551115e-016 1.000000e+000
    outer loop
      vertex   -9.600000e+001 2.700000e+001 2.999999e+000
      vertex   -9.200000e+001 2.700000e+001 2.999999e+000
      vertex   -9.600000e+001 3.500000e+001 2.999999e+000
    endloop
  endfacet
  facet normal -2.775558e-015 -1.110223e-015 1.000000e+000
    outer loop
      vertex   -9.600000e+001 3.500000e+001 2.999999e+000
      vertex   -9.200000e+001 2.700000e+001 2.999999e+000
      vertex   -9.200000e+001 3.500000e+001 2.999999e+000
    endloop
  endfacet
  facet normal 0.000000e+000 -5.551115e-016 1.000000e+000
    outer loop
      vertex   -1.414000e+002 2.700000e+001 2.999999e+000
      vertex   -9.600000e+001 2.700000e+001 2.999999e+000
      vertex   -1.414000e+002 3.500000e+001 2.999999e+000
    endloop
  endfacet
  facet normal -1.000000e+000 -0.000000e+000 0.000000e+000
    outer loop
      vertex   -1.474000e+002 3.700000e+001 0.000000e+000
      vertex   -1.474000e+002 2.500000e+001 -8.881784e-015
      vertex   -1.474000e+002 3.700000e+001 5.620000e+001
    endloop
  endfacet
  facet normal -1.000000e+000 -0.000000e+000 0.000000e+000
    outer loop
      vertex   -1.474000e+002 3.700000e+001 5.620000e+001
      vertex   -1.474000e+002 2.500000e+001 -8.881784e-015
      vertex   -1.474000e+002 2.500000e+001 5.620000e+001
    endloop
  endfacet
  facet normal 1.000000e+000 0.000000e+000 -0.000000e+000
    outer loop
      vertex   -2.500000e+001 2.500000e+001 -1.469576e-015
      vertex   -2.500000e+001 3.700000e+001 0.000000e+000
      vertex   -2.500000e+001 2.500000e+001 5.620000e+001
    endloop
  endfacet
  facet normal 1.000000e+000 -0.000000e+000 0.000000e+000
    outer loop
      vertex   -2.500000e+001 2.500000e+001 5.620000e+001
      vertex   -2.500000e+001 3.700000e+001 0.000000e+000
      vertex   -2.500000e+001 3.700000e+001 5.620000e+001
    endloop
  endfacet
  facet normal 0.000000e+000 -0.000000e+000 1.000000e+000
    outer loop
      vertex   -1.454000e+002 3.500000e+001 5.620000e+001
      vertex   -1.454000e+002 3.700000e+001 5.620000e+001
      vertex   -1.454000e+002 3.500000e+001 5.620000e+001
    endloop
  endfacet
  facet normal 0.000000e+000 -0.000000e+000 1.000000e+000
    outer loop
      vertex   -1.454000e+002 3.500000e+001 5.620000e+001
      vertex   -1.454000e+002 3.700000e+001 5.620000e+001
      vertex   -1.474000e+002 3.700000e+001 5.620000e+001
    endloop
  endfacet
  facet normal 0.000000e+000 -0.000000e+000 1.000000e+000
    outer loop
      vertex   -1.474000e+002 2.500000e+001 5.620000e+001
      vertex   -1.454000e+002 3.500000e+001 5.620000e+001
      vertex   -1.474000e+002 3.700000e+001 5.620000e+001
    endloop
  endfacet
  facet normal 0.000000e+000 0.000000e+000 1.000000e+000
    outer loop
      vertex   -1.474000e+002 2.500000e+001 5.620000e+001
      vertex   -1.454000e+002 2.700000e+001 5.620000e+001
      vertex   -1.454000e+002 3.500000e+001 5.620000e+001
    endloop
  endfacet
  facet normal 0.000000e+000 -0.000000e+000 1.000000e+000
    outer loop
      vertex   -1.474000e+002 2.500000e+001 5.620000e+001
      vertex   -1.454000e+002 2.500000e+001 5.620000e+001
      vertex   -1.454000e+002 2.700000e+001 5.620000e+001
    endloop
  endfacet
  facet normal -0.000000e+000 0.000000e+000 1.000000e+000
    outer loop
      vertex   -1.454000e+002 2.700000e+001 5.620000e+001
      vertex   -1.454000e+002 2.500000e+001 5.620000e+001
      vertex   -1.454000e+002 2.700000e+001 5.620000e+001
    endloop
  endfacet
endsolid
